<svg width="30" height="25" viewBox="0 0 30 25" fill="none" xmlns="http://www.w3.org/2000/svg">
    <path d="M26.9611 3.02246H9.787C9.787 3.02246 9.787 4.75546 9.787 5.02041H26.9611C27.5494 5.02041 27.9932 5.64976 27.9932 6.39899V18.8162L24.5044 14.8203C24.2532 14.5261 23.9378 14.2894 23.5809 14.127C23.224 13.9647 22.8344 13.8808 22.44 13.8813C22.0465 13.8796 21.6574 13.9619 21.3005 14.1225C20.9437 14.2831 20.6279 14.518 20.3756 14.8104L16.7113 19.076L12.9954 14.8403C12.7423 14.549 12.4263 14.3149 12.0696 14.1544C11.713 13.9939 11.3243 13.9109 10.931 13.9113C10.5361 13.9133 10.1464 13.9994 9.7897 14.1634C9.43295 14.3274 9.11782 14.5653 8.86663 14.8603L5.20233 19.1859V9.64399H3.13796L3.13794 21.6733C3.13794 21.8132 3.13794 21.953 3.13794 22.1129C3.16655 22.3059 3.21143 22.4963 3.27213 22.6823C3.27213 22.7322 3.27213 22.7922 3.27213 22.8421L3.32374 22.962C3.39475 23.1418 3.48106 23.3155 3.58178 23.4814L3.70565 23.6713C3.79885 23.8052 3.90236 23.9321 4.01531 24.0509L4.17014 24.2007C4.33317 24.3499 4.51325 24.4806 4.70688 24.5903H4.73785C5.18693 24.8605 5.70574 25.0025 6.23453 24.9999H26.8785C27.3293 24.9954 27.7732 24.8925 28.1771 24.6988C28.5811 24.505 28.9346 24.2255 29.2112 23.881C29.4892 23.5479 29.7025 23.1689 29.8409 22.7622C29.924 22.4888 29.9759 22.2074 29.9957 21.923C29.9957 21.8232 29.9957 21.7233 29.9957 21.6134V6.39899C30.0391 5.56564 29.7473 4.74841 29.1815 4.11884C28.6157 3.48927 27.8198 3.09632 26.9611 3.02246Z" fill="#19ACFE"/>
    <path d="M15.6894 11.5923C16.8295 11.5923 17.7538 10.6978 17.7538 9.59438C17.7538 8.49095 16.8295 7.59644 15.6894 7.59644C14.5493 7.59644 13.625 8.49095 13.625 9.59438C13.625 10.6978 14.5493 11.5923 15.6894 11.5923Z" fill="#19ACFE"/>
    <path d="M4.12916 8.07504H5.16099V5.03649H8.25754C8.25754 5.03649 8.25758 4.30246 8.25758 4.03752C8.25758 3.77258 8.25754 3.03855 8.25754 3.03855H5.16099V0C5.16099 0 4.40292 0 4.12916 0C3.85541 0 3.06628 0.00300487 3.09659 0V3.03855H3.24835e-05C3.24835e-05 3.03855 0 3.77258 0 4.03752C0 4.30246 8.49847e-05 5.03649 8.49847e-05 5.03649H3.09659V8.07504C3.09659 8.07504 3.85541 8.07504 4.12916 8.07504Z" fill="#19ACFE"/>
</svg>
