<svg width="36" height="36" viewBox="0 0 36 36" fill="none" xmlns="http://www.w3.org/2000/svg">
    <g opacity="0.2">
        <circle cx="18" cy="18" r="18" transform="rotate(-180 18 18)" fill="white"/>
        <path d="M19.6464 23.1534C19.8417 23.3486 20.1583 23.3486 20.3536 23.1534C20.5488 22.9581 20.5488 22.6415 20.3536 22.4463L19.6464 23.1534ZM15.2 17.9998L14.8464 17.6463C14.6512 17.8415 14.6512 18.1581 14.8464 18.3534L15.2 17.9998ZM20.3536 13.5534C20.5488 13.3581 20.5488 13.0415 20.3536 12.8463C20.1583 12.651 19.8417 12.651 19.6464 12.8463L20.3536 13.5534ZM20.3536 22.4463L15.5536 17.6463L14.8464 18.3534L19.6464 23.1534L20.3536 22.4463ZM15.5536 18.3534L20.3536 13.5534L19.6464 12.8463L14.8464 17.6463L15.5536 18.3534Z" fill="black"/>
    </g>
</svg>
