<svg width="7" height="12" viewBox="0 0 7 12" fill="white" xmlns="http://www.w3.org/2000/svg">
    <path d="M1.35355 0.846642C1.15829 0.65138 0.841709 0.65138 0.646447 0.846642C0.451184 1.0419 0.451184 1.35849 0.646447 1.55375L1.35355 0.846642ZM5.8 6.0002L6.15355 6.35375C6.34882 6.15849 6.34882 5.8419 6.15355 5.64664L5.8 6.0002ZM0.646447 10.4466C0.451184 10.6419 0.451184 10.9585 0.646447 11.1537C0.841709 11.349 1.15829 11.349 1.35355 11.1537L0.646447 10.4466ZM0.646447 1.55375L5.44645 6.35375L6.15355 5.64664L1.35355 0.846642L0.646447 1.55375ZM5.44645 5.64664L0.646447 10.4466L1.35355 11.1537L6.15355 6.35375L5.44645 5.64664Z" fill="white"/>
</svg>
