<svg width="20" height="20" viewBox="0 0 20 20" fill="none" xmlns="http://www.w3.org/2000/svg">
    <path d="M19.7799 1.62C19.896 1.47365 19.9688 1.29773 19.99 1.11215C20.0112 0.926569 19.98 0.73876 19.8999 0.57C19.8189 0.399828 19.6914 0.256027 19.5321 0.155177C19.3729 0.0543265 19.1884 0.000533568 18.9999 0H0.999924C0.811438 0.000533568 0.62694 0.0543265 0.467703 0.155177C0.308466 0.256027 0.180973 0.399828 0.0999244 0.57C0.0198677 0.73876 -0.0113231 0.926569 0.00988585 1.11215C0.0310948 1.29773 0.103856 1.47365 0.219925 1.62L8.99992 12.6V18H3.24992C2.98471 18 2.73035 18.1054 2.54282 18.2929C2.35528 18.4804 2.24992 18.7348 2.24992 19C2.24992 19.2652 2.35528 19.5196 2.54282 19.7071C2.73035 19.8946 2.98471 20 3.24992 20H16.7499C17.0151 20 17.2695 19.8946 17.457 19.7071C17.6446 19.5196 17.7499 19.2652 17.7499 19C17.7499 18.7348 17.6446 18.4804 17.457 18.2929C17.2695 18.1054 17.0151 18 16.7499 18H10.9999V12.6L19.7799 1.62ZM3.07992 2H16.9199L14.5199 5H5.51992L3.07992 2ZM9.99992 10.65L7.07992 7H12.9199L9.99992 10.65Z" fill="#6DDB6D"/>
</svg>
