<svg width="18" height="18" viewBox="0 0 18 18" fill="none" xmlns="http://www.w3.org/2000/svg">
    <path d="M8.9684 18C6.00233 17.9472 3.6224 16.7137 1.78235 14.4025C1.46164 14 1.44814 13.8396 1.73929 13.3925C2.49768 12.2273 3.55621 11.3983 4.76513 10.7471C5.84936 10.1629 7.02808 9.86852 8.21901 9.6128C8.41953 9.56964 8.56607 9.61666 8.67661 9.80089C10.0424 12.0772 12.1729 13.2888 14.6139 14.0592C14.9487 14.1649 15.3035 14.2054 15.6441 14.2963C16.085 14.4141 16.13 14.5823 15.8235 14.9082C14.4757 16.3414 12.8799 17.3572 10.946 17.7952C10.2969 17.9427 9.63552 17.9961 8.9684 18Z" fill="#7FBA00"/>
    <path d="M10.98 4.44178C10.9717 3.15739 10.7904 1.90134 10.3682 0.683933C10.3058 0.504222 10.1895 0.292303 10.3322 0.135136C10.4793 -0.0278287 10.6947 0.0958441 10.8753 0.141577C12.6658 0.593755 14.2771 1.38797 15.522 2.77993C18.1044 5.66755 18.6391 8.94424 17.2631 12.5494C17.1043 12.9655 16.9616 13.0583 16.4668 13.0332C15.4031 12.9791 14.4159 12.6422 13.4679 12.1745C12.0765 11.4885 10.9807 10.4463 9.97354 9.29207C9.81029 9.10462 9.85978 8.94488 9.95297 8.76968C10.4054 7.92265 10.7313 7.03439 10.8675 6.07786C10.9453 5.53358 10.9884 4.99058 10.98 4.44178Z" fill="#1A9CD6"/>
    <path d="M0.000770334 9.21412C0.00205574 4.77543 2.86786 1.18634 6.99658 0.204693C7.2768 0.138348 7.56665 0.106785 7.8443 0.0320663C8.21835 -0.0690618 8.4568 0.0739348 8.64125 0.39149C9.14834 1.26493 9.46005 2.20214 9.58924 3.20247C9.78333 4.70135 9.51276 6.12166 8.89962 7.49365C8.70552 7.92779 8.42852 8.19639 7.94906 8.23826C6.8629 8.33295 5.82943 8.63762 4.82874 9.05695C3.27276 9.70945 1.90767 10.6183 0.928189 12.0322C0.867775 12.1191 0.806717 12.2377 0.691674 12.2273C0.556706 12.2145 0.522643 12.0747 0.48858 11.9652C0.185225 10.988 -0.0140118 9.99287 0.000770334 9.21412Z" fill="#F35123"/>
</svg>
