<svg width="32" height="32" viewBox="0 0 32 32" fill="none" xmlns="http://www.w3.org/2000/svg">
<circle cx="16" cy="16" r="16" fill="url(#paint0_radial_37_1318)"/>
<path d="M7.11245 16.3431C7.11393 16.3482 7.11584 16.353 7.11732 16.358C7.16945 16.5304 7.24489 16.6966 7.34406 16.8541C7.36822 16.8926 7.39005 16.932 7.41717 16.9692C7.42353 16.978 7.43222 16.9889 7.439 16.9983C7.49367 17.0772 7.55152 17.1544 7.61657 17.2274C8.38431 18.1885 10.2224 20.1782 11.7945 21.9066C13.1369 23.3824 15.4855 23.3611 16.8005 21.8616C19.1499 19.1824 23.6302 13.9728 24.3543 13.1306C24.3893 13.0923 24.4234 13.0529 24.4563 13.0119L24.4565 13.0117C24.4565 13.0117 24.4565 13.0117 24.4565 13.0115C24.8226 12.5564 25 12.0134 25 11.4741C25 11.4737 25 11.4735 25 11.4731C25 11.4727 25 11.4723 25 11.4718C24.9992 10.7658 24.6936 10.0667 24.1072 9.58024C24.1066 9.57983 24.1062 9.5792 24.1055 9.57878C24.0918 9.56748 24.0778 9.55618 24.0638 9.54509C24.0604 9.54237 24.057 9.53944 24.0534 9.53672L24.0532 9.53651C23.5923 9.17493 23.0422 8.99979 22.4961 9C22.4959 9 22.4957 9 22.4955 9C22.4953 9 22.4949 9 22.4946 9C21.7579 9.00063 21.0285 9.32078 20.5345 9.9345C20.5326 9.93659 17.0029 14.1439 15.3403 16.0692C14.8031 16.6913 13.8345 16.7056 13.2791 16.0989C12.5762 15.3312 11.5203 14.1308 11.3688 13.9811C11.3599 13.9724 11.1539 13.7627 11.0448 13.6771C10.9994 13.6415 10.952 13.6104 10.9049 13.5783C9.94075 12.9226 8.65237 13.0238 7.80538 13.7951C7.71151 13.8805 7.62145 13.9717 7.53944 14.0734C7.03002 14.7066 6.88953 15.5101 7.08363 16.2362C7.09359 16.2722 7.10122 16.308 7.11245 16.3431Z" fill="white"/>
<defs>
<radialGradient id="paint0_radial_37_1318" cx="0" cy="0" r="1" gradientUnits="userSpaceOnUse" gradientTransform="translate(13.5 3.5) rotate(57.0115) scale(33.9779)">
<stop stop-color="#FF4E4E"/>
<stop offset="1" stop-color="#FDB305"/>
</radialGradient>
</defs>
</svg>
