<svg width="20" height="16" viewBox="0 0 20 16" fill="none" xmlns="http://www.w3.org/2000/svg">
    <path d="M18.9435 4.84643C18.9609 4.82461 18.9752 4.80142 18.9915 4.77926C19.0228 4.73732 19.0541 4.69538 19.0827 4.6514C19.1035 4.61969 19.1222 4.58696 19.1416 4.55456C19.1661 4.51331 19.1906 4.47205 19.2131 4.42943C19.2322 4.39295 19.2489 4.35612 19.2662 4.3193C19.2849 4.27873 19.304 4.23849 19.3207 4.1969C19.3367 4.157 19.3506 4.11643 19.3649 4.07585C19.3789 4.03562 19.3928 3.99573 19.4051 3.95481C19.4177 3.91151 19.4282 3.86787 19.4388 3.82422C19.4483 3.78467 19.4579 3.7458 19.4657 3.70557C19.4749 3.65818 19.481 3.61044 19.4875 3.56237C19.4926 3.5252 19.498 3.48804 19.5014 3.45019C19.5062 3.39768 19.5079 3.34517 19.5093 3.29267C19.5103 3.26505 19.5133 3.23811 19.5133 3.21049C19.5133 3.20265 19.5123 3.19481 19.5123 3.18697C19.512 3.15253 19.5093 3.11809 19.5079 3.08366C19.5055 3.0349 19.5031 2.98648 19.4984 2.93841C19.4953 2.9084 19.4905 2.87874 19.4865 2.84908C19.4793 2.79691 19.4715 2.74474 19.4613 2.6936C19.4558 2.66598 19.449 2.6387 19.4429 2.61142C19.4306 2.55926 19.4174 2.50777 19.4024 2.45697C19.3942 2.42935 19.3854 2.40173 19.3762 2.37446C19.3598 2.3257 19.3421 2.27796 19.3231 2.23057C19.3115 2.20125 19.2996 2.17227 19.2866 2.14328C19.2672 2.09964 19.2461 2.05702 19.2243 2.0144C19.2087 1.98371 19.1934 1.95269 19.1763 1.92268C19.1542 1.88313 19.1297 1.84494 19.1055 1.80676C19.0865 1.77641 19.0684 1.74538 19.0477 1.71572C19.0061 1.65571 18.9622 1.59741 18.9159 1.54115C18.8005 1.40067 18.6695 1.26974 18.5214 1.15177C18.5187 1.14938 18.5156 1.14768 18.5126 1.14563C18.4863 1.12483 18.4578 1.10676 18.4309 1.08699C18.3832 1.05221 18.3359 1.01709 18.2872 0.986061C18.2579 0.967308 18.2266 0.951624 18.1967 0.934235C18.147 0.905594 18.0973 0.876612 18.0465 0.851722C18.0149 0.836038 17.9822 0.82274 17.9499 0.80842C17.8981 0.785576 17.8464 0.763072 17.7936 0.743638C17.7596 0.731022 17.7252 0.720452 17.6905 0.709201C17.6367 0.691812 17.5833 0.675786 17.5288 0.662148C17.4937 0.653283 17.4587 0.645441 17.4229 0.638281C17.3657 0.626347 17.3082 0.6168 17.2503 0.608617C17.2166 0.603843 17.1829 0.59907 17.1489 0.59566C17.0832 0.589182 17.0178 0.586113 16.9518 0.584409C16.9304 0.583727 16.9096 0.580658 16.8882 0.580658C16.8807 0.580658 16.8739 0.581681 16.8664 0.581681C16.815 0.582022 16.7639 0.586113 16.7125 0.589523C16.6757 0.59191 16.6386 0.592933 16.6026 0.596683C16.562 0.601116 16.5222 0.608958 16.4821 0.615095C16.4364 0.622255 16.3901 0.628052 16.3452 0.637598C16.3204 0.642713 16.2962 0.650555 16.2717 0.656692C16.2131 0.670672 16.1546 0.684651 16.0977 0.702381C16.0851 0.706472 16.0729 0.711928 16.0603 0.71602C15.9929 0.738523 15.9258 0.76205 15.8612 0.789668C15.8217 0.806375 15.7839 0.826832 15.7454 0.845585C15.7087 0.863315 15.6709 0.87934 15.6351 0.899116C15.5715 0.933553 15.5099 0.972423 15.4489 1.01232C15.4394 1.01879 15.4292 1.02391 15.4197 1.03039C15.3696 1.06414 15.322 1.10199 15.274 1.13949C15.2546 1.1545 15.2341 1.16848 15.2151 1.18416C15.1793 1.21382 15.1456 1.2469 15.1112 1.27861C15.0816 1.30588 15.0513 1.3318 15.0231 1.36044C14.9972 1.38669 14.973 1.41567 14.9482 1.44295C14.9138 1.4808 14.8794 1.51796 14.8471 1.55785C14.8423 1.56365 14.8372 1.56842 14.8328 1.57422C14.8308 1.57661 11.1306 6.05036 9.38803 8.0975C8.82501 8.75896 7.80958 8.77396 7.22749 8.1292C6.49086 7.31294 5.38386 6.03638 5.22489 5.87749C5.2157 5.86829 4.99989 5.6453 4.88517 5.55426C4.83751 5.51642 4.78782 5.48334 4.73846 5.44925C3.7278 4.75198 2.37707 4.85972 1.4893 5.67974C1.39092 5.77077 1.29629 5.86761 1.21051 5.97569C0.676417 6.64875 0.529362 7.50354 0.732924 8.27548C0.742795 8.31332 0.750965 8.35151 0.762539 8.38868C0.764241 8.39413 0.766283 8.39925 0.767645 8.40436C0.822109 8.58746 0.901423 8.76442 1.00525 8.93183C1.03078 8.97274 1.05358 9.01468 1.08184 9.05423C1.08865 9.06378 1.0975 9.07537 1.10465 9.08526C1.16183 9.16914 1.22277 9.25131 1.29085 9.32905C2.09556 10.3509 4.02259 12.4666 5.67048 14.3047C7.07771 15.8738 9.53985 15.8513 10.9181 14.2566C13.4497 11.3284 18.3407 5.55767 18.8907 4.90848C18.9023 4.89484 18.9139 4.88155 18.9251 4.86791C18.9367 4.85461 18.9435 4.84643 18.9435 4.84643Z" fill="url(#paint0_linear_9026_160425)"/>
    <path d="M16.8882 5.84036C18.3382 5.84036 19.5137 4.66294 19.5137 3.21052C19.5137 1.75811 18.3382 0.580688 16.8882 0.580688C15.4381 0.580688 14.2626 1.75811 14.2626 3.21052C14.2626 4.66294 15.4381 5.84036 16.8882 5.84036Z" fill="#D7FFC0"/>
    <defs>
        <linearGradient id="paint0_linear_9026_160425" x1="0.644728" y1="8.02401" x2="19.5135" y2="8.02401" gradientUnits="userSpaceOnUse">
            <stop stop-color="#54C1FF"/>
            <stop offset="1" stop-color="#88FFCC"/>
        </linearGradient>
    </defs>
</svg>
