<svg width="28" height="28" viewBox="0 0 28 28" fill="none" xmlns="http://www.w3.org/2000/svg">
    <path d="M11.6667 11.6667C11.6667 11.436 11.5983 11.2104 11.4701 11.0185C11.3419 10.8267 11.1597 10.6771 10.9465 10.5888C10.7333 10.5005 10.4988 10.4774 10.2724 10.5225C10.0461 10.5675 9.83825 10.6786 9.67509 10.8417C9.51193 11.0049 9.40081 11.2128 9.3558 11.4391C9.31078 11.6654 9.33388 11.9 9.42219 12.1132C9.51049 12.3264 9.66002 12.5086 9.85188 12.6368C10.0437 12.7649 10.2693 12.8334 10.5 12.8334C10.8095 12.8334 11.1062 12.7105 11.325 12.4917C11.5438 12.2729 11.6667 11.9761 11.6667 11.6667ZM16.9167 16.4034C16.7843 16.3258 16.6378 16.275 16.4857 16.2541C16.3336 16.2332 16.1788 16.2426 16.0304 16.2816C15.8819 16.3206 15.7425 16.3885 15.6204 16.4815C15.4982 16.5745 15.3956 16.6907 15.3184 16.8234C15.1859 17.0562 14.9942 17.2499 14.7626 17.3845C14.531 17.5192 14.2679 17.5902 14 17.5902C13.7322 17.5902 13.469 17.5192 13.2375 17.3845C13.0059 17.2499 12.8142 17.0562 12.6817 16.8234C12.6045 16.6907 12.5019 16.5745 12.3797 16.4815C12.2575 16.3885 12.1182 16.3206 11.9697 16.2816C11.8212 16.2426 11.6665 16.2332 11.5144 16.2541C11.3623 16.275 11.2158 16.3258 11.0834 16.4034C10.8165 16.5573 10.6214 16.8105 10.5405 17.1077C10.4596 17.405 10.4996 17.7222 10.6517 17.99C10.9901 18.579 11.4778 19.0683 12.0657 19.4085C12.6536 19.7487 13.3208 19.9279 14 19.9279C14.6793 19.9279 15.3465 19.7487 15.9344 19.4085C16.5223 19.0683 17.01 18.579 17.3484 17.99C17.5005 17.7222 17.5405 17.405 17.4596 17.1077C17.3787 16.8105 17.1836 16.5573 16.9167 16.4034ZM17.5 10.5C17.2693 10.5 17.0437 10.5685 16.8519 10.6967C16.66 10.8249 16.5105 11.0071 16.4222 11.2202C16.3339 11.4334 16.3108 11.668 16.3558 11.8943C16.4008 12.1206 16.5119 12.3285 16.6751 12.4917C16.8382 12.6548 17.0461 12.7659 17.2724 12.811C17.4988 12.856 17.7333 12.8329 17.9465 12.7446C18.1597 12.6563 18.3419 12.5067 18.4701 12.3149C18.5983 12.123 18.6667 11.8975 18.6667 11.6667C18.6667 11.3573 18.5438 11.0605 18.325 10.8417C18.1062 10.623 17.8095 10.5 17.5 10.5ZM14 2.33337C11.6926 2.33337 9.43697 3.01761 7.51839 4.29956C5.59982 5.58151 4.10447 7.4036 3.22145 9.5354C2.33843 11.6672 2.10739 14.013 2.55755 16.2761C3.00771 18.5392 4.11885 20.618 5.75047 22.2496C7.38208 23.8812 9.46088 24.9924 11.724 25.4425C13.9871 25.8927 16.3329 25.6617 18.4647 24.7786C20.5965 23.8956 22.4186 22.4003 23.7005 20.4817C24.9825 18.5631 25.6667 16.3075 25.6667 14C25.6667 12.468 25.3649 10.9509 24.7786 9.5354C24.1923 8.11994 23.333 6.83381 22.2496 5.75046C21.1663 4.66711 19.8802 3.80775 18.4647 3.22145C17.0492 2.63514 15.5321 2.33337 14 2.33337ZM14 23.3334C11.8269 23.3428 9.71862 22.5935 8.03874 21.2149C6.35887 19.8362 5.21273 17.9146 4.79798 15.7814C4.38323 13.6482 4.72586 11.4371 5.7668 9.5295C6.80773 7.62187 8.48171 6.13726 10.5 5.33171C10.488 5.49871 10.488 5.66637 10.5 5.83337C10.5 6.76163 10.8688 7.65187 11.5252 8.30825C12.1815 8.96462 13.0718 9.33337 14 9.33337C14.3095 9.33337 14.6062 9.21046 14.825 8.99166C15.0438 8.77287 15.1667 8.47613 15.1667 8.16671C15.1667 7.85729 15.0438 7.56054 14.825 7.34175C14.6062 7.12296 14.3095 7.00004 14 7.00004C13.6906 7.00004 13.3939 6.87712 13.1751 6.65833C12.9563 6.43954 12.8334 6.14279 12.8334 5.83337C12.8334 5.52395 12.9563 5.22721 13.1751 5.00842C13.3939 4.78962 13.6906 4.66671 14 4.66671C16.4754 4.66671 18.8494 5.65004 20.5997 7.40038C22.35 9.15072 23.3334 11.5247 23.3334 14C23.3334 16.4754 22.35 18.8494 20.5997 20.5997C18.8494 22.35 16.4754 23.3334 14 23.3334Z" fill="#6DDB6D"/>
</svg>
