<svg width="12" height="12" viewBox="0 0 12 12" fill="none" xmlns="http://www.w3.org/2000/svg">
    <path fill-rule="evenodd" clip-rule="evenodd" d="M7.88956 1.29375C7.51796 1.29375 7.16158 1.44137 6.89882 1.70413L2.30382 6.29913C1.85342 6.74953 1.60039 7.3604 1.60039 7.99736C1.60039 8.63432 1.85342 9.2452 2.30382 9.6956C2.75422 10.146 3.3651 10.399 4.00206 10.399C4.63902 10.399 5.24989 10.146 5.70029 9.6956L10.2953 5.1006C10.5296 4.86628 10.9095 4.86628 11.1438 5.1006C11.3781 5.33491 11.3781 5.71481 11.1438 5.94913L6.54882 10.5441C5.87338 11.2196 4.95728 11.599 4.00206 11.599C3.04684 11.599 2.13074 11.2196 1.45529 10.5441C0.779851 9.86868 0.400391 8.95258 0.400391 7.99736C0.400391 7.04214 0.779851 6.12604 1.45529 5.4506L6.05029 0.855598C6.5381 0.367795 7.1997 0.09375 7.88956 0.09375C8.57942 0.09375 9.24102 0.367795 9.72882 0.855598C10.2166 1.3434 10.4907 2.005 10.4907 2.69486C10.4907 3.38472 10.2166 4.04632 9.72882 4.53413L5.12882 9.12912C4.82866 9.42929 4.42155 9.59792 3.99706 9.59792C3.57256 9.59792 3.16546 9.42929 2.86529 9.12912C2.56513 8.82896 2.3965 8.42185 2.3965 7.99736C2.3965 7.57287 2.56513 7.16576 2.86529 6.8656L7.11054 2.62535C7.345 2.39117 7.7249 2.39139 7.95907 2.62585C8.19325 2.8603 8.19303 3.2402 7.95857 3.47438L3.71382 7.71413C3.71377 7.71418 3.71388 7.71407 3.71382 7.71413C3.63881 7.78923 3.5965 7.89121 3.5965 7.99736C3.5965 8.1036 3.6387 8.20548 3.71382 8.2806C3.78894 8.35572 3.89083 8.39792 3.99706 8.39792C4.10329 8.39792 4.20518 8.35572 4.28029 8.2806L8.8803 3.6856C9.14291 3.42286 9.29067 3.06635 9.29067 2.69486C9.29067 2.32326 9.14305 1.96689 8.8803 1.70413C8.61754 1.44137 8.26116 1.29375 7.88956 1.29375Z" fill="#19ACFE"/>
</svg>
