<svg width="12" height="12" viewBox="0 0 12 12" fill="none" xmlns="http://www.w3.org/2000/svg">
<path fill-rule="evenodd" clip-rule="evenodd" d="M7.89005 1.29375C7.51845 1.29375 7.16207 1.44137 6.89931 1.70413L2.30431 6.29913C1.85391 6.74953 1.60088 7.3604 1.60088 7.99736C1.60088 8.63432 1.85391 9.2452 2.30431 9.6956C2.75471 10.146 3.36559 10.399 4.00255 10.399C4.63951 10.399 5.25038 10.146 5.70078 9.6956L10.2958 5.1006C10.5301 4.86628 10.91 4.86628 11.1443 5.1006C11.3786 5.33491 11.3786 5.71481 11.1443 5.94913L6.54931 10.5441C5.87387 11.2196 4.95777 11.599 4.00255 11.599C3.04733 11.599 2.13123 11.2196 1.45578 10.5441C0.780339 9.86868 0.400879 8.95258 0.400879 7.99736C0.400879 7.04214 0.780339 6.12604 1.45578 5.4506L6.05078 0.855598C6.53859 0.367795 7.20019 0.09375 7.89005 0.09375C8.5799 0.09375 9.24151 0.367795 9.72931 0.855598C10.2171 1.3434 10.4912 2.005 10.4912 2.69486C10.4912 3.38472 10.2171 4.04632 9.72931 4.53413L5.12931 9.12912C4.82915 9.42929 4.42204 9.59792 3.99755 9.59792C3.57305 9.59792 3.16595 9.42929 2.86578 9.12912C2.56562 8.82896 2.39699 8.42185 2.39699 7.99736C2.39699 7.57287 2.56562 7.16576 2.86578 6.8656L7.11103 2.62535C7.34549 2.39117 7.72538 2.39139 7.95956 2.62585C8.19374 2.8603 8.19351 3.2402 7.95906 3.47438L3.71431 7.71413C3.71426 7.71418 3.71437 7.71407 3.71431 7.71413C3.6393 7.78923 3.59699 7.89121 3.59699 7.99736C3.59699 8.1036 3.63919 8.20548 3.71431 8.2806C3.78943 8.35572 3.89131 8.39792 3.99755 8.39792C4.10378 8.39792 4.20566 8.35572 4.28078 8.2806L8.88078 3.6856C9.1434 3.42286 9.29116 3.06635 9.29116 2.69486C9.29116 2.32326 9.14354 1.96689 8.88078 1.70413C8.61802 1.44137 8.26165 1.29375 7.89005 1.29375Z" fill="#19ACFE"/>
</svg>
