<svg width="32" height="32" viewBox="0 0 32 32" fill="none" xmlns="http://www.w3.org/2000/svg">
<path fill-rule="evenodd" clip-rule="evenodd" d="M32 16C32 24.8366 24.8366 32 16 32C7.16344 32 0 24.8366 0 16C0 7.16344 7.16344 0 16 0C24.8366 0 32 7.16344 32 16ZM16.3566 7.99256C17.3782 7.00587 18.7465 6.4599 20.1667 6.47224C21.5869 6.48458 22.9455 7.05424 23.9498 8.05854C24.9541 9.06283 25.5238 10.4214 25.5361 11.8416C25.5484 13.2619 25.0025 14.6301 24.0158 15.6517L24.0006 15.6672L21.5007 18.1671C20.9516 18.7163 20.2907 19.1412 19.563 19.4127C18.8353 19.6841 18.0577 19.7959 17.2829 19.7404C16.5082 19.6849 15.7544 19.4635 15.0728 19.0911C14.3912 18.7187 13.7976 18.204 13.3324 17.5821C12.9189 17.0292 13.0318 16.2459 13.5846 15.8324C14.1374 15.4189 14.9208 15.5318 15.3343 16.0846C15.5848 16.4195 15.9044 16.6966 16.2714 16.8972C16.6385 17.0977 17.0443 17.2169 17.4615 17.2468C17.8787 17.2767 18.2974 17.2165 18.6892 17.0703C19.0811 16.9241 19.4369 16.6954 19.7326 16.3996L22.2244 13.9078C22.7514 13.3585 23.0428 12.6248 23.0362 11.8634C23.0295 11.0986 22.7228 10.3671 22.182 9.82631C21.6413 9.28553 20.9097 8.97879 20.145 8.97214C19.383 8.96552 18.6488 9.25737 18.0993 9.78506L16.673 11.2031C16.1834 11.6899 15.3919 11.6875 14.9052 11.198C14.4185 10.7084 14.4208 9.91694 14.9104 9.43021L16.3437 8.00521L16.3566 7.99256ZM14.7171 12.2596C13.9423 12.2041 13.1647 12.3159 12.437 12.5873C11.7093 12.8588 11.0484 13.2837 10.4993 13.8329L7.99945 16.3328L7.98422 16.3483C6.99753 17.3699 6.45156 18.7381 6.46391 20.1584C6.47625 21.5786 7.04591 22.9372 8.05021 23.9415C9.0545 24.9458 10.4131 25.5154 11.8333 25.5278C13.2535 25.5401 14.6218 24.9941 15.6434 24.0074L15.6589 23.9922L17.0839 22.5672C17.572 22.0791 17.572 21.2876 17.0839 20.7994C16.5957 20.3113 15.8043 20.3113 15.3161 20.7994L13.8995 22.2161C13.3502 22.743 12.6165 23.0345 11.855 23.0279C11.0903 23.0212 10.3587 22.7145 9.81797 22.1737C9.2772 21.6329 8.97046 20.9014 8.96381 20.1366C8.95719 19.3752 9.24862 18.6415 9.77557 18.0922L12.2674 15.6004C12.5631 15.3046 12.9189 15.0759 13.3108 14.9297C13.7026 14.7835 14.1213 14.7233 14.5385 14.7532C14.9557 14.7831 15.3615 14.9023 15.7286 15.1028C16.0956 15.3034 16.4152 15.5805 16.6657 15.9154C17.0792 16.4682 17.8626 16.5811 18.4154 16.1676C18.9682 15.7541 19.0811 14.9708 18.6676 14.4179C18.2024 13.796 17.6088 13.2813 16.9272 12.9089C16.2456 12.5365 15.4918 12.3151 14.7171 12.2596Z" fill="#56C2FE"/>
</svg>
