<svg width="118" height="40" viewBox="0 0 118 40" fill="none" xmlns="http://www.w3.org/2000/svg">
    <path d="M80.233 26V15.8182H81.4659V24.9062H86.1989V26H80.233ZM96.3024 20.9091C96.3024 21.983 96.1085 22.911 95.7207 23.6932C95.3329 24.4754 94.801 25.0786 94.1248 25.5028C93.4487 25.9271 92.6764 26.1392 91.8081 26.1392C90.9397 26.1392 90.1674 25.9271 89.4913 25.5028C88.8152 25.0786 88.2832 24.4754 87.8954 23.6932C87.5076 22.911 87.3137 21.983 87.3137 20.9091C87.3137 19.8352 87.5076 18.9072 87.8954 18.125C88.2832 17.3428 88.8152 16.7396 89.4913 16.3153C90.1674 15.8911 90.9397 15.679 91.8081 15.679C92.6764 15.679 93.4487 15.8911 94.1248 16.3153C94.801 16.7396 95.3329 17.3428 95.7207 18.125C96.1085 18.9072 96.3024 19.8352 96.3024 20.9091ZM95.1092 20.9091C95.1092 20.0275 94.9617 19.2834 94.6667 18.6768C94.3751 18.0703 93.979 17.6113 93.4785 17.2997C92.9814 16.9882 92.4245 16.8324 91.8081 16.8324C91.1916 16.8324 90.6331 16.9882 90.1326 17.2997C89.6355 17.6113 89.2394 18.0703 88.9444 18.6768C88.6528 19.2834 88.5069 20.0275 88.5069 20.9091C88.5069 21.7907 88.6528 22.5348 88.9444 23.1413C89.2394 23.7479 89.6355 24.2069 90.1326 24.5185C90.6331 24.83 91.1916 24.9858 91.8081 24.9858C92.4245 24.9858 92.9814 24.83 93.4785 24.5185C93.979 24.2069 94.3751 23.7479 94.6667 23.1413C94.9617 22.5348 95.1092 21.7907 95.1092 20.9091ZM105.336 19C105.226 18.6652 105.082 18.3653 104.903 18.1001C104.728 17.8317 104.517 17.603 104.272 17.4141C104.03 17.2251 103.755 17.081 103.447 16.9815C103.138 16.8821 102.8 16.8324 102.432 16.8324C101.829 16.8324 101.281 16.9882 100.787 17.2997C100.293 17.6113 99.9002 18.0703 99.6085 18.6768C99.3168 19.2834 99.171 20.0275 99.171 20.9091C99.171 21.7907 99.3185 22.5348 99.6135 23.1413C99.9084 23.7479 100.308 24.2069 100.812 24.5185C101.315 24.83 101.882 24.9858 102.512 24.9858C103.095 24.9858 103.609 24.8615 104.053 24.6129C104.501 24.361 104.849 24.0064 105.097 23.549C105.349 23.0883 105.475 22.5464 105.475 21.9233L105.853 22.0028H102.79V20.9091H106.668V22.0028C106.668 22.8414 106.489 23.5705 106.131 24.1903C105.777 24.8101 105.286 25.2907 104.66 25.6321C104.037 25.9702 103.321 26.1392 102.512 26.1392C101.61 26.1392 100.818 25.9271 100.135 25.5028C99.456 25.0786 98.9257 24.4754 98.5446 23.6932C98.1667 22.911 97.9778 21.983 97.9778 20.9091C97.9778 20.1037 98.0855 19.3795 98.301 18.7365C98.5197 18.0902 98.8279 17.54 99.2257 17.0859C99.6234 16.6319 100.094 16.2839 100.638 16.0419C101.181 15.8 101.779 15.679 102.432 15.679C102.969 15.679 103.47 15.7602 103.934 15.9226C104.401 16.0817 104.817 16.3087 105.182 16.6037C105.55 16.8954 105.856 17.245 106.101 17.6527C106.347 18.0571 106.516 18.5062 106.608 19H105.336ZM117.371 20.9091C117.371 21.983 117.177 22.911 116.789 23.6932C116.401 24.4754 115.869 25.0786 115.193 25.5028C114.517 25.9271 113.745 26.1392 112.876 26.1392C112.008 26.1392 111.236 25.9271 110.56 25.5028C109.884 25.0786 109.352 24.4754 108.964 23.6932C108.576 22.911 108.382 21.983 108.382 20.9091C108.382 19.8352 108.576 18.9072 108.964 18.125C109.352 17.3428 109.884 16.7396 110.56 16.3153C111.236 15.8911 112.008 15.679 112.876 15.679C113.745 15.679 114.517 15.8911 115.193 16.3153C115.869 16.7396 116.401 17.3428 116.789 18.125C117.177 18.9072 117.371 19.8352 117.371 20.9091ZM116.178 20.9091C116.178 20.0275 116.03 19.2834 115.735 18.6768C115.443 18.0703 115.047 17.6113 114.547 17.2997C114.05 16.9882 113.493 16.8324 112.876 16.8324C112.26 16.8324 111.701 16.9882 111.201 17.2997C110.704 17.6113 110.308 18.0703 110.013 18.6768C109.721 19.2834 109.575 20.0275 109.575 20.9091C109.575 21.7907 109.721 22.5348 110.013 23.1413C110.308 23.7479 110.704 24.2069 111.201 24.5185C111.701 24.83 112.26 24.9858 112.876 24.9858C113.493 24.9858 114.05 24.83 114.547 24.5185C115.047 24.2069 115.443 23.7479 115.735 23.1413C116.03 22.5348 116.178 21.7907 116.178 20.9091Z" fill="#B0BEC7"/>
    <circle cx="20" cy="20" r="19.5" stroke="#B0BEC7"/>
    <circle cx="49" cy="20" r="19.5" stroke="#B0BEC7"/>
</svg>
