<svg width="20" height="20" viewBox="0 0 20 20" fill="none" xmlns="http://www.w3.org/2000/svg">
<path fill-rule="evenodd" clip-rule="evenodd" d="M3.375 12.5V15.8333C3.375 16.0433 3.45841 16.2447 3.60687 16.3931C3.75534 16.5416 3.9567 16.625 4.16667 16.625H15.8333C16.0433 16.625 16.2447 16.5416 16.3931 16.3931C16.5416 16.2447 16.625 16.0433 16.625 15.8333V12.5H18.375V15.8333C18.375 16.5074 18.1072 17.1539 17.6306 17.6306C17.1539 18.1072 16.5074 18.375 15.8333 18.375H4.16667C3.49257 18.375 2.84609 18.1072 2.36944 17.6306C1.89278 17.1539 1.625 16.5074 1.625 15.8333V12.5H3.375Z" fill="#19ACFE"/>
<path fill-rule="evenodd" clip-rule="evenodd" d="M9.38127 13.1187L5.2146 8.95204L6.45204 7.7146L9.99998 11.2625L13.5479 7.7146L14.7854 8.95204L10.6187 13.1187C10.4546 13.2828 10.232 13.375 9.99998 13.375C9.76792 13.375 9.54536 13.2828 9.38127 13.1187Z" fill="#19ACFE"/>
<path fill-rule="evenodd" clip-rule="evenodd" d="M10.875 2.5V12.5H9.125V2.5H10.875Z" fill="#19ACFE"/>
</svg>
