<svg width="307" height="308" viewBox="0 0 307 308" fill="none" xmlns="http://www.w3.org/2000/svg">
    <path fill-rule="evenodd" clip-rule="evenodd" d="M127.933 6.36119C127.933 3.35977 130.366 0.926636 133.368 0.926636H172.779C175.781 0.926636 178.214 3.35977 178.214 6.36119V33.3452C193.589 36.533 207.914 42.5847 220.605 50.9148L239.693 31.8267C241.815 29.7044 245.256 29.7044 247.379 31.8267L275.247 59.6948C277.369 61.8171 277.369 65.2581 275.247 67.3804L256.159 86.4685C264.489 99.1595 270.54 113.485 273.728 128.86H300.712C303.714 128.86 306.147 131.293 306.147 134.294V173.706C306.147 176.707 303.714 179.14 300.712 179.14H273.728C271.566 189.57 268.085 199.518 263.469 208.8C261.849 212.057 257.595 212.797 254.955 210.394L226.613 184.604C224.992 183.129 224.431 180.846 225.132 178.809C227.807 171.038 229.261 162.694 229.261 154C229.261 111.923 195.151 77.8121 153.073 77.8121C110.996 77.8121 76.8854 111.923 76.8854 154C76.8854 196.077 110.996 230.188 153.073 230.188C162.467 230.188 171.454 228.49 179.751 225.388C181.865 224.598 184.276 225.189 185.777 226.928L210.46 255.537C212.742 258.182 211.983 262.313 208.812 263.924C199.263 268.775 188.996 272.419 178.214 274.655V301.639C178.214 304.64 175.781 307.073 172.779 307.073H133.368C130.366 307.073 127.933 304.64 127.933 301.639V274.655C112.558 271.467 98.2329 265.415 85.5419 257.085L66.4538 276.173C64.3315 278.296 60.8906 278.296 58.7682 276.173L30.9002 248.305C28.7778 246.183 28.7778 242.742 30.9002 240.62L49.9882 221.532C41.6581 208.841 35.6064 194.515 32.4186 179.14H5.43456C2.43314 179.14 1.7276e-06 176.707 1.7276e-06 173.706L0 134.294C0 131.293 2.43313 128.86 5.43456 128.86H32.4186C35.6064 113.485 41.6581 99.1595 49.9882 86.4686L30.9002 67.3805C28.7778 65.2582 28.7778 61.8172 30.9002 59.6949L58.7682 31.8268C60.8905 29.7045 64.3315 29.7045 66.4538 31.8268L85.5419 50.9149C98.2329 42.5847 112.558 36.533 127.933 33.3452V6.36119ZM136.991 9.98423V36.3288C136.991 38.9782 135.088 41.2129 132.522 41.6793C116.29 44.6293 101.252 51.0127 88.1879 60.0536C86.0409 61.5395 83.1171 61.2994 81.2465 59.4289L62.611 40.7934L39.8667 63.5377L58.5022 82.1732C60.3728 84.0437 60.6128 86.9675 59.127 89.1146C50.0861 102.179 43.7027 117.216 40.7527 133.449C40.2863 136.015 38.0515 137.917 35.4022 137.917H9.0576L9.0576 170.083H35.4022C38.0516 170.083 40.2863 171.985 40.7527 174.551C43.7027 190.784 50.0861 205.821 59.127 218.885C60.6128 221.033 60.3728 223.956 58.5022 225.827L39.8667 244.462L62.611 267.207L81.2465 248.571C83.1171 246.701 86.0409 246.461 88.188 247.946C101.252 256.987 116.29 263.371 132.522 266.321C135.088 266.787 136.991 269.022 136.991 271.671V298.016H169.156V271.671C169.156 269.023 171.057 266.787 173.624 266.321C183.041 264.61 192.054 261.743 200.513 257.874L180.539 234.723C171.916 237.656 162.676 239.246 153.073 239.246C105.994 239.246 67.8278 201.08 67.8278 154C67.8278 106.92 105.994 68.7545 153.073 68.7545C200.153 68.7545 238.319 106.92 238.319 154C238.319 162.87 236.963 171.431 234.443 179.483L257.42 200.391C261.051 192.237 263.753 183.579 265.394 174.551C265.861 171.983 268.097 170.083 270.745 170.083H297.089V137.917H270.745C268.095 137.917 265.861 136.015 265.394 133.449C262.444 117.216 256.061 102.179 247.02 89.1145C245.534 86.9675 245.774 84.0437 247.645 82.1731L266.28 63.5376L243.536 40.7933L224.9 59.4288C223.03 61.2994 220.106 61.5394 217.959 60.0536C204.894 51.0127 189.857 44.6293 173.625 41.6793C171.058 41.2129 169.156 38.9782 169.156 36.3288V9.98423H136.991Z" fill="#778995"/>
    <path fill-rule="evenodd" clip-rule="evenodd" d="M143.311 110.897C160.146 105.705 179.24 109.766 192.578 123.105C206.324 136.851 210.218 156.707 204.283 173.913L298.956 262.898C309.454 272.764 309.711 289.358 299.524 299.545C289.337 309.732 272.743 309.475 262.877 298.977L173.892 204.304C156.686 210.239 136.83 206.345 123.084 192.599C109.559 179.075 105.573 159.633 111.099 142.628C111.586 141.129 112.817 139.992 114.349 139.624C115.881 139.256 117.494 139.711 118.608 140.825L146.313 168.529C151.271 173.488 160.22 172.611 166.616 166.216C173.011 159.82 173.888 150.871 168.929 145.913L141.443 118.427C140.32 117.304 139.868 115.675 140.25 114.134C140.632 112.593 141.794 111.365 143.311 110.897ZM153.797 117.971L175.334 139.508C185.181 149.355 181.431 164.211 173.02 172.621C164.61 181.031 149.755 184.781 139.908 174.934L118.034 153.06C116.622 164.856 120.444 177.15 129.489 186.194C141.344 198.05 158.787 200.933 173.362 194.816C175.105 194.084 177.12 194.512 178.415 195.89L269.477 292.774C275.842 299.547 286.547 299.712 293.119 293.14C299.691 286.568 299.526 275.863 292.753 269.497L195.869 178.436C194.491 177.141 194.063 175.126 194.795 173.383C200.912 158.808 198.029 141.365 186.174 129.509C177.323 120.659 165.36 116.808 153.797 117.971ZM274.179 273.294C278.569 268.903 285.687 268.903 290.078 273.294C294.468 277.684 294.468 284.802 290.078 289.193C285.687 293.583 278.569 293.583 274.179 289.193C269.788 284.802 269.788 277.684 274.179 273.294ZM283.673 279.698C282.82 278.845 281.437 278.845 280.583 279.698C279.73 280.552 279.73 281.935 280.583 282.788C281.437 283.641 282.82 283.641 283.673 282.788C284.526 281.935 284.526 280.552 283.673 279.698Z" fill="#778995"/>
    <path fill-rule="evenodd" clip-rule="evenodd" d="M240.252 255.004C236.184 250.936 236.184 244.341 240.252 240.273C244.32 236.205 250.915 236.205 254.983 240.273L268.306 253.597C272.374 257.664 272.374 264.26 268.306 268.327C264.239 272.395 257.643 272.395 253.576 268.327L240.252 255.004ZM246.657 246.677C246.126 247.208 246.126 248.068 246.657 248.599L259.98 261.923C260.511 262.453 261.371 262.453 261.902 261.923C262.432 261.392 262.432 260.532 261.902 260.001L248.578 246.677C248.047 246.147 247.187 246.147 246.657 246.677Z" fill="#778995"/>
</svg>
