<svg width="225" height="568" viewBox="0 0 225 568" fill="none" xmlns="http://www.w3.org/2000/svg">
    <path d="M224.779 112.205C224.779 82.1709 213.088 53.9729 191.838 32.8243C170.588 11.6758 142.353 0 112.353 0C82.2794 0 54.0441 11.6758 32.7941 32.8977C13.3088 52.4308 1.83824 78.1321 0.220588 105.743H0V132.619C0 145.543 10.5882 156.044 23.8971 156.044C30.1471 156.044 36.1029 153.621 40.5147 149.141C44.9265 144.735 47.4265 138.787 47.3529 132.546V111.25C47.5735 94.2138 54.3382 78.279 66.3235 66.3095C78.6029 54.0463 94.9265 47.2905 112.353 47.2905C129.706 47.2905 146.029 54.0463 158.309 66.3095C170.588 78.5727 177.353 94.8747 177.353 112.205C177.353 114.628 177.206 117.125 176.838 119.842L182.279 120.503L176.691 120.576C176.324 123.073 175.882 125.496 175.294 127.993C172.426 139.448 166.544 149.876 158.309 158.174L7.79412 308.71C2.86765 313.63 0.147059 320.239 0.147059 327.215L0.294118 541.858C0.294118 556.251 12.0588 568 26.4706 568L198.824 567.853C213.235 567.853 225 556.104 225 541.711L224.779 112.205ZM198.824 556.912L26.4706 556.985C18.0882 556.985 11.3235 550.229 11.3235 541.858L11.1765 327.215C11.1765 323.176 12.7206 319.358 15.5882 316.494L166.176 165.957C175.882 156.264 182.721 144.074 186.103 130.636C186.838 127.846 187.353 124.982 187.721 122.045L187.868 121.164C188.235 118.006 188.456 115.069 188.456 112.205C188.456 91.864 180.515 72.845 166.176 58.5257C151.838 44.2063 132.721 36.2756 112.426 36.2756C92.0588 36.2756 72.9412 44.2063 58.6029 58.5257C44.5588 72.5513 36.6912 91.2031 36.3971 111.177V132.546C36.3971 135.85 35.0735 139.008 32.7206 141.357C30.3676 143.707 27.2059 145.029 23.5294 145.029C16.6912 145.029 11.1029 139.448 11.1029 132.619V116.758L11.1765 111.324C11.4706 84.5208 21.9118 59.4069 40.6618 40.6816C59.7794 21.5157 85.2941 11.0149 112.353 11.0149C139.412 11.0149 164.853 21.5157 184.044 40.6081C203.235 59.7006 213.75 85.1082 213.75 112.205L214.044 541.711C214.044 550.082 207.206 556.838 198.824 556.912Z" fill="#778995"/>
    <path d="M100.515 497.872C99.2646 496.403 97.647 495.228 95.5881 494.421C93.5293 493.613 91.1028 493.172 88.1617 493.172H69.044C66.1028 493.172 63.6028 493.613 61.6175 494.421C59.5587 495.228 57.9411 496.403 56.6911 497.872C55.4411 499.341 54.4852 501.103 53.9705 503.086C53.3823 505.068 53.0881 507.198 53.0881 509.474V521.811C53.0881 522.986 53.3823 524.014 53.897 524.675C54.4852 525.409 55.0734 525.776 55.8823 525.776H101.397C102.132 525.776 102.794 525.409 103.382 524.675C103.97 523.941 104.191 522.986 104.191 521.811V509.474C104.191 507.198 103.897 505.068 103.309 503.086C102.72 501.103 101.765 499.414 100.515 497.872ZM96.1764 516.818H61.0293V509.548C61.0293 507.198 61.6911 505.436 63.0146 504.114C64.3381 502.865 66.3234 502.205 69.1175 502.205H88.1617C90.8823 502.205 92.9411 502.865 94.2646 504.114C95.5881 505.362 96.2499 507.198 96.2499 509.548V516.818H96.1764Z" fill="#778995"/>
    <path d="M100.956 457.998C99.7058 456.529 98.0881 455.355 96.0293 454.547C93.9705 453.739 91.544 453.298 88.6028 453.298H69.044C66.1028 453.298 63.6028 453.739 61.6175 454.547C59.5587 455.355 57.9411 456.529 56.6911 457.998C55.4411 459.467 54.4852 461.229 53.9705 463.212C53.3823 465.195 53.0881 467.324 53.0881 469.6C53.0881 471.95 53.3823 474.08 53.9705 476.063C54.5587 478.045 55.4411 479.734 56.6911 481.203C57.9411 482.671 59.5587 483.846 61.6175 484.654C63.6764 485.462 66.1028 485.902 69.044 485.902H88.5293C91.4705 485.902 93.9705 485.462 95.9558 484.654C98.0146 483.846 99.6323 482.671 100.882 481.203C102.132 479.734 103.088 478.045 103.676 476.063C104.265 474.08 104.559 471.95 104.559 469.6C104.559 467.324 104.265 465.195 103.676 463.212C103.088 461.229 102.206 459.467 100.956 457.998ZM94.7058 475.034C93.4558 476.283 91.397 476.944 88.6028 476.944H69.044C66.2499 476.944 64.1911 476.283 62.9411 475.034C61.6911 473.786 61.0293 472.024 61.0293 469.674C61.0293 467.397 61.6911 465.635 62.9411 464.313C64.1911 462.992 66.2499 462.331 69.044 462.331H88.5293C91.3234 462.331 93.3822 462.992 94.6322 464.313C95.8822 465.635 96.544 467.397 96.544 469.674C96.6175 471.95 95.9558 473.786 94.7058 475.034Z" fill="#778995"/>
    <path d="M55.4411 421.796C54.7793 422.237 54.3381 422.751 53.9705 423.191C53.6028 423.705 53.3823 424.219 53.2352 424.807C53.0881 425.394 53.0881 426.129 53.0881 426.936C53.0881 428.111 53.3087 429.139 53.8234 430.094C54.2646 431.048 54.9999 431.489 55.9558 431.489H101.323C102.279 431.489 102.941 431.048 103.456 430.094C103.97 429.139 104.191 428.111 104.191 426.936C104.191 425.835 103.97 424.807 103.456 423.852C102.941 422.897 102.279 422.457 101.323 422.457H73.2352L101.323 407.477C102.426 406.889 103.162 406.081 103.529 405.2C103.97 404.319 104.191 403.291 104.191 402.263C104.191 401.161 103.97 400.133 103.456 399.179C102.941 398.224 102.279 397.784 101.323 397.784H55.8823C54.9264 397.784 54.1911 398.298 53.7499 399.179C53.3087 400.133 53.0881 401.161 53.0881 402.263C53.0881 403.438 53.3087 404.466 53.7499 405.421C54.1911 406.375 54.9264 406.816 55.8823 406.816H83.9705L57.9411 420.254C56.9117 420.841 56.0293 421.355 55.4411 421.796Z" fill="#778995"/>
    <path d="M100.956 361.949C99.7058 360.48 98.0881 359.305 96.0293 358.497C93.9705 357.689 91.544 357.249 88.6028 357.249H69.044C66.1028 357.249 63.6028 357.689 61.6175 358.497C59.5587 359.305 57.9411 360.48 56.6911 361.949C55.4411 363.417 54.4852 365.18 53.9705 367.162C53.3823 369.145 53.0881 371.274 53.0881 373.551C53.0881 375.901 53.3823 378.03 53.9705 380.013C54.5587 381.996 55.4411 383.685 56.6911 385.153C57.9411 386.622 59.5587 387.797 61.6175 388.605C63.6764 389.486 66.1764 389.926 69.044 389.926H88.5293C91.4705 389.926 93.9705 389.486 95.9558 388.678C98.0146 387.87 99.6323 386.695 100.882 385.227C102.132 383.758 103.088 382.069 103.676 380.086C104.265 378.104 104.559 375.974 104.559 373.624C104.559 371.348 104.265 369.218 103.676 367.236C103.088 365.18 102.206 363.417 100.956 361.949ZM94.7058 378.911C93.4558 380.16 91.397 380.821 88.6028 380.821H69.044C66.2499 380.821 64.1911 380.16 62.9411 378.911C61.6911 377.663 61.0293 375.901 61.0293 373.551C61.0293 371.274 61.6911 369.512 62.9411 368.19C64.1911 366.869 66.2499 366.208 69.044 366.208H88.5293C91.3234 366.208 93.3822 366.869 94.6322 368.19C95.8822 369.512 96.544 371.274 96.544 373.551C96.6175 375.901 95.9558 377.663 94.7058 378.911Z" fill="#778995"/>
    <path d="M54.3381 352.916C55.2205 353.357 56.1028 353.651 57.0587 353.651C58.1617 353.651 59.1175 353.43 59.9264 352.916C60.7352 352.402 61.1764 351.741 61.1764 350.787V340.506H101.176C102.132 340.506 102.794 340.066 103.309 339.111C103.823 338.156 104.044 337.128 104.044 335.953C104.044 334.852 103.823 333.824 103.309 332.869C102.794 331.915 102.132 331.474 101.176 331.474H61.2499V321.267C61.2499 320.312 60.8087 319.651 59.9999 319.137C59.1911 318.623 58.2352 318.403 57.1323 318.403C56.1764 318.403 55.2205 318.623 54.4117 319.064C53.5293 319.505 53.0881 320.239 53.0881 321.194V350.713C53.0881 351.741 53.5293 352.476 54.3381 352.916Z" fill="#778995"/>
    <path d="M172.868 497.872C171.618 496.403 170 495.228 167.941 494.421C165.882 493.613 163.456 493.172 160.515 493.172H141.471C138.529 493.172 136.029 493.613 134.044 494.421C131.985 495.228 130.368 496.403 129.118 497.872C127.868 499.341 126.912 501.103 126.397 503.086C125.809 505.068 125.515 507.198 125.515 509.474V521.811C125.515 522.986 125.809 524.014 126.323 524.675C126.912 525.409 127.5 525.776 128.309 525.776H173.823C174.559 525.776 175.221 525.409 175.809 524.675C176.397 523.941 176.618 522.986 176.618 521.811V509.474C176.618 507.198 176.323 505.068 175.735 503.086C175 501.103 174.118 499.414 172.868 497.872ZM168.529 516.818H133.382V509.548C133.382 507.198 134.044 505.436 135.368 504.114C136.691 502.865 138.676 502.205 141.471 502.205H160.515C163.235 502.205 165.294 502.865 166.618 504.114C167.941 505.362 168.603 507.198 168.603 509.548V516.818H168.529Z" fill="#778995"/>
    <path d="M173.603 476.356H128.162C127.206 476.356 126.471 476.87 126.029 477.752C125.588 478.706 125.368 479.734 125.368 480.836C125.368 482.011 125.588 483.039 126.029 483.993C126.471 484.948 127.206 485.388 128.162 485.388H173.603C174.559 485.388 175.221 484.948 175.735 483.993C176.25 483.039 176.471 482.011 176.471 480.836C176.471 479.734 176.25 478.706 175.735 477.752C175.221 476.797 174.559 476.356 173.603 476.356Z" fill="#778995"/>
    <path d="M173.235 442.504C171.985 441.035 170.441 439.86 168.529 439.053C166.618 438.245 164.412 437.804 161.912 437.804C158.897 437.804 156.397 438.392 154.485 439.493C152.573 440.595 150.956 441.99 149.632 443.679C148.382 445.368 147.279 447.13 146.471 449.039C145.662 450.949 144.853 452.784 144.118 454.4C143.382 456.015 142.573 457.411 141.618 458.586C140.735 459.687 139.559 460.275 138.088 460.275C136.397 460.275 135.073 459.614 134.118 458.218C133.162 456.823 132.721 454.914 132.721 452.417C132.721 450.949 132.868 449.774 133.162 448.746C133.456 447.718 133.75 446.91 134.044 446.175C134.338 445.441 134.706 444.854 134.926 444.34C135.221 443.826 135.368 443.312 135.368 442.724C135.368 442.137 135.221 441.549 134.853 441.109C134.485 440.668 134.044 440.227 133.529 439.934C133.015 439.64 132.5 439.42 131.985 439.273C131.471 439.126 130.956 439.053 130.588 439.053C129.412 439.053 128.456 439.567 127.794 440.521C127.059 441.549 126.471 442.724 126.103 444.119C125.662 445.515 125.368 446.983 125.294 448.452C125.147 449.994 125.073 451.242 125.073 452.27C125.073 454.253 125.294 456.309 125.809 458.292C126.323 460.348 127.059 462.11 128.162 463.726C129.265 465.341 130.662 466.663 132.426 467.691C134.191 468.719 136.397 469.233 138.971 469.233C141.691 469.233 143.971 468.646 145.735 467.544C147.5 466.443 148.971 465.048 150.147 463.359C151.323 461.743 152.353 459.907 153.088 457.998C153.823 456.089 154.706 454.253 155.588 452.638C156.471 451.022 157.426 449.627 158.529 448.452C159.632 447.35 161.029 446.763 162.794 446.763C164.853 446.763 166.397 447.571 167.426 449.113C168.382 450.655 168.897 452.491 168.897 454.62C168.897 456.383 168.603 457.851 168.088 459.026C167.5 460.201 166.912 461.229 166.25 462.11C165.588 462.992 164.926 463.726 164.412 464.387C163.823 465.048 163.603 465.782 163.603 466.443C163.603 467.03 163.75 467.544 164.118 467.985C164.412 468.426 164.853 468.866 165.368 469.233C165.882 469.6 166.397 469.894 166.985 470.114C167.573 470.335 168.088 470.408 168.529 470.408C169.559 470.408 170.588 469.968 171.618 469.16C172.647 468.352 173.603 467.251 174.412 465.782C175.221 464.313 175.956 462.624 176.471 460.642C176.985 458.659 177.206 456.529 177.206 454.253C177.206 451.83 176.912 449.627 176.25 447.571C175.441 445.661 174.485 443.973 173.235 442.504Z" fill="#778995"/>
    <path d="M126.691 434.206C127.574 434.647 128.456 434.94 129.412 434.94C130.515 434.94 131.471 434.72 132.279 434.206C133.088 433.692 133.529 433.031 133.529 432.077V421.796H173.529C174.485 421.796 175.147 421.355 175.662 420.401C176.176 419.446 176.397 418.418 176.397 417.243C176.397 416.142 176.176 415.114 175.662 414.159C175.147 413.204 174.485 412.764 173.529 412.764H133.529V402.557C133.529 401.602 133.088 400.941 132.279 400.427C131.471 399.913 130.515 399.693 129.412 399.693C128.456 399.693 127.5 399.913 126.691 400.354C125.809 400.794 125.368 401.529 125.368 402.483V432.003C125.441 433.031 125.809 433.766 126.691 434.206Z" fill="#778995"/>
    <path d="M160.882 385.888H128.162C127.206 385.888 126.471 386.328 126.029 387.283C125.588 388.237 125.368 389.265 125.368 390.367C125.368 391.542 125.588 392.57 126.029 393.525C126.471 394.479 127.206 394.92 128.162 394.92H160.882C163.824 394.92 166.324 394.479 168.309 393.598C170.368 392.717 171.985 391.542 173.235 390.073C174.485 388.531 175.441 386.769 176.029 384.786C176.618 382.73 176.912 380.6 176.912 378.177C176.912 375.827 176.618 373.698 176.029 371.642C175.441 369.586 174.559 367.823 173.235 366.281C171.985 364.739 170.368 363.564 168.309 362.756C166.25 361.875 163.824 361.435 160.882 361.435H128.162C127.206 361.435 126.471 361.949 126.029 362.83C125.588 363.784 125.368 364.812 125.368 365.914C125.368 367.089 125.588 368.117 126.029 369.072C126.471 370.026 127.206 370.467 128.162 370.467H160.882C163.603 370.467 165.662 371.128 166.985 372.523C168.309 373.845 168.971 375.754 168.971 378.177C168.971 380.6 168.309 382.51 166.985 383.831C165.662 385.153 163.676 385.888 160.882 385.888Z" fill="#778995"/>
    <path d="M128.235 353.283H173.676C174.632 353.283 175.294 352.769 175.809 351.888C176.324 350.934 176.544 349.906 176.544 348.804C176.544 347.629 176.324 346.601 175.809 345.646C175.294 344.692 174.632 344.251 173.676 344.251H155.441V338.377L174.706 328.463C175.441 328.096 175.956 327.656 176.324 327.068C176.691 326.554 176.912 325.967 176.912 325.306C176.912 324.645 176.765 323.984 176.471 323.323C176.176 322.662 175.809 322.075 175.368 321.487C174.926 320.973 174.412 320.533 173.824 320.165C173.235 319.798 172.647 319.651 172.132 319.651C171.985 319.651 171.838 319.651 171.618 319.725C171.397 319.798 171.176 319.872 171.029 320.019L154.044 329.124C153.235 326.554 151.691 324.351 149.485 322.589C147.206 320.826 144.118 319.945 140.074 319.945C137.279 319.945 134.926 320.386 133.088 321.267C131.25 322.148 129.706 323.323 128.603 324.792C127.5 326.334 126.691 328.096 126.176 330.079C125.662 332.061 125.441 334.191 125.441 336.467V350.273C125.441 351.154 125.735 351.888 126.25 352.402C126.838 352.99 127.426 353.283 128.235 353.283ZM133.382 336.541C133.382 334.264 133.971 332.429 135.074 331.107C136.176 329.785 138.088 329.051 140.882 329.051C143.603 329.051 145.588 329.712 146.618 331.107C147.721 332.429 148.235 334.264 148.235 336.541V344.251H133.382V336.541Z" fill="#778995"/>
    <path d="M128.235 313.483H173.676C174.412 313.483 175.074 313.116 175.662 312.382C176.25 311.647 176.471 310.693 176.471 309.518V294.758C176.471 292.775 176.25 291.013 175.735 289.25C175.221 287.561 174.412 286.093 173.162 284.844C171.985 283.596 170.441 282.568 168.603 281.907C166.765 281.173 164.412 280.806 161.691 280.806H160.221C158.529 280.806 156.985 280.953 155.735 281.32C154.485 281.687 153.382 282.127 152.5 282.788C151.618 283.449 150.882 284.184 150.294 285.065C149.706 285.946 149.191 286.901 148.824 288.002C148.015 286.166 146.691 284.698 144.853 283.67C143.015 282.641 140.588 282.127 137.721 282.127C135.221 282.127 133.235 282.495 131.618 283.302C130 284.11 128.75 285.138 127.868 286.387C126.985 287.635 126.324 289.177 125.956 290.866C125.588 292.555 125.441 294.317 125.441 296.153V309.591C125.441 310.619 125.662 311.5 126.176 312.382C126.618 313.116 127.353 313.483 128.235 313.483ZM152.353 296.594C152.353 294.464 152.868 292.775 153.971 291.6C155.074 290.425 156.985 289.838 159.706 289.838H160.809C163.456 289.838 165.368 290.425 166.618 291.6C167.794 292.775 168.456 294.464 168.456 296.594V304.451H152.353V296.594ZM133.382 296.74C133.382 294.978 133.897 293.583 134.926 292.628C135.956 291.6 137.426 291.16 139.191 291.16C140.956 291.16 142.426 291.6 143.529 292.555C144.632 293.436 145.221 294.905 145.221 296.814V304.598H133.309V296.74H133.382Z" fill="#778995"/>
</svg>
