<svg width="20" height="20" viewBox="0 0 20 20" fill="none" xmlns="http://www.w3.org/2000/svg">
    <path fill-rule="evenodd" clip-rule="evenodd" d="M9.99967 2.50065C5.85754 2.50065 2.49967 5.85852 2.49967 10.0007C2.49967 14.1428 5.85754 17.5007 9.99967 17.5007C14.1418 17.5007 17.4997 14.1428 17.4997 10.0007C17.4997 5.85852 14.1418 2.50065 9.99967 2.50065ZM0.833008 10.0007C0.833008 4.93804 4.93706 0.833984 9.99967 0.833984C15.0623 0.833984 19.1663 4.93804 19.1663 10.0007C19.1663 15.0633 15.0623 19.1673 9.99967 19.1673C4.93706 19.1673 0.833008 15.0633 0.833008 10.0007Z" fill="#FF4E4E"/>
    <path fill-rule="evenodd" clip-rule="evenodd" d="M9.16699 13.3333C9.16699 12.8731 9.54009 12.5 10.0003 12.5H10.0087C10.4689 12.5 10.842 12.8731 10.842 13.3333C10.842 13.7936 10.4689 14.1667 10.0087 14.1667H10.0003C9.54009 14.1667 9.16699 13.7936 9.16699 13.3333Z" fill="#FF4E4E"/>
    <path fill-rule="evenodd" clip-rule="evenodd" d="M10.0003 5.83398C10.4606 5.83398 10.8337 6.20708 10.8337 6.66732V10.0007C10.8337 10.4609 10.4606 10.834 10.0003 10.834C9.54009 10.834 9.16699 10.4609 9.16699 10.0007V6.66732C9.16699 6.20708 9.54009 5.83398 10.0003 5.83398Z" fill="#FF4E4E"/>
</svg>
