<svg width="24" height="24" viewBox="0 0 24 24" fill="none" xmlns="http://www.w3.org/2000/svg">
<path fill-rule="evenodd" clip-rule="evenodd" d="M4.10037 13.3452C8.50366 17.7485 15.6428 17.7485 20.0461 13.3452C20.7486 12.6427 20.7486 11.5038 20.0461 10.8013C15.6428 6.39802 8.50366 6.39801 4.10036 10.8013C3.39789 11.5038 3.39789 12.6427 4.10037 13.3452ZM2.68615 9.38709C1.20263 10.8706 1.20263 13.2759 2.68615 14.7594C7.87049 19.9437 16.276 19.9437 21.4603 14.7594C22.9438 13.2759 22.9438 10.8706 21.4603 9.3871C16.276 4.20276 7.87049 4.20275 2.68615 9.38709Z" fill="#778995"/>
<path fill-rule="evenodd" clip-rule="evenodd" d="M12 14C13.1046 14 14 13.1046 14 12C14 10.8954 13.1046 10 12 10C10.8954 10 10 10.8954 10 12C10 13.1046 10.8954 14 12 14ZM12 16C14.2091 16 16 14.2091 16 12C16 9.79086 14.2091 8 12 8C9.79086 8 8 9.79086 8 12C8 14.2091 9.79086 16 12 16Z" fill="#778995"/>
</svg>
