<svg width="16" height="16" viewBox="0 0 16 16" fill="none" xmlns="http://www.w3.org/2000/svg">
    <path d="M10.1339 8.00083C10.1339 9.17903 9.17879 10.1341 8.00059 10.1341C6.82239 10.1341 5.86727 9.17903 5.86727 8.00083C5.86727 6.82263 6.82239 5.86751 8.00059 5.86751C9.17879 5.86751 10.1339 6.82263 10.1339 8.00083Z" fill="#778995"/>
    <path fill-rule="evenodd" clip-rule="evenodd" d="M12.5196 4.06932C13.8022 4.89764 14.9466 6.0563 15.8286 7.42029C15.9399 7.59286 15.9994 7.79376 16 7.99913C16.0006 8.20451 15.9422 8.40574 15.8319 8.57895C14.9532 9.95427 13.8112 11.1173 12.5292 11.9429C11.1163 12.8526 9.54626 13.3336 7.98928 13.3336C6.39729 13.3336 4.8673 12.8669 3.44564 11.9459C2.18298 11.1289 1.04999 9.96861 0.169664 8.59095C0.0553699 8.41362 -0.003626 8.20632 0.000172543 7.99538C0.00397108 7.78444 0.0703926 7.57939 0.190997 7.40629C1.25932 5.87464 2.48931 4.68498 3.84697 3.87065C5.1783 3.07199 6.57195 2.66699 7.98928 2.66699C9.53393 2.66699 11.1006 3.15199 12.5196 4.06932ZM6.2228 10.661C6.74903 11.0126 7.36771 11.2003 8.00061 11.2003C8.849 11.1993 9.66236 10.8618 10.2623 10.2619C10.8622 9.66204 11.1996 8.84868 11.2006 8.00029C11.2006 7.36739 11.0129 6.74871 10.6613 6.22248C10.3097 5.69624 9.80991 5.28609 9.22519 5.04389C8.64047 4.8017 7.99706 4.73833 7.37632 4.8618C6.75559 4.98527 6.18541 5.29004 5.73788 5.73756C5.29036 6.18509 4.98559 6.75527 4.86212 7.376C4.73865 7.99674 4.80202 8.64015 5.04422 9.22487C5.28641 9.80959 5.69656 10.3094 6.2228 10.661Z" fill="#778995"/>
</svg>
