<svg width="104" height="86" viewBox="0 0 104 86" fill="none" xmlns="http://www.w3.org/2000/svg">
    <g opacity="0.3" clip-path="url(#clip0_260_52794)">
        <path d="M82.5 32.0833H80.8958C81.9418 29.9418 82.4902 27.5916 82.5 25.2083C82.5139 22.0152 81.5718 18.891 79.795 16.2379C78.0182 13.5848 75.488 11.5242 72.5301 10.3213C69.5722 9.11846 66.322 8.82837 63.1978 9.48842C60.0737 10.1485 57.2186 11.7284 55 14.0249C52.7814 11.7284 49.9263 10.1485 46.8022 9.48842C43.678 8.82837 40.4278 9.11846 37.4699 10.3213C34.512 11.5242 31.9818 13.5848 30.205 16.2379C28.4282 18.891 27.4861 22.0152 27.5 25.2083C27.5098 27.5916 28.0582 29.9418 29.1042 32.0833H27.5C23.8533 32.0833 20.3559 33.5319 17.7773 36.1106C15.1987 38.6892 13.75 42.1866 13.75 45.8333V54.9999C13.75 56.2155 14.2329 57.3813 15.0924 58.2408C15.952 59.1004 17.1178 59.5833 18.3333 59.5833H22.9167V87.0833C22.9167 90.73 24.3653 94.2274 26.9439 96.806C29.5226 99.3846 33.0199 100.833 36.6667 100.833H73.3333C76.9801 100.833 80.4774 99.3846 83.0561 96.806C85.6347 94.2274 87.0833 90.73 87.0833 87.0833V59.5833H91.6667C92.8822 59.5833 94.048 59.1004 94.9076 58.2408C95.7671 57.3813 96.25 56.2155 96.25 54.9999V45.8333C96.25 42.1866 94.8013 38.6892 92.2227 36.1106C89.6441 33.5319 86.1467 32.0833 82.5 32.0833ZM50.4167 91.6666H36.6667C35.4511 91.6666 34.2853 91.1837 33.4258 90.3242C32.5662 89.4646 32.0833 88.2989 32.0833 87.0833V59.5833H50.4167V91.6666ZM50.4167 50.4166H22.9167V45.8333C22.9167 44.6177 23.3996 43.4519 24.2591 42.5924C25.1186 41.7328 26.2844 41.2499 27.5 41.2499H50.4167V50.4166ZM50.4167 32.0833H43.5417C42.1819 32.0833 40.8527 31.6801 39.7221 30.9246C38.5915 30.1692 37.7103 29.0955 37.19 27.8392C36.6696 26.583 36.5335 25.2007 36.7988 23.867C37.064 22.5334 37.7188 21.3084 38.6803 20.3469C39.6418 19.3854 40.8668 18.7307 42.2004 18.4654C43.534 18.2001 44.9164 18.3363 46.1726 18.8566C47.4289 19.377 48.5026 20.2581 49.258 21.3887C50.0135 22.5193 50.4167 23.8485 50.4167 25.2083V32.0833ZM59.5833 25.2083C59.5833 23.8485 59.9865 22.5193 60.742 21.3887C61.4974 20.2581 62.5711 19.377 63.8274 18.8566C65.0836 18.3363 66.466 18.2001 67.7996 18.4654C69.1332 18.7307 70.3582 19.3854 71.3197 20.3469C72.2812 21.3084 72.936 22.5334 73.2012 23.867C73.4665 25.2007 73.3304 26.583 72.81 27.8392C72.2897 29.0955 71.4085 30.1692 70.2779 30.9246C69.1473 31.6801 67.8181 32.0833 66.4583 32.0833H59.5833V25.2083ZM77.9167 87.0833C77.9167 88.2989 77.4338 89.4646 76.5742 90.3242C75.7147 91.1837 74.5489 91.6666 73.3333 91.6666H59.5833V59.5833H77.9167V87.0833ZM87.0833 50.4166H59.5833V41.2499H82.5C83.7156 41.2499 84.8814 41.7328 85.7409 42.5924C86.6005 43.4519 87.0833 44.6177 87.0833 45.8333V50.4166Z" fill="white"/>
    </g>
    <defs>
        <clipPath id="clip0_260_52794">
            <rect width="104" height="86" fill="white"/>
        </clipPath>
    </defs>
</svg>
