<svg width="20" height="20" viewBox="0 0 20 20" fill="none" xmlns="http://www.w3.org/2000/svg">
    <path d="M15 5.83334H14.7083C14.8985 5.44398 14.9982 5.01666 15 4.58334C15.0025 4.00278 14.8312 3.43475 14.5082 2.95236C14.1851 2.46998 13.7251 2.09533 13.1873 1.87662C12.6495 1.65792 12.0585 1.60517 11.4905 1.72518C10.9225 1.84519 10.4034 2.13246 10 2.55001C9.59662 2.13246 9.07751 1.84519 8.50948 1.72518C7.94146 1.60517 7.35051 1.65792 6.81271 1.87662C6.27491 2.09533 5.81488 2.46998 5.49182 2.95236C5.16877 3.43475 4.99748 4.00278 5 4.58334C5.00178 5.01666 5.10149 5.44398 5.29167 5.83334H5C4.33696 5.83334 3.70107 6.09673 3.23223 6.56557C2.76339 7.03441 2.5 7.6703 2.5 8.33334V10C2.5 10.221 2.5878 10.433 2.74408 10.5893C2.90036 10.7455 3.11232 10.8333 3.33333 10.8333H4.16667V15.8333C4.16667 16.4964 4.43006 17.1323 4.8989 17.6011C5.36774 18.0699 6.00363 18.3333 6.66667 18.3333H13.3333C13.9964 18.3333 14.6323 18.0699 15.1011 17.6011C15.5699 17.1323 15.8333 16.4964 15.8333 15.8333V10.8333H16.6667C16.8877 10.8333 17.0996 10.7455 17.2559 10.5893C17.4122 10.433 17.5 10.221 17.5 10V8.33334C17.5 7.6703 17.2366 7.03441 16.7678 6.56557C16.2989 6.09673 15.663 5.83334 15 5.83334ZM9.16667 16.6667H6.66667C6.44565 16.6667 6.23369 16.5789 6.07741 16.4226C5.92113 16.2663 5.83333 16.0544 5.83333 15.8333V10.8333H9.16667V16.6667ZM9.16667 9.16667H4.16667V8.33334C4.16667 8.11233 4.25446 7.90036 4.41074 7.74408C4.56702 7.5878 4.77899 7.50001 5 7.50001H9.16667V9.16667ZM9.16667 5.83334H7.91667C7.66944 5.83334 7.42777 5.76003 7.2222 5.62268C7.01664 5.48532 6.85643 5.2901 6.76182 5.06169C6.66721 4.83329 6.64245 4.58195 6.69068 4.33948C6.73892 4.097 6.85797 3.87427 7.03278 3.69946C7.2076 3.52464 7.43033 3.40559 7.6728 3.35736C7.91528 3.30913 8.16661 3.33388 8.39502 3.42849C8.62343 3.5231 8.81865 3.68331 8.956 3.88888C9.09336 4.09444 9.16667 4.33611 9.16667 4.58334V5.83334ZM10.8333 4.58334C10.8333 4.33611 10.9066 4.09444 11.044 3.88888C11.1813 3.68331 11.3766 3.5231 11.605 3.42849C11.8334 3.33388 12.0847 3.30913 12.3272 3.35736C12.5697 3.40559 12.7924 3.52464 12.9672 3.69946C13.142 3.87427 13.2611 4.097 13.3093 4.33948C13.3575 4.58195 13.3328 4.83329 13.2382 5.06169C13.1436 5.2901 12.9834 5.48532 12.7778 5.62268C12.5722 5.76003 12.3306 5.83334 12.0833 5.83334H10.8333V4.58334ZM14.1667 15.8333C14.1667 16.0544 14.0789 16.2663 13.9226 16.4226C13.7663 16.5789 13.5543 16.6667 13.3333 16.6667H10.8333V10.8333H14.1667V15.8333ZM15.8333 9.16667H10.8333V7.50001H15C15.221 7.50001 15.433 7.5878 15.5893 7.74408C15.7455 7.90036 15.8333 8.11233 15.8333 8.33334V9.16667Z" fill="#19ACFE"/>
</svg>
