<svg width="28" height="28" viewBox="0 0 28 28" fill="none" xmlns="http://www.w3.org/2000/svg">
    <path d="M21 8.16663H20.5917C20.8579 7.62152 20.9975 7.02328 21 6.41663C21.0035 5.60384 20.7637 4.8086 20.3114 4.13326C19.8592 3.45793 19.2151 2.93341 18.4622 2.62722C17.7093 2.32104 16.882 2.2472 16.0867 2.41521C15.2915 2.58322 14.5647 2.9854 14 3.56996C13.4353 2.9854 12.7085 2.58322 11.9133 2.41521C11.118 2.2472 10.2907 2.32104 9.5378 2.62722C8.78488 2.93341 8.14083 3.45793 7.68855 4.13326C7.23628 4.8086 6.99647 5.60384 7 6.41663C7.00249 7.02328 7.14208 7.62152 7.40833 8.16663H7C6.07174 8.16663 5.1815 8.53538 4.52513 9.19176C3.86875 9.84813 3.5 10.7384 3.5 11.6666V14C3.5 14.3094 3.62292 14.6061 3.84171 14.8249C4.0605 15.0437 4.35725 15.1666 4.66667 15.1666H5.83333V22.1666C5.83333 23.0949 6.20208 23.9851 6.85846 24.6415C7.51484 25.2979 8.40508 25.6666 9.33333 25.6666H18.6667C19.5949 25.6666 20.4852 25.2979 21.1415 24.6415C21.7979 23.9851 22.1667 23.0949 22.1667 22.1666V15.1666H23.3333C23.6428 15.1666 23.9395 15.0437 24.1583 14.8249C24.3771 14.6061 24.5 14.3094 24.5 14V11.6666C24.5 10.7384 24.1313 9.84813 23.4749 9.19176C22.8185 8.53538 21.9283 8.16663 21 8.16663ZM12.8333 23.3333H9.33333C9.02391 23.3333 8.72717 23.2104 8.50838 22.9916C8.28958 22.7728 8.16667 22.476 8.16667 22.1666V15.1666H12.8333V23.3333ZM12.8333 12.8333H5.83333V11.6666C5.83333 11.3572 5.95625 11.0605 6.17504 10.8417C6.39383 10.6229 6.69058 10.5 7 10.5H12.8333V12.8333ZM12.8333 8.16663H11.0833C10.7372 8.16663 10.3989 8.06399 10.1111 7.8717C9.8233 7.67941 9.599 7.4061 9.46654 7.08633C9.33409 6.76655 9.29943 6.41469 9.36696 6.07522C9.43448 5.73575 9.60115 5.42393 9.8459 5.17919C10.0906 4.93445 10.4025 4.76778 10.7419 4.70025C11.0814 4.63273 11.4333 4.66739 11.753 4.79984C12.0728 4.93229 12.3461 5.15659 12.5384 5.44438C12.7307 5.73217 12.8333 6.07051 12.8333 6.41663V8.16663ZM15.1667 6.41663C15.1667 6.07051 15.2693 5.73217 15.4616 5.44438C15.6539 5.15659 15.9272 4.93229 16.247 4.79984C16.5667 4.66739 16.9186 4.63273 17.2581 4.70025C17.5975 4.76778 17.9094 4.93445 18.1541 5.17919C18.3988 5.42393 18.5655 5.73575 18.633 6.07522C18.7006 6.41469 18.6659 6.76655 18.5335 7.08633C18.401 7.4061 18.1767 7.67941 17.8889 7.8717C17.6011 8.06399 17.2628 8.16663 16.9167 8.16663H15.1667V6.41663ZM19.8333 22.1666C19.8333 22.476 19.7104 22.7728 19.4916 22.9916C19.2728 23.2104 18.9761 23.3333 18.6667 23.3333H15.1667V15.1666H19.8333V22.1666ZM22.1667 12.8333H15.1667V10.5H21C21.3094 10.5 21.6062 10.6229 21.825 10.8417C22.0438 11.0605 22.1667 11.3572 22.1667 11.6666V12.8333Z" fill="#6DDB6D"/>
</svg>
