<svg width="20" height="20" viewBox="0 0 20 20" fill="none" xmlns="http://www.w3.org/2000/svg">
    <circle cx="10" cy="10" r="10" fill="#32CA32"/>
    <path d="M13.5715 7.02382H13.3632C13.499 6.7457 13.5702 6.44048 13.5715 6.13096C13.5733 5.71628 13.451 5.31054 13.2202 4.96598C12.9895 4.62142 12.6609 4.35381 12.2767 4.19759C11.8926 4.04138 11.4705 4.0037 11.0647 4.08942C10.659 4.17514 10.2882 4.38033 10.0001 4.67858C9.71196 4.38033 9.34117 4.17514 8.93543 4.08942C8.5297 4.0037 8.10759 4.04138 7.72345 4.19759C7.33931 4.35381 7.01072 4.62142 6.77996 4.96598C6.54921 5.31054 6.42686 5.71628 6.42866 6.13096C6.42993 6.44048 6.50115 6.7457 6.63699 7.02382H6.42866C5.95506 7.02382 5.50085 7.21196 5.16597 7.54684C4.83108 7.88173 4.64294 8.33593 4.64294 8.80953V10C4.64294 10.1579 4.70566 10.3093 4.81729 10.4209C4.92891 10.5325 5.08032 10.5952 5.23818 10.5952H5.83342V14.1667C5.83342 14.6403 6.02156 15.0945 6.35644 15.4294C6.69133 15.7643 7.14553 15.9524 7.61913 15.9524H12.381C12.8546 15.9524 13.3088 15.7643 13.6437 15.4294C13.9786 15.0945 14.1668 14.6403 14.1668 14.1667V10.5952H14.762C14.9199 10.5952 15.0713 10.5325 15.1829 10.4209C15.2945 10.3093 15.3572 10.1579 15.3572 10V8.80953C15.3572 8.33593 15.1691 7.88173 14.8342 7.54684C14.4993 7.21196 14.0451 7.02382 13.5715 7.02382ZM9.40485 14.7619H7.61913C7.46127 14.7619 7.30987 14.6992 7.19824 14.5876C7.08661 14.4759 7.0239 14.3245 7.0239 14.1667V10.5952H9.40485V14.7619ZM9.40485 9.40477H5.83342V8.80953C5.83342 8.65167 5.89613 8.50027 6.00776 8.38864C6.11939 8.27701 6.27079 8.2143 6.42866 8.2143H9.40485V9.40477ZM9.40485 7.02382H8.51199C8.3354 7.02382 8.16278 6.97146 8.01595 6.87335C7.86912 6.77524 7.75468 6.63579 7.6871 6.47265C7.61952 6.3095 7.60184 6.12997 7.63629 5.95678C7.67074 5.78358 7.75578 5.62449 7.88065 5.49962C8.00551 5.37475 8.16461 5.28971 8.3378 5.25526C8.511 5.22081 8.69053 5.23849 8.85367 5.30607C9.01682 5.37365 9.15627 5.48809 9.25438 5.63492C9.35248 5.78175 9.40485 5.95437 9.40485 6.13096V7.02382ZM10.5953 6.13096C10.5953 5.95437 10.6477 5.78175 10.7458 5.63492C10.8439 5.48809 10.9834 5.37365 11.1465 5.30607C11.3096 5.23849 11.4892 5.22081 11.6624 5.25526C11.8356 5.28971 11.9947 5.37475 12.1195 5.49962C12.2444 5.62449 12.3294 5.78358 12.3639 5.95678C12.3983 6.12997 12.3807 6.3095 12.3131 6.47265C12.2455 6.63579 12.1311 6.77524 11.9842 6.87335C11.8374 6.97146 11.6648 7.02382 11.4882 7.02382H10.5953V6.13096ZM12.9763 14.1667C12.9763 14.3245 12.9136 14.4759 12.8019 14.5876C12.6903 14.6992 12.5389 14.7619 12.381 14.7619H10.5953V10.5952H12.9763V14.1667ZM14.1668 9.40477H10.5953V8.2143H13.5715C13.7294 8.2143 13.8808 8.27701 13.9924 8.38864C14.104 8.50027 14.1668 8.65167 14.1668 8.80953V9.40477Z" fill="white"/>
</svg>
