<svg width="20" height="20" viewBox="0 0 20 20" fill="none" xmlns="http://www.w3.org/2000/svg">
<path fill-rule="evenodd" clip-rule="evenodd" d="M3.60252 12.7692C4.41517 11.9565 5.51737 11.5 6.66665 11.5H13.3333C14.4826 11.5 15.5848 11.9565 16.3974 12.7692C17.2101 13.5819 17.6666 14.6841 17.6666 15.8333V17.5C17.6666 18.0523 17.2189 18.5 16.6666 18.5C16.1144 18.5 15.6666 18.0523 15.6666 17.5V15.8333C15.6666 15.2145 15.4208 14.621 14.9832 14.1834C14.5456 13.7458 13.9522 13.5 13.3333 13.5H6.66665C6.04781 13.5 5.45432 13.7458 5.01673 14.1834C4.57915 14.621 4.33331 15.2145 4.33331 15.8333V17.5C4.33331 18.0523 3.8856 18.5 3.33331 18.5C2.78103 18.5 2.33331 18.0523 2.33331 17.5V15.8333C2.33331 14.6841 2.78986 13.5819 3.60252 12.7692Z" fill="#56C2FE"/>
<path fill-rule="evenodd" clip-rule="evenodd" d="M10 3.5C8.71136 3.5 7.66669 4.54467 7.66669 5.83333C7.66669 7.122 8.71136 8.16667 10 8.16667C11.2887 8.16667 12.3334 7.122 12.3334 5.83333C12.3334 4.54467 11.2887 3.5 10 3.5ZM5.66669 5.83333C5.66669 3.4401 7.60679 1.5 10 1.5C12.3933 1.5 14.3334 3.4401 14.3334 5.83333C14.3334 8.22657 12.3933 10.1667 10 10.1667C7.60679 10.1667 5.66669 8.22657 5.66669 5.83333Z" fill="#56C2FE"/>
</svg>
