<svg width="18" height="16" viewBox="0 0 18 16" fill="none" xmlns="http://www.w3.org/2000/svg">
    <path d="M16.2532 1.7777C15.3054 0.839656 14.0535 0.271271 12.7235 0.175103C11.3934 0.0789352 10.0728 0.461317 8.99989 1.25325C7.86892 0.412041 6.46122 0.0305959 5.06027 0.18573C3.65931 0.340864 2.36917 1.02106 1.44965 2.08933C0.53012 3.1576 0.0495121 4.5346 0.104604 5.94304C0.159697 7.35148 0.746397 8.68674 1.74656 9.67992L7.07989 15.0577C7.57989 15.5571 8.25767 15.8376 8.96434 15.8376C9.67101 15.8376 10.3488 15.5571 10.8488 15.0577L16.1821 9.67992C16.7074 9.16672 17.1261 8.55477 17.4141 7.87924C17.7021 7.20371 17.8537 6.47792 17.8604 5.74359C17.867 5.00926 17.7284 4.28086 17.4526 3.60026C17.1768 2.91965 16.7692 2.30027 16.2532 1.7777ZM14.9999 8.40881L9.66656 13.7421C9.58393 13.8255 9.48561 13.8916 9.37729 13.9367C9.26898 13.9818 9.15279 14.0051 9.03545 14.0051C8.9181 14.0051 8.80192 13.9818 8.6936 13.9367C8.58528 13.8916 8.48697 13.8255 8.40434 13.7421L3.071 8.40881C2.3739 7.69623 1.98355 6.739 1.98355 5.74214C1.98355 4.74528 2.3739 3.78806 3.071 3.07547C3.78136 2.37413 4.73942 1.98087 5.73767 1.98087C6.73592 1.98087 7.69398 2.37413 8.40434 3.07547C8.48697 3.15879 8.58528 3.22492 8.6936 3.27004C8.80192 3.31517 8.9181 3.33841 9.03545 3.33841C9.15279 3.33841 9.26898 3.31517 9.37729 3.27004C9.48561 3.22492 9.58393 3.15879 9.66656 3.07547C10.3961 2.49493 11.3139 2.20323 12.2447 2.256C13.1756 2.30877 14.0545 2.70233 14.7138 3.36161C15.373 4.02089 15.7666 4.89977 15.8194 5.83064C15.8721 6.76151 15.5804 7.67924 14.9999 8.40881Z" fill="#DDE7ED"/>
</svg>
