<svg width="18" height="16" viewBox="0 0 18 16" fill="none" xmlns="http://www.w3.org/2000/svg">
    <path d="M16.2532 1.77782C15.3054 0.839778 14.0535 0.271393 12.7235 0.175225C11.3934 0.0790572 10.0728 0.46144 8.99989 1.25337C7.86892 0.412163 6.46122 0.0307179 5.06027 0.185852C3.65931 0.340987 2.36917 1.02118 1.44965 2.08945C0.53012 3.15772 0.0495121 4.53473 0.104604 5.94316C0.159697 7.3516 0.746397 8.68686 1.74656 9.68004L7.07989 15.0578C7.57989 15.5572 8.25767 15.8377 8.96434 15.8377C9.67101 15.8377 10.3488 15.5572 10.8488 15.0578L16.1821 9.68004C16.7074 9.16684 17.1261 8.55489 17.4141 7.87936C17.7021 7.20383 17.8537 6.47804 17.8604 5.74371C17.867 5.00938 17.7284 4.28098 17.4526 3.60038C17.1768 2.91978 16.7692 2.30039 16.2532 1.77782ZM14.9999 8.40893L9.66656 13.7423C9.58393 13.8256 9.48561 13.8917 9.37729 13.9368C9.26898 13.982 9.15279 14.0052 9.03545 14.0052C8.9181 14.0052 8.80192 13.982 8.6936 13.9368C8.58528 13.8917 8.48697 13.8256 8.40434 13.7423L3.071 8.40893C2.3739 7.69635 1.98355 6.73912 1.98355 5.74226C1.98355 4.74541 2.3739 3.78818 3.071 3.0756C3.78136 2.37425 4.73942 1.98099 5.73767 1.98099C6.73592 1.98099 7.69398 2.37425 8.40434 3.0756C8.48697 3.15891 8.58528 3.22504 8.6936 3.27017C8.80192 3.31529 8.9181 3.33853 9.03545 3.33853C9.15279 3.33853 9.26898 3.31529 9.37729 3.27017C9.48561 3.22504 9.58393 3.15891 9.66656 3.0756C10.3961 2.49505 11.3139 2.20335 12.2447 2.25612C13.1756 2.3089 14.0545 2.70245 14.7138 3.36173C15.373 4.02101 15.7666 4.89989 15.8194 5.83076C15.8721 6.76163 15.5804 7.67936 14.9999 8.40893Z" fill="white"/>
</svg>
