<svg width="18" height="14" viewBox="0 0 18 14" fill="none" xmlns="http://www.w3.org/2000/svg">
    <path d="M9.67497 0.620178C10.3584 0.620178 11.0139 0.620178 11.6961 0.620178C11.6961 2.25259 11.6961 3.88437 11.6961 5.57205C11.8009 5.5187 11.8676 5.49202 11.9267 5.45327C12.708 4.93941 13.5686 4.83524 14.4712 4.97562C14.8079 5.0277 15.1629 5.06518 15.4666 5.20301C15.8229 5.36435 16.1564 5.6 16.4593 5.85153C17.1517 6.42637 17.5125 7.21145 17.6452 8.07339C17.804 9.10556 17.7386 10.1295 17.2336 11.0854C16.937 11.6463 16.5013 12.0795 16.0052 12.4568C15.3878 12.9262 14.6764 13.139 13.9091 13.2266C12.5574 13.3816 11.2788 13.1434 10.0453 12.5997C9.7893 12.4866 9.66227 12.338 9.66354 12.0083C9.68196 8.32366 9.67497 4.63897 9.67497 0.954919C9.67497 0.852019 9.67497 0.749755 9.67497 0.620178ZM11.7076 9.26499C11.7076 9.77822 11.712 10.2921 11.7044 10.8053C11.7025 10.9317 11.7457 10.9901 11.8555 11.0562C12.4012 11.3852 13.004 11.4487 13.6067 11.3719C14.3099 11.2823 14.8739 10.9343 15.2284 10.2851C15.5142 9.76171 15.5301 9.1983 15.4704 8.63934C15.4151 8.12167 15.1941 7.64909 14.7914 7.29276C14.0793 6.66266 12.8801 6.61629 12.1026 7.21463C11.86 7.40137 11.6466 7.60145 11.6955 7.98574C11.7488 8.40686 11.7076 8.83879 11.7076 9.26499Z" fill="#002688"/>
    <path d="M0.266663 0.62146C0.934873 0.62146 1.59102 0.62146 2.28336 0.62146C2.28336 2.33454 2.28336 4.0508 2.28336 5.79247C2.58952 5.60382 2.84042 5.38977 3.13069 5.28496C3.53594 5.13887 3.96596 5.03406 4.39407 4.98642C4.99051 4.91973 5.58377 4.99214 6.15289 5.21064C6.84523 5.47615 7.32988 5.94428 7.62524 6.62583C7.88249 7.22036 7.95998 7.83648 7.95553 8.47611C7.94664 9.91607 7.95299 11.3554 7.95299 12.7953C7.95299 12.8805 7.95299 12.9656 7.95299 13.0647C7.25493 13.0647 6.57719 13.0647 5.87277 13.0647C5.87277 12.9726 5.87277 12.8881 5.87277 12.8036C5.87277 11.356 5.8823 9.90844 5.8696 8.46087C5.86134 7.51 5.22362 6.88752 4.26195 6.85386C3.57215 6.82972 2.9935 7.06029 2.46375 7.46998C2.33862 7.56653 2.28146 7.66753 2.28209 7.83775C2.29099 9.48287 2.28717 11.1286 2.28717 12.7737C2.28717 12.8665 2.28717 12.9599 2.28717 13.0653C1.60308 13.0653 0.941225 13.0653 0.266663 13.0653C0.266663 8.91375 0.266663 4.77364 0.266663 0.62146Z" fill="#002688"/>
</svg>
