<svg width="74" height="124" viewBox="0 0 74 124" fill="none" xmlns="http://www.w3.org/2000/svg">
    <path fill-rule="evenodd" clip-rule="evenodd" d="M28.2119 58.9307C12.0305 54.9837 -4.09229e-06 40.3794 -4.85223e-06 22.994C-5.74479e-06 2.57443 16.5788 -14 36.9958 -14C57.4212 -14 74 2.57443 74 22.994C74 40.3794 61.9697 54.9837 45.7883 58.9307L45.7883 89.864L58.356 89.864C61.1175 89.864 63.356 92.1026 63.356 94.864L63.356 102.435C63.356 105.197 61.1175 107.435 58.356 107.435L45.7883 107.435L45.7883 116.429L58.356 116.429C61.1175 116.429 63.356 118.667 63.356 121.429L63.356 129C63.356 131.761 61.1175 134 58.356 134L33.2119 134C30.4505 134 28.2119 131.761 28.2119 129L28.2119 58.9307ZM36.9958 3.57135C26.2758 3.57135 17.5764 12.2771 17.5764 22.994C17.5764 33.7109 26.2758 42.4076 36.9958 42.4076C47.7242 42.4076 56.4236 33.7109 56.4236 22.994C56.4236 12.2771 47.7242 3.57135 36.9958 3.57135Z" fill="#89D4FE"/>
</svg>
