<svg width="21" height="20" viewBox="0 0 21 20" fill="none" xmlns="http://www.w3.org/2000/svg">
    <path d="M11.5 5.5C12.0523 5.5 12.5 5.94772 12.5 6.5V15C12.5 15.5523 12.0523 16 11.5 16C10.9477 16 10.5 15.5523 10.5 15V6.5C10.5 5.94772 10.9477 5.5 11.5 5.5Z" fill="#6DDB6D"/>
    <path fill-rule="evenodd" clip-rule="evenodd" d="M11 1.07104C11 0.51876 10.5523 0.0710449 10 0.0710449C9.44771 0.0710449 9 0.51876 9 1.07104V2H5.00001C4.96257 2 4.92558 2.00207 4.88913 2.0061H1.45802C1.14267 2.0061 0.845803 2.15485 0.657018 2.40744C0.468232 2.66003 0.40965 2.98687 0.498955 3.2893L2.92786 11.5149L2.00773 18.876C1.97215 19.1606 2.0605 19.4468 2.25033 19.6618C2.44015 19.8768 2.71317 20 3.00001 20H17C17.2868 20 17.5599 19.8768 17.7497 19.6618C17.9395 19.4468 18.0279 19.1606 17.9923 18.876L17.1034 11.7649C18.716 11.7144 20.0077 10.3913 20.0077 8.76642V5.0061C20.0077 3.34925 18.6645 2.0061 17.0077 2.0061H15.1387C15.1303 2.0061 15.1219 2.00621 15.1136 2.00641C15.0763 2.00217 15.0384 2 15 2H11V1.07104ZM16.1336 4.0061L16.8536 9.76642H17.0077C17.56 9.76642 18.0077 9.31871 18.0077 8.76642V5.0061C18.0077 4.45382 17.56 4.0061 17.0077 4.0061H16.1336ZM14.9476 10.6432L14.1172 4H5.88279L4.13279 18H15.8672L15.0086 11.1308C14.9644 11.0179 14.9401 10.895 14.9401 10.7664C14.9401 10.7247 14.9427 10.6836 14.9476 10.6432ZM2.79599 4.0061H3.86646L3.54808 6.55312L2.79599 4.0061Z" fill="#6DDB6D"/>
</svg>
