<svg width="230" height="251" viewBox="0 0 230 251" fill="none" xmlns="http://www.w3.org/2000/svg">
<path d="M115 159.472C110.636 159.42 106.362 160.715 102.751 163.182C99.1412 165.649 96.3688 169.169 94.8074 173.27C93.246 177.37 92.9706 181.853 94.0181 186.115C95.0657 190.377 97.386 194.215 100.667 197.11V217.155C100.667 220.98 102.177 224.648 104.865 227.352C107.553 230.057 111.199 231.576 115 231.576C118.801 231.576 122.447 230.057 125.135 227.352C127.823 224.648 129.333 220.98 129.333 217.155V197.11C132.614 194.215 134.934 190.377 135.982 186.115C137.029 181.853 136.754 177.37 135.193 173.27C133.631 169.169 130.859 165.649 127.249 163.182C123.639 160.715 119.364 159.42 115 159.472ZM186.667 101.788V72.9462C186.667 53.8229 179.116 35.4829 165.676 21.9607C152.236 8.43849 134.007 0.841797 115 0.841797C95.9928 0.841797 77.7641 8.43849 64.324 21.9607C50.8839 35.4829 43.3333 53.8229 43.3333 72.9462V101.788C31.929 101.788 20.9918 106.346 12.9278 114.459C4.86369 122.573 0.33334 133.577 0.33334 145.051V245.997C0.33334 257.471 4.86369 268.475 12.9278 276.588C20.9918 284.702 31.929 289.26 43.3333 289.26H186.667C198.071 289.26 209.008 284.702 217.072 276.588C225.136 268.475 229.667 257.471 229.667 245.997V145.051C229.667 133.577 225.136 122.573 217.072 114.459C209.008 106.346 198.071 101.788 186.667 101.788ZM72 72.9462C72 61.4723 76.5304 50.4682 84.5944 42.3549C92.6585 34.2416 103.596 29.6836 115 29.6836C126.404 29.6836 137.342 34.2416 145.406 42.3549C153.47 50.4682 158 61.4723 158 72.9462V101.788H72V72.9462ZM201 245.997C201 249.822 199.49 253.49 196.802 256.194C194.114 258.898 190.468 260.418 186.667 260.418H43.3333C39.5319 260.418 35.8862 258.898 33.1982 256.194C30.5101 253.49 29 249.822 29 245.997V145.051C29 141.226 30.5101 137.558 33.1982 134.854C35.8862 132.149 39.5319 130.63 43.3333 130.63H186.667C190.468 130.63 194.114 132.149 196.802 134.854C199.49 137.558 201 141.226 201 145.051V245.997Z" fill="#99EE99"/>
</svg>
