<svg width="13" height="11" viewBox="0 0 13 11" fill="none" xmlns="http://www.w3.org/2000/svg">
    <path d="M6.05163 0.408493C6.23504 0.0368699 6.76496 0.0368701 6.94837 0.408493L8.29397 3.13497C8.3668 3.28255 8.50758 3.38483 8.67044 3.40849L11.6793 3.84571C12.0894 3.9053 12.2532 4.40928 11.9564 4.69855L9.77917 6.82082C9.66133 6.93569 9.60755 7.10119 9.63537 7.26339L10.1493 10.2601C10.2194 10.6685 9.79068 10.98 9.42387 10.7872L6.73267 9.37232C6.58701 9.29574 6.41299 9.29574 6.26733 9.37232L3.57613 10.7872C3.20932 10.98 2.7806 10.6685 2.85066 10.2601L3.36463 7.26339C3.39245 7.10119 3.33868 6.93569 3.22083 6.82082L1.04361 4.69855C0.746849 4.40928 0.910604 3.9053 1.32071 3.84571L4.32956 3.40849C4.49242 3.38483 4.6332 3.28255 4.70603 3.13497L6.05163 0.408493Z" fill="white"/>
</svg>
