<svg width="18" height="18" viewBox="0 0 18 18" fill="none" xmlns="http://www.w3.org/2000/svg">
<path d="M17.0501 7.54167L9.55014 0.875003C9.39807 0.741404 9.20256 0.667725 9.00014 0.667725C8.79772 0.667725 8.60221 0.741404 8.45014 0.875003L0.95014 7.54167C0.82267 7.65443 0.73278 7.80351 0.692556 7.96888C0.652332 8.13424 0.663703 8.30796 0.72514 8.46667C0.785572 8.62328 0.891894 8.75799 1.03018 8.85316C1.16847 8.94833 1.33227 8.99951 1.50014 9H2.33347V16.5C2.33347 16.721 2.42127 16.933 2.57755 17.0893C2.73383 17.2455 2.94579 17.3333 3.16681 17.3333H14.8335C15.0545 17.3333 15.2664 17.2455 15.4227 17.0893C15.579 16.933 15.6668 16.721 15.6668 16.5V9H16.5001C16.668 8.99951 16.8318 8.94833 16.9701 8.85316C17.1084 8.75799 17.2147 8.62328 17.2751 8.46667C17.3366 8.30796 17.3479 8.13424 17.3077 7.96888C17.2675 7.80351 17.1776 7.65443 17.0501 7.54167ZM9.83347 15.6667H8.16681V13.1667C8.16681 12.9457 8.2546 12.7337 8.41088 12.5774C8.56717 12.4211 8.77913 12.3333 9.00014 12.3333C9.22115 12.3333 9.43312 12.4211 9.5894 12.5774C9.74568 12.7337 9.83347 12.9457 9.83347 13.1667V15.6667ZM14.0001 15.6667H11.5001V13.1667C11.5001 12.5036 11.2367 11.8677 10.7679 11.3989C10.2991 10.9301 9.66318 10.6667 9.00014 10.6667C8.3371 10.6667 7.70121 10.9301 7.23237 11.3989C6.76353 11.8677 6.50014 12.5036 6.50014 13.1667V15.6667H4.00014V9H14.0001V15.6667ZM3.69181 7.33334L9.00014 2.61667L14.3085 7.33334H3.69181Z" fill="#56C2FE"/>
</svg>
