<svg width="24" height="24" viewBox="0 0 24 24" fill="none" xmlns="http://www.w3.org/2000/svg">
    <rect width="24" height="24" rx="12" fill="white"/>
    <path fill-rule="evenodd" clip-rule="evenodd" d="M11.1033 5.68732C11.4701 4.94407 12.5299 4.94407 12.8968 5.68732L14.3893 8.71154L17.7267 9.1965C18.547 9.31568 18.8745 10.3237 18.281 10.9022L15.866 13.2562L16.4361 16.5802C16.5762 17.3971 15.7187 18.02 14.9851 17.6343L12 16.065L9.01493 17.6343C8.28131 18.02 7.42387 17.3971 7.56398 16.5802L8.13408 13.2562L5.7191 10.9022C5.12558 10.3237 5.45309 9.31569 6.27331 9.1965L9.61074 8.71154L11.1033 5.68732ZM13.4926 9.15411L12 6.12988L10.5075 9.15411C10.3618 9.44925 10.0803 9.65382 9.75454 9.70115L6.41711 10.1861L8.8321 12.5401C9.06778 12.7699 9.17533 13.1009 9.11969 13.4253L8.54959 16.7492L11.5347 15.1799C11.826 15.0267 12.174 15.0267 12.4654 15.1799L15.4505 16.7492L14.8804 13.4253C14.8247 13.1009 14.9323 12.7699 15.1679 12.5401L17.5829 10.1861L14.2455 9.70115C13.9198 9.65382 13.6382 9.44925 13.4926 9.15411Z" fill="#DDE7ED"/>
</svg>
