<svg width="18" height="18" viewBox="0 0 18 18" fill="none" xmlns="http://www.w3.org/2000/svg">
    <path d="M15 0.75H3C2.40326 0.75 1.83097 0.987053 1.40901 1.40901C0.987053 1.83097 0.75 2.40326 0.75 3V15C0.75 15.5967 0.987053 16.169 1.40901 16.591C1.83097 17.0129 2.40326 17.25 3 17.25H15C15.5967 17.25 16.169 17.0129 16.591 16.591C17.0129 16.169 17.25 15.5967 17.25 15V3C17.25 2.40326 17.0129 1.83097 16.591 1.40901C16.169 0.987053 15.5967 0.75 15 0.75ZM6 15.75H3C2.80109 15.75 2.61032 15.671 2.46967 15.5303C2.32902 15.3897 2.25 15.1989 2.25 15V14.115C2.49051 14.2023 2.74414 14.248 3 14.25H6V15.75ZM6 12.75H3C2.80109 12.75 2.61032 12.671 2.46967 12.5303C2.32902 12.3897 2.25 12.1989 2.25 12V11.115C2.49051 11.2023 2.74414 11.248 3 11.25H6V12.75ZM6 9.75H3C2.80109 9.75 2.61032 9.67098 2.46967 9.53033C2.32902 9.38968 2.25 9.19891 2.25 9V3C2.25 2.80109 2.32902 2.61032 2.46967 2.46967C2.61032 2.32902 2.80109 2.25 3 2.25H6V9.75ZM10.5 15.75H7.5V11.25H10.5V15.75ZM10.5 9.75H7.5V2.25H10.5V9.75ZM15.75 15C15.75 15.1989 15.671 15.3897 15.5303 15.5303C15.3897 15.671 15.1989 15.75 15 15.75H12V14.25H15C15.2559 14.248 15.5095 14.2023 15.75 14.115V15ZM15.75 12C15.75 12.1989 15.671 12.3897 15.5303 12.5303C15.3897 12.671 15.1989 12.75 15 12.75H12V11.25H15C15.2559 11.248 15.5095 11.2023 15.75 11.115V12ZM15.75 9C15.75 9.19891 15.671 9.38968 15.5303 9.53033C15.3897 9.67098 15.1989 9.75 15 9.75H12V2.25H15C15.1989 2.25 15.3897 2.32902 15.5303 2.46967C15.671 2.61032 15.75 2.80109 15.75 3V9ZM13.5 5.25C13.3517 5.25 13.2067 5.29399 13.0833 5.3764C12.96 5.45881 12.8639 5.57594 12.8071 5.71299C12.7503 5.85003 12.7355 6.00083 12.7644 6.14632C12.7934 6.2918 12.8648 6.42544 12.9697 6.53033C13.0746 6.63522 13.2082 6.70665 13.3537 6.73559C13.4992 6.76453 13.65 6.74968 13.787 6.69291C13.9241 6.63614 14.0412 6.54001 14.1236 6.41668C14.206 6.29334 14.25 6.14834 14.25 6C14.25 5.80109 14.171 5.61032 14.0303 5.46967C13.8897 5.32902 13.6989 5.25 13.5 5.25ZM4.5 6.75C4.64834 6.75 4.79334 6.70601 4.91668 6.6236C5.04001 6.54119 5.13614 6.42406 5.19291 6.28701C5.24968 6.14997 5.26453 5.99917 5.23559 5.85368C5.20665 5.7082 5.13522 5.57456 5.03033 5.46967C4.92544 5.36478 4.7918 5.29335 4.64632 5.26441C4.50083 5.23547 4.35003 5.25032 4.21299 5.30709C4.07594 5.36386 3.95881 5.45999 3.8764 5.58332C3.79399 5.70666 3.75 5.85166 3.75 6C3.75 6.19891 3.82902 6.38968 3.96967 6.53033C4.11032 6.67098 4.30109 6.75 4.5 6.75Z" fill="#6DDB6D"/>
</svg>
