<svg width="120" height="120" viewBox="0 0 120 120" fill="none" xmlns="http://www.w3.org/2000/svg">
<path fill-rule="evenodd" clip-rule="evenodd" d="M39.4485 69.4486C42.0059 66.8913 45.4743 65.4546 49.0909 65.4546H70.9091C74.5257 65.4546 77.9941 66.8913 80.5515 69.4486C83.1088 72.0059 84.5455 75.4744 84.5455 79.091V84.5455C84.5455 86.0517 83.3244 87.2728 81.8182 87.2728C80.3119 87.2728 79.0909 86.0517 79.0909 84.5455V79.091C79.0909 76.921 78.2289 74.8399 76.6945 73.3055C75.1601 71.7711 73.079 70.9091 70.9091 70.9091H49.0909C46.921 70.9091 44.8399 71.7711 43.3055 73.3055C41.7711 74.8399 40.9091 76.921 40.9091 79.091V84.5455C40.9091 86.0517 39.688 87.2728 38.1818 87.2728C36.6756 87.2728 35.4545 86.0517 35.4545 84.5455V79.091C35.4545 75.4744 36.8912 72.0059 39.4485 69.4486Z" fill="#778995"/>
<path fill-rule="evenodd" clip-rule="evenodd" d="M60 38.1818C55.4813 38.1818 51.8182 41.845 51.8182 46.3637C51.8182 50.8824 55.4813 54.5455 60 54.5455C64.5187 54.5455 68.1818 50.8824 68.1818 46.3637C68.1818 41.845 64.5187 38.1818 60 38.1818ZM46.3636 46.3637C46.3636 38.8325 52.4688 32.7273 60 32.7273C67.5312 32.7273 73.6364 38.8325 73.6364 46.3637C73.6364 53.8948 67.5312 60 60 60C52.4688 60 46.3636 53.8948 46.3636 46.3637Z" fill="#778995"/>
</svg>
