<svg width="20" height="20" viewBox="0 0 20 20" fill="none" xmlns="http://www.w3.org/2000/svg">
    <path fill-rule="evenodd" clip-rule="evenodd" d="M6.636 3.60248C6.85554 3.95373 6.74876 4.41644 6.3975 4.63598L3.24706 6.60502L6.99828 9.93943C7.15839 10.0818 7.25 10.2858 7.25 10.5V16.9594L10.7775 18.1353L16.25 12.2068V9.49998C16.25 9.08576 16.5858 8.74998 17 8.74998C17.4142 8.74998 17.75 9.08576 17.75 9.49998V12.5C17.75 12.6885 17.679 12.8702 17.5511 13.0087L11.5511 19.5087C11.3511 19.7254 11.0426 19.8048 10.7628 19.7115L6.26283 18.2115C5.95658 18.1094 5.75 17.8228 5.75 17.5V10.8368L1.50173 7.06055C1.32512 6.90356 1.23282 6.67252 1.25265 6.43705C1.27248 6.20158 1.40212 5.98923 1.6025 5.86399L5.6025 3.36398C5.95376 3.14445 6.41647 3.25123 6.636 3.60248Z" fill="#56C2FE"/>
    <path fill-rule="evenodd" clip-rule="evenodd" d="M12.2336 1.70563C10.729 1.70563 9.48358 2.95447 9.48358 4.52706C9.48358 5.88945 10.2399 7.33432 11.0905 8.50611C11.5056 9.07794 11.9222 9.55626 12.235 9.89143C12.2426 9.89959 12.2502 9.90765 12.2576 9.91563C12.5658 9.61133 12.9758 9.1715 13.3847 8.62915C14.2183 7.52338 14.9836 6.07582 14.9836 4.52706C14.9836 2.95447 13.7382 1.70563 12.2336 1.70563ZM12.2336 10.9556C11.7263 11.508 11.726 11.5077 11.726 11.5077L11.7246 11.5064L11.7216 11.5037L11.7118 11.4946L11.678 11.4628C11.6493 11.4355 11.6084 11.3963 11.5572 11.3458C11.4547 11.2451 11.3105 11.0993 11.1384 10.9149C10.795 10.547 10.3365 10.0208 9.87664 9.38729C8.97727 8.14837 7.98358 6.37895 7.98358 4.52706C7.98358 2.15475 9.87216 0.205627 12.2336 0.205627C14.595 0.205627 16.4836 2.15475 16.4836 4.52706C16.4836 6.54972 15.4989 8.31644 14.5825 9.5321C14.118 10.1482 13.6548 10.6445 13.3071 10.9873C13.1329 11.1592 12.9867 11.2936 12.8823 11.3864C12.8302 11.4328 12.7884 11.4688 12.7587 11.494L12.7236 11.5236L12.7132 11.5322L12.7099 11.535L12.7087 11.5359C12.7087 11.5359 12.7079 11.5366 12.2336 10.9556ZM12.2336 10.9556L12.7079 11.5366C12.419 11.7724 12.0006 11.7599 11.726 11.5077L12.2336 10.9556Z" fill="#56C2FE"/>
</svg>
