<svg width="64" height="64" viewBox="0 0 64 64" fill="none" xmlns="http://www.w3.org/2000/svg">
<path fill-rule="evenodd" clip-rule="evenodd" d="M64 32C64 49.6731 49.6731 64 32 64C14.3269 64 0 49.6731 0 32C0 14.3269 14.3269 0 32 0C49.6731 0 64 14.3269 64 32ZM31.9053 32.1734C29.0969 32.1618 26.4068 31.0504 24.421 29.0812C22.4351 27.112 21.3143 24.4446 21.3027 21.6597C21.31 18.86 22.4248 16.1749 24.4074 14.1816C26.3901 12.1883 29.0823 11.0459 31.9053 11C33.3107 10.9979 34.7025 11.2733 35.9994 11.8101C37.2964 12.3468 38.4726 13.1343 39.4595 14.1265C40.4464 15.1187 41.2242 16.2958 41.7476 17.5891C42.271 18.8825 42.5295 20.2662 42.5079 21.6597C42.5257 23.0453 42.2637 24.4203 41.7371 25.7039C41.2106 26.9875 40.4303 28.1535 39.4421 29.1333C38.4541 30.1131 37.2781 30.8869 35.9837 31.409C34.6893 31.9311 33.3026 32.191 31.9053 32.1734ZM30.18 17.6259C30.7258 17.3966 31.3126 17.2787 31.9053 17.279C32.4981 17.2787 33.0848 17.3966 33.6306 17.6259C34.1764 17.8551 34.6702 18.1909 35.0824 18.6133C35.4946 19.0356 35.8169 19.536 36.03 20.0844C36.2431 20.6329 36.3429 21.2183 36.3231 21.8057C36.3174 22.3726 36.1982 22.9327 35.9723 23.4535C35.7464 23.9742 35.4184 24.4453 35.0074 24.8393C34.5964 25.2333 34.1104 25.5424 33.5779 25.7486C33.0454 25.9547 32.4769 26.054 31.9053 26.0404C31.3301 26.0684 30.7553 25.9791 30.2163 25.7782C29.6773 25.5772 29.1855 25.2687 28.7715 24.8718C28.3574 24.4749 28.0299 23.9981 27.8091 23.4707C27.5882 22.9433 27.4788 22.3767 27.4875 21.8057C27.4678 21.2183 27.5674 20.6329 27.7806 20.0844C27.9937 19.536 28.316 19.0356 28.7282 18.6133C29.1404 18.1909 29.6341 17.8551 30.18 17.6259ZM42.2134 46.7757L36.1758 40.9348C38.4325 40.2506 40.6056 39.3201 42.6552 38.1603C43.3131 37.6945 43.7696 36.9996 43.9334 36.2146C44.0972 35.4295 43.9563 34.6121 43.5388 33.9256C43.3141 33.5721 43.0191 33.2676 42.672 33.0307C42.3249 32.7937 41.9328 32.6292 41.5195 32.5473C41.1063 32.4653 40.6805 32.4675 40.2682 32.5539C39.8559 32.6402 39.4655 32.8089 39.121 33.0495C36.9656 34.3387 34.4961 35.0201 31.9789 35.0201C29.4617 35.0201 26.9923 34.3387 24.8369 33.0495C24.4923 32.8089 24.102 32.6402 23.6897 32.5539C23.2773 32.4675 22.8516 32.4653 22.4383 32.5473C22.0251 32.6292 21.633 32.7937 21.2859 33.0307C20.9387 33.2676 20.6438 33.5721 20.4191 33.9256C20.016 34.6292 19.8982 35.4586 20.0896 36.2452C20.2811 37.0318 20.7675 37.7166 21.4499 38.1603C23.4481 39.3194 25.5724 40.2502 27.7821 40.9348L21.5972 46.7757C21.3167 47.0536 21.0941 47.3838 20.9423 47.7471C20.7905 48.1103 20.7124 48.4998 20.7124 48.893C20.7124 49.2862 20.7905 49.6757 20.9423 50.0389C21.0941 50.4023 21.3167 50.7323 21.5972 51.0103C22.2092 51.5467 22.9898 51.8563 23.8061 51.8865C24.2155 51.9008 24.6233 51.8302 25.0037 51.6794C25.384 51.5286 25.7285 51.3007 26.015 51.0103L31.9053 45.1694L37.9429 51.0103C38.2042 51.3202 38.5307 51.5693 38.8997 51.7403C39.2686 51.9114 39.6709 52 40.0782 52C40.4854 52 40.8877 51.9114 41.2566 51.7403C41.6256 51.5693 41.9522 51.3202 42.2134 51.0103C42.4939 50.7323 42.7164 50.4023 42.8683 50.0389C43.0201 49.6757 43.0982 49.2862 43.0982 48.893C43.0982 48.4998 43.0201 48.1103 42.8683 47.7471C42.7164 47.3838 42.4939 47.0536 42.2134 46.7757Z" fill="#56C2FE"/>
</svg>
