<svg width="20" height="20" viewBox="0 0 20 20" fill="none" xmlns="http://www.w3.org/2000/svg">
<path fill-rule="evenodd" clip-rule="evenodd" d="M5.36384 11.3137L13.8491 2.82843L16.6775 5.65685L8.19227 14.1421L5.36384 11.3137ZM13.142 0.707107C13.5325 0.316582 14.1657 0.316582 14.5562 0.707107L18.7989 4.94975C19.1894 5.34027 19.1894 5.97344 18.7989 6.36396L8.89937 16.2635C8.78059 16.3822 8.63936 16.4649 8.48934 16.5114L4.04186 17.9939C2.47834 18.5151 0.990864 17.0276 1.51204 15.4641L2.9951 11.0149C3.04172 10.8655 3.1242 10.7249 3.24252 10.6066L13.142 0.707107ZM4.38661 13.1649L3.9227 14.5567C4.18751 14.5496 4.45459 14.6471 4.65669 14.8492C4.85881 15.0513 4.95632 15.3184 4.94922 15.5833L6.34104 15.1193L4.38661 13.1649ZM14.5562 6.364C14.9468 5.97347 14.9468 5.34031 14.5562 4.94978C14.1657 4.55926 13.5325 4.55926 13.142 4.94978L8.19227 9.89953C7.80174 10.2901 7.80174 10.9232 8.19227 11.3137C8.58279 11.7043 9.21596 11.7043 9.60648 11.3137L14.5562 6.364Z" fill="#19ACFE"/>
</svg>
