<svg width="18" height="18" viewBox="0 0 18 18" fill="none" xmlns="http://www.w3.org/2000/svg">
<path d="M17.3333 5.0327C17.3339 4.92302 17.3129 4.81431 17.2715 4.71277C17.23 4.61124 17.1689 4.5189 17.0916 4.44103L13.5583 0.907696C13.4804 0.830462 13.3881 0.769357 13.2866 0.727887C13.185 0.686416 13.0763 0.665395 12.9666 0.66603C12.857 0.665395 12.7482 0.686416 12.6467 0.727887C12.5452 0.769357 12.4528 0.830462 12.375 0.907696L10.0166 3.26603L0.908307 12.3744C0.831072 12.4522 0.769968 12.5446 0.728497 12.6461C0.687027 12.7476 0.666006 12.8564 0.66664 12.966V16.4994C0.66664 16.7204 0.754437 16.9323 0.910718 17.0886C1.067 17.2449 1.27896 17.3327 1.49997 17.3327H5.03331C5.14991 17.339 5.26655 17.3208 5.37566 17.2792C5.48476 17.2375 5.5839 17.1734 5.66664 17.091L14.725 7.9827L17.0916 5.66603C17.1677 5.58526 17.2297 5.49231 17.275 5.39103C17.283 5.3246 17.283 5.25745 17.275 5.19103C17.2789 5.15224 17.2789 5.11315 17.275 5.07436L17.3333 5.0327ZM4.69164 15.666H2.33331V13.3077L10.6083 5.0327L12.9666 7.39103L4.69164 15.666ZM14.1416 6.21603L11.7833 3.8577L12.9666 2.6827L15.3166 5.0327L14.1416 6.21603Z" fill="#19ACFE"/>
</svg>
