<svg width="20" height="20" viewBox="0 0 20 20" fill="none" xmlns="http://www.w3.org/2000/svg">
<path d="M5.83329 8.33341C5.66847 8.33341 5.50736 8.38229 5.37032 8.47386C5.23328 8.56542 5.12647 8.69557 5.06339 8.84784C5.00032 9.00012 4.98382 9.16767 5.01597 9.32932C5.04813 9.49097 5.12749 9.63946 5.24404 9.756C5.36058 9.87255 5.50907 9.95191 5.67072 9.98407C5.83237 10.0162 5.99992 9.99972 6.1522 9.93665C6.30447 9.87357 6.43462 9.76676 6.52618 9.62972C6.61775 9.49268 6.66663 9.33157 6.66663 9.16675C6.66663 8.94573 6.57883 8.73377 6.42255 8.57749C6.26627 8.42121 6.05431 8.33341 5.83329 8.33341ZM15.8333 5.00008H15V2.50008C15 2.27907 14.9122 2.06711 14.7559 1.91083C14.5996 1.75455 14.3876 1.66675 14.1666 1.66675H5.83329C5.61228 1.66675 5.40032 1.75455 5.24404 1.91083C5.08776 2.06711 4.99996 2.27907 4.99996 2.50008V5.00008H4.16663C3.50358 5.00008 2.8677 5.26347 2.39886 5.73231C1.93002 6.20116 1.66663 6.83704 1.66663 7.50008V12.5001C1.66663 13.1631 1.93002 13.799 2.39886 14.2678C2.8677 14.7367 3.50358 15.0001 4.16663 15.0001H4.99996V17.5001C4.99996 17.7211 5.08776 17.9331 5.24404 18.0893C5.40032 18.2456 5.61228 18.3334 5.83329 18.3334H14.1666C14.3876 18.3334 14.5996 18.2456 14.7559 18.0893C14.9122 17.9331 15 17.7211 15 17.5001V15.0001H15.8333C16.4963 15.0001 17.1322 14.7367 17.6011 14.2678C18.0699 13.799 18.3333 13.1631 18.3333 12.5001V7.50008C18.3333 6.83704 18.0699 6.20116 17.6011 5.73231C17.1322 5.26347 16.4963 5.00008 15.8333 5.00008ZM6.66663 3.33341H13.3333V5.00008H6.66663V3.33341ZM13.3333 16.6667H6.66663V13.3334H13.3333V16.6667ZM16.6666 12.5001C16.6666 12.7211 16.5788 12.9331 16.4225 13.0893C16.2663 13.2456 16.0543 13.3334 15.8333 13.3334H15V12.5001C15 12.2791 14.9122 12.0671 14.7559 11.9108C14.5996 11.7545 14.3876 11.6667 14.1666 11.6667H5.83329C5.61228 11.6667 5.40032 11.7545 5.24404 11.9108C5.08776 12.0671 4.99996 12.2791 4.99996 12.5001V13.3334H4.16663C3.94561 13.3334 3.73365 13.2456 3.57737 13.0893C3.42109 12.9331 3.33329 12.7211 3.33329 12.5001V7.50008C3.33329 7.27907 3.42109 7.06711 3.57737 6.91083C3.73365 6.75455 3.94561 6.66675 4.16663 6.66675H15.8333C16.0543 6.66675 16.2663 6.75455 16.4225 6.91083C16.5788 7.06711 16.6666 7.27907 16.6666 7.50008V12.5001Z" fill="#19ACFE"/>
</svg>
