<svg width="16" height="16" viewBox="0 0 16 16" fill="none" xmlns="http://www.w3.org/2000/svg">
    <path d="M7.52683 10.1933C7.49816 10.225 7.47145 10.2584 7.44683 10.2933C7.4216 10.3305 7.40142 10.3709 7.38683 10.4133C7.36761 10.4511 7.35413 10.4916 7.34683 10.5333C7.34356 10.5777 7.34356 10.6223 7.34683 10.6667C7.34458 10.7541 7.36285 10.8409 7.40017 10.92C7.43011 11.0027 7.47788 11.0779 7.54009 11.1401C7.6023 11.2023 7.67744 11.2501 7.76017 11.28C7.83997 11.3153 7.92625 11.3335 8.0135 11.3335C8.10075 11.3335 8.18703 11.3153 8.26683 11.28C8.34956 11.2501 8.4247 11.2023 8.48691 11.1401C8.54912 11.0779 8.59689 11.0027 8.62683 10.92C8.65644 10.8389 8.67002 10.7529 8.66683 10.6667C8.66734 10.5789 8.65052 10.492 8.61735 10.4107C8.58417 10.3295 8.53529 10.2556 8.4735 10.1933C8.41152 10.1309 8.33779 10.0813 8.25655 10.0474C8.17531 10.0136 8.08817 9.99614 8.00017 9.99614C7.91216 9.99614 7.82502 10.0136 7.74378 10.0474C7.66254 10.0813 7.58881 10.1309 7.52683 10.1933ZM8.00017 1.33334C6.68162 1.33334 5.39269 1.72434 4.29636 2.45688C3.20004 3.18942 2.34555 4.23061 1.84097 5.44879C1.33638 6.66696 1.20436 8.0074 1.4616 9.30061C1.71883 10.5938 2.35377 11.7817 3.28612 12.7141C4.21847 13.6464 5.40636 14.2813 6.69956 14.5386C7.99277 14.7958 9.33322 14.6638 10.5514 14.1592C11.7696 13.6546 12.8108 12.8001 13.5433 11.7038C14.2758 10.6075 14.6668 9.31855 14.6668 8.00001C14.6668 7.12453 14.4944 6.25762 14.1594 5.44879C13.8243 4.63995 13.3333 3.90502 12.7142 3.28596C12.0952 2.66691 11.3602 2.17584 10.5514 1.84081C9.74255 1.50578 8.87565 1.33334 8.00017 1.33334ZM8.00017 13.3333C6.94533 13.3333 5.91419 13.0205 5.03712 12.4345C4.16006 11.8485 3.47648 11.0155 3.07281 10.041C2.66914 9.06645 2.56352 7.99409 2.76931 6.95953C2.9751 5.92496 3.48305 4.97465 4.22893 4.22877C4.97481 3.48289 5.92512 2.97494 6.95968 2.76916C7.99425 2.56337 9.06661 2.66899 10.0411 3.07265C11.0157 3.47632 11.8486 4.15991 12.4347 5.03697C13.0207 5.91403 13.3335 6.94518 13.3335 8.00001C13.3335 9.4145 12.7716 10.7711 11.7714 11.7712C10.7712 12.7714 9.41465 13.3333 8.00017 13.3333ZM8.00017 4.66668C7.64888 4.66645 7.30372 4.75876 6.99944 4.9343C6.69516 5.10985 6.44248 5.36245 6.26683 5.66668C6.2186 5.74256 6.18621 5.82741 6.17162 5.91613C6.15702 6.00485 6.16053 6.0956 6.18192 6.18293C6.20331 6.27027 6.24215 6.35237 6.29609 6.4243C6.35003 6.49623 6.41797 6.55651 6.49581 6.60151C6.57366 6.6465 6.6598 6.67529 6.74905 6.68613C6.83831 6.69697 6.92884 6.68965 7.01519 6.66459C7.10154 6.63954 7.18193 6.59728 7.25153 6.54036C7.32113 6.48343 7.37849 6.41301 7.42017 6.33334C7.4789 6.23161 7.56348 6.1472 7.66533 6.08866C7.76718 6.03013 7.88269 5.99954 8.00017 6.00001C8.17698 6.00001 8.34655 6.07025 8.47157 6.19527C8.59659 6.3203 8.66683 6.48987 8.66683 6.66668C8.66683 6.84349 8.59659 7.01306 8.47157 7.13808C8.34655 7.2631 8.17698 7.33334 8.00017 7.33334C7.82336 7.33334 7.65379 7.40358 7.52876 7.52861C7.40374 7.65363 7.3335 7.8232 7.3335 8.00001V8.66668C7.3335 8.84349 7.40374 9.01306 7.52876 9.13808C7.65379 9.2631 7.82336 9.33334 8.00017 9.33334C8.17698 9.33334 8.34655 9.2631 8.47157 9.13808C8.59659 9.01306 8.66683 8.84349 8.66683 8.66668V8.54668C9.10775 8.38669 9.4784 8.07683 9.71401 7.67126C9.94962 7.26568 10.0352 6.7902 9.95576 6.32794C9.87634 5.86567 9.63697 5.44602 9.27949 5.14235C8.92202 4.83869 8.46919 4.67032 8.00017 4.66668Z" fill="#B0BEC7"/>
</svg>
