<svg width="16" height="16" viewBox="0 0 16 16" fill="none" xmlns="http://www.w3.org/2000/svg">
<path d="M7.52671 10.1933C7.49804 10.2249 7.47132 10.2583 7.44671 10.2933C7.42148 10.3304 7.4013 10.3708 7.38671 10.4133C7.36749 10.451 7.35401 10.4915 7.34671 10.5333C7.34344 10.5776 7.34344 10.6222 7.34671 10.6666C7.34446 10.754 7.36272 10.8408 7.40004 10.9199C7.42999 11.0026 7.47775 11.0778 7.53997 11.14C7.60218 11.2022 7.67731 11.25 7.76004 11.2799C7.83984 11.3152 7.92613 11.3334 8.01338 11.3334C8.10063 11.3334 8.18691 11.3152 8.26671 11.2799C8.34944 11.25 8.42457 11.2022 8.48679 11.14C8.549 11.0778 8.59677 11.0026 8.62671 10.9199C8.65631 10.8389 8.6699 10.7528 8.66671 10.6666C8.66722 10.5788 8.6504 10.4919 8.61722 10.4106C8.58405 10.3294 8.53516 10.2555 8.47338 10.1933C8.4114 10.1308 8.33767 10.0812 8.25643 10.0473C8.17519 10.0135 8.08805 9.99605 8.00004 9.99605C7.91204 9.99605 7.8249 10.0135 7.74366 10.0473C7.66242 10.0812 7.58869 10.1308 7.52671 10.1933ZM8.00004 1.33325C6.6815 1.33325 5.39257 1.72425 4.29624 2.45679C3.19991 3.18933 2.34543 4.23052 1.84085 5.4487C1.33626 6.66687 1.20424 8.00731 1.46148 9.30052C1.71871 10.5937 2.35365 11.7816 3.286 12.714C4.21835 13.6463 5.40624 14.2813 6.69944 14.5385C7.99265 14.7957 9.33309 14.6637 10.5513 14.1591C11.7694 13.6545 12.8106 12.8 13.5432 11.7037C14.2757 10.6074 14.6667 9.31846 14.6667 7.99992C14.6667 7.12444 14.4943 6.25753 14.1592 5.4487C13.8242 4.63986 13.3331 3.90493 12.7141 3.28587C12.095 2.66682 11.3601 2.17575 10.5513 1.84072C9.74243 1.50569 8.87552 1.33325 8.00004 1.33325ZM8.00004 13.3333C6.94521 13.3333 5.91406 13.0205 5.037 12.4344C4.15994 11.8484 3.47635 11.0154 3.07269 10.0409C2.66902 9.06636 2.5634 7.994 2.76919 6.95944C2.97498 5.92487 3.48293 4.97456 4.22881 4.22868C4.97469 3.4828 5.925 2.97485 6.95956 2.76906C7.99413 2.56328 9.06648 2.66889 10.041 3.07256C11.0156 3.47623 11.8485 4.15982 12.4345 5.03688C13.0206 5.91394 13.3334 6.94508 13.3334 7.99992C13.3334 9.41441 12.7715 10.771 11.7713 11.7712C10.7711 12.7713 9.41453 13.3333 8.00004 13.3333ZM8.00004 4.66658C7.64875 4.66636 7.3036 4.75867 6.99932 4.93421C6.69503 5.10976 6.44236 5.36236 6.26671 5.66658C6.21847 5.74246 6.18609 5.82732 6.17149 5.91604C6.1569 6.00476 6.16041 6.09551 6.1818 6.18284C6.20319 6.27017 6.24202 6.35228 6.29597 6.42421C6.34991 6.49614 6.41785 6.55642 6.49569 6.60141C6.57353 6.64641 6.65968 6.6752 6.74893 6.68604C6.83819 6.69688 6.92872 6.68955 7.01507 6.6645C7.10142 6.63945 7.18181 6.59719 7.25141 6.54026C7.32101 6.48334 7.37837 6.41292 7.42004 6.33325C7.47878 6.23152 7.56336 6.14711 7.66521 6.08857C7.76706 6.03004 7.88257 5.99945 8.00004 5.99992C8.17686 5.99992 8.34642 6.07016 8.47145 6.19518C8.59647 6.3202 8.66671 6.48977 8.66671 6.66658C8.66671 6.8434 8.59647 7.01297 8.47145 7.13799C8.34642 7.26301 8.17686 7.33325 8.00004 7.33325C7.82323 7.33325 7.65366 7.40349 7.52864 7.52851C7.40362 7.65354 7.33338 7.82311 7.33338 7.99992V8.66658C7.33338 8.8434 7.40362 9.01297 7.52864 9.13799C7.65366 9.26301 7.82323 9.33325 8.00004 9.33325C8.17686 9.33325 8.34642 9.26301 8.47145 9.13799C8.59647 9.01297 8.66671 8.8434 8.66671 8.66658V8.54658C9.10762 8.3866 9.47828 8.07674 9.71389 7.67116C9.9495 7.26559 10.0351 6.79011 9.95564 6.32785C9.87622 5.86558 9.63684 5.44593 9.27937 5.14226C8.9219 4.83859 8.46907 4.67022 8.00004 4.66658Z" fill="white"/>
</svg>
