<svg width="64" height="64" viewBox="0 0 64 64" fill="none" xmlns="http://www.w3.org/2000/svg">
<g clip-path="url(#clip0_4142_87924)">
<path fill-rule="evenodd" clip-rule="evenodd" d="M64 32C64 49.6731 49.6731 64 32 64C14.3269 64 0 49.6731 0 32C0 14.3269 14.3269 0 32 0C49.6731 0 64 14.3269 64 32ZM16.4444 45.3332V20.4443H40.8888C43.8344 20.4443 46.2222 22.8321 46.2222 25.7776V31.9998C46.2222 34.9453 43.8344 37.3332 40.8888 37.3332L46.6666 45.3332H40.2222L34.4444 37.3332H22.6666V45.3332H16.4444ZM22.6666 31.5554V25.7776H39.1111C39.602 25.7776 40 26.1756 40 26.6665V30.6665C40 31.1574 39.602 31.5554 39.1111 31.5554H22.6666ZM48.4444 20.4444C50.1627 20.4444 51.5556 19.0515 51.5556 17.3332C51.5556 15.615 50.1627 14.2221 48.4444 14.2221C46.7262 14.2221 45.3333 15.615 45.3333 17.3332C45.3333 19.0515 46.7262 20.4444 48.4444 20.4444Z" fill="#56C2FE"/>
</g>
<defs>
<clipPath id="clip0_4142_87924">
<rect width="64" height="64" fill="white"/>
</clipPath>
</defs>
</svg>
