<svg width="47" height="47" viewBox="0 0 47 47" fill="none" xmlns="http://www.w3.org/2000/svg">
    <path fill-rule="evenodd" clip-rule="evenodd" d="M21.6667 0.290321C9.86083 0.290321 0.290314 9.86084 0.290314 21.6667C0.290314 33.4725 9.86083 43.043 21.6667 43.043C26.593 43.043 31.1301 41.3766 34.745 38.5767L43.0843 46.916L46.9164 43.0839L38.577 34.7445C41.3767 31.1297 43.043 26.5928 43.043 21.6667C43.043 9.86084 33.4725 0.290321 21.6667 0.290321ZM5.70967 21.6667C5.70967 12.8539 12.8539 5.70968 21.6667 5.70968C30.4795 5.70968 37.6236 12.8539 37.6236 21.6667C37.6236 30.4795 30.4795 37.6237 21.6667 37.6237C12.8539 37.6237 5.70967 30.4795 5.70967 21.6667Z" fill="#56C2FE"/>
</svg>
