<svg width="20" height="20" viewBox="0 0 20 20" fill="none" xmlns="http://www.w3.org/2000/svg">
<path fill-rule="evenodd" clip-rule="evenodd" d="M15 14.3333C14.1716 14.3333 13.5 15.0048 13.5 15.8333C13.5 16.6617 14.1716 17.3333 15 17.3333C15.8284 17.3333 16.5 16.6617 16.5 15.8333C16.5 15.0048 15.8284 14.3333 15 14.3333ZM11.5 15.8333C11.5 13.9003 13.067 12.3333 15 12.3333C16.933 12.3333 18.5 13.9003 18.5 15.8333C18.5 17.7662 16.933 19.3333 15 19.3333C13.067 19.3333 11.5 17.7662 11.5 15.8333Z" fill="#19ACFE"/>
<path fill-rule="evenodd" clip-rule="evenodd" d="M5 8.5C4.17157 8.5 3.5 9.17157 3.5 10C3.5 10.8284 4.17157 11.5 5 11.5C5.82843 11.5 6.5 10.8284 6.5 10C6.5 9.17157 5.82843 8.5 5 8.5ZM1.5 10C1.5 8.067 3.067 6.5 5 6.5C6.933 6.5 8.5 8.067 8.5 10C8.5 11.933 6.933 13.5 5 13.5C3.067 13.5 1.5 11.933 1.5 10Z" fill="#19ACFE"/>
<path fill-rule="evenodd" clip-rule="evenodd" d="M6.29436 10.7547C6.57242 10.2776 7.18467 10.1161 7.66184 10.3942L13.3535 13.7109C13.8307 13.9889 13.9921 14.6012 13.714 15.0784C13.436 15.5555 12.8237 15.717 12.3466 15.4389L6.65489 12.1222C6.17771 11.8442 6.0163 11.2319 6.29436 10.7547Z" fill="#19ACFE"/>
<path fill-rule="evenodd" clip-rule="evenodd" d="M15 2.66675C14.1716 2.66675 13.5 3.33832 13.5 4.16675C13.5 4.99518 14.1716 5.66675 15 5.66675C15.8284 5.66675 16.5 4.99518 16.5 4.16675C16.5 3.33832 15.8284 2.66675 15 2.66675ZM11.5 4.16675C11.5 2.23375 13.067 0.666748 15 0.666748C16.933 0.666748 18.5 2.23375 18.5 4.16675C18.5 6.09974 16.933 7.66675 15 7.66675C13.067 7.66675 11.5 6.09974 11.5 4.16675Z" fill="#19ACFE"/>
<path fill-rule="evenodd" clip-rule="evenodd" d="M13.7054 4.92094C13.9838 5.39794 13.8227 6.01029 13.3457 6.28865L7.66239 9.60532C7.18539 9.88369 6.57305 9.72266 6.29468 9.24566C6.01631 8.76866 6.17734 8.15631 6.65434 7.87795L12.3377 4.56128C12.8147 4.28291 13.427 4.44394 13.7054 4.92094Z" fill="#19ACFE"/>
</svg>
