<svg width="24" height="24" viewBox="0 0 24 24" fill="none" xmlns="http://www.w3.org/2000/svg">
    <path d="M12 14C13.1046 14 14 13.1046 14 12C14 10.8954 13.1046 10 12 10C10.8954 10 10 10.8954 10 12C10 13.1046 10.8954 14 12 14Z" fill="#6DDB6D"/>
    <path fill-rule="evenodd" clip-rule="evenodd" d="M13 3C13 2.44772 12.5523 2 12 2C11.4477 2 11 2.44772 11 3V5.4507C8.96192 6.81218 7.58385 8.93428 7.14794 11.308L3.55279 13.1055C3.214 13.2749 3 13.6212 3 14V21C3 21.2071 3.06296 21.3995 3.17078 21.5591C3.35049 21.8251 3.65482 22 4 22H20C20.3452 22 20.6495 21.8251 20.8292 21.5591C20.937 21.3995 21 21.2071 21 21V14C21 13.6212 20.786 13.2749 20.4472 13.1055L16.8521 11.308C16.4161 8.93428 15.0381 6.81218 13 5.4507V3ZM17 20V13.618L19 14.618V20H17ZM7 13.618L5 14.618V20H7V13.618ZM15 12.934V20H13V18C13 17.4477 12.5523 17 12 17C11.4477 17 11 17.4477 11 18V20H9V12.934C9 10.6367 10.1265 8.49364 12 7.18944C13.8735 8.49364 15 10.6367 15 12.934Z" fill="#6DDB6D"/>
</svg>
