<svg width="18" height="19" viewBox="0 0 18 19" fill="none" xmlns="http://www.w3.org/2000/svg">
    <path fill-rule="evenodd" clip-rule="evenodd" d="M14.7791 2.07676C14.9371 1.54754 14.6361 0.99049 14.1069 0.832552C13.5776 0.674614 13.0206 0.975598 12.8626 1.50482C12.4411 2.9175 12.4661 4.10999 12.7824 5.16031C13.0916 6.18688 13.6592 7.00584 14.1884 7.69137C14.3286 7.87295 14.4634 8.04406 14.5917 8.20701L14.5918 8.20709L14.5918 8.2071C15.5081 9.37033 16.0973 10.1182 15.9783 11.2957C15.9228 11.8452 16.3232 12.3357 16.8727 12.3912C17.4222 12.4467 17.9126 12.0463 17.9682 11.4968C18.1747 9.45266 17.0192 8.02108 16.1256 6.91404C16.001 6.75975 15.8816 6.61176 15.7716 6.4693C15.2809 5.83362 14.8982 5.25022 14.6974 4.58353C14.5038 3.9406 14.4592 3.14893 14.7791 2.07676ZM3.1923 5.42955C2.7188 5.14526 2.1045 5.29864 1.82021 5.77213L0.14939 8.55492C-0.134901 9.02842 0.0184783 9.64272 0.491973 9.92701L4.77866 12.5008L4.77912 12.5011L14.2094 18.1631C14.4856 18.3289 14.8096 18.3458 15.0882 18.2372C15.1081 18.2294 15.1278 18.221 15.1472 18.2119C15.322 18.1306 15.4751 17.998 15.5818 17.8204L17.2526 15.0376C17.5369 14.5641 17.3835 13.9498 16.91 13.6655L16.0526 13.1507L16.0329 13.1392L7.47899 8.00332L3.1923 5.42955ZM13.5244 15.419L14.1657 14.3509L7.30681 10.2328L6.66551 11.3009L13.5244 15.419ZM5.59214 9.20324L3.02013 7.65898L2.37882 8.72709L4.95083 10.2714L5.59214 9.20324Z" fill="#6DDB6D"/>
</svg>
