<svg width="13" height="12" viewBox="0 0 13 12" fill="none" xmlns="http://www.w3.org/2000/svg">
    <path d="M6.05163 0.908493C6.23504 0.53687 6.76496 0.53687 6.94837 0.908493L8.29397 3.63497C8.3668 3.78255 8.50758 3.88483 8.67044 3.90849L11.6793 4.34571C12.0894 4.4053 12.2532 4.90928 11.9564 5.19855L9.77917 7.32082C9.66133 7.43569 9.60755 7.60119 9.63537 7.76339L10.1493 10.7601C10.2194 11.1685 9.79068 11.48 9.42387 11.2872L6.73267 9.87232C6.58701 9.79574 6.41299 9.79574 6.26733 9.87232L3.57613 11.2872C3.20932 11.48 2.7806 11.1685 2.85066 10.7601L3.36463 7.76339C3.39245 7.60119 3.33868 7.43569 3.22083 7.32082L1.04361 5.19855C0.746849 4.90928 0.910604 4.4053 1.32071 4.34571L4.32956 3.90849C4.49242 3.88483 4.6332 3.78255 4.70603 3.63497L6.05163 0.908493Z" fill="#DDE7ED"/>
</svg>
