<svg width="155" height="58" viewBox="0 0 155 58" fill="none" xmlns="http://www.w3.org/2000/svg">
<path d="M15.7585 1.77848C15.8522 0.10641 17.965 -0.622697 19.07 0.635719L28.0093 10.8163C28.4798 11.3522 29.2232 11.5718 29.9222 11.3815L43.2019 7.76587C44.8434 7.31895 46.177 9.06638 45.2922 10.5047L38.1337 22.1406C37.7569 22.7531 37.7666 23.5201 38.1587 24.1145L45.608 35.407C46.5288 36.8028 45.2403 38.6119 43.5884 38.2424L30.2249 35.2532C29.5215 35.0959 28.7842 35.3503 28.3275 35.908L19.6518 46.5027C18.5794 47.8124 16.4493 47.183 16.3133 45.5163L15.2127 32.033C15.1548 31.3233 14.6894 30.7135 14.015 30.4637L1.20376 25.7192C-0.379829 25.1327 -0.407706 22.9347 1.16007 22.2741L13.8434 16.9302C14.511 16.6489 14.9606 16.0176 15.0005 15.3055L15.7585 1.77848Z" fill="#FEE082"/>
<path d="M97.9276 21.9714C98.6089 20.8626 100.323 21.1439 100.614 22.4124L102.969 32.6741C103.093 33.2142 103.52 33.6388 104.068 33.7667L114.484 36.1965C115.771 36.4969 116.038 38.1841 114.902 38.841L105.711 44.1553C105.228 44.4351 104.951 44.9632 105 45.5144L105.925 55.9864C106.04 57.2809 104.491 58.0423 103.498 57.1798L95.4627 50.2025C95.0398 49.8353 94.4417 49.7371 93.9235 49.9498L84.0797 53.9921C82.8629 54.4917 81.6387 53.2751 82.1609 52.0851L86.3857 42.4586C86.6081 41.9519 86.515 41.3631 86.146 40.9434L79.1369 32.9696C78.2705 31.984 79.0628 30.4706 80.3788 30.5977L91.0246 31.6254C91.585 31.6795 92.1256 31.4138 92.4157 30.9417L97.9276 21.9714Z" fill="#FEE082"/>
<path d="M143.231 1.98093C143.383 1.32834 144.266 1.18633 144.615 1.75835L147.438 6.38595C147.586 6.62954 147.864 6.76724 148.153 6.74032L153.636 6.22888C154.313 6.16566 154.719 6.94615 154.271 7.45217L150.649 11.5458C150.458 11.7613 150.409 12.0643 150.523 12.3256L152.682 17.2889C152.949 17.9024 152.317 18.5268 151.691 18.2675L146.63 16.1699C146.363 16.0595 146.055 16.1091 145.837 16.2975L141.688 19.8764C141.176 20.3188 140.379 19.9242 140.44 19.2579L140.934 13.8679C140.96 13.5842 140.819 13.3118 140.57 13.167L135.847 10.4156C135.263 10.0755 135.404 9.20721 136.067 9.05472L141.434 7.82105C141.716 7.75611 141.937 7.53823 142.002 7.26033L143.231 1.98093Z" fill="#FEE082"/>
</svg>
