<svg width="21" height="20" viewBox="0 0 21 20" fill="none" xmlns="http://www.w3.org/2000/svg">
    <path d="M9.8309 0.908492C10.0143 0.536869 10.5442 0.53687 10.7276 0.908493L13.4129 6.34949C13.4858 6.49706 13.6265 6.59934 13.7894 6.62301L19.7939 7.49551C20.204 7.5551 20.3678 8.05909 20.071 8.34836L15.7261 12.5836C15.6083 12.6984 15.5545 12.8639 15.5823 13.0261L16.608 19.0064C16.678 19.4148 16.2493 19.7263 15.8825 19.5335L10.5119 16.71C10.3663 16.6334 10.1923 16.6334 10.0466 16.71L4.67601 19.5335C4.3092 19.7263 3.88048 19.4148 3.95054 19.0064L4.97623 13.0261C5.00405 12.8639 4.95027 12.6984 4.83243 12.5836L0.487538 8.34836C0.190779 8.05909 0.354535 7.5551 0.764646 7.49551L6.76914 6.62301C6.93199 6.59934 7.07278 6.49706 7.14561 6.34949L9.8309 0.908492Z" fill="#4EBFFF"/>
</svg>
