<svg width="36" height="35" viewBox="0 0 36 35" fill="none" xmlns="http://www.w3.org/2000/svg">
<path fill-rule="evenodd" clip-rule="evenodd" d="M18 32C26.0081 32 32.5 25.5081 32.5 17.5C32.5 9.49187 26.0081 3 18 3C9.99187 3 3.5 9.49187 3.5 17.5C3.5 25.5081 9.99187 32 18 32ZM18 35C27.665 35 35.5 27.165 35.5 17.5C35.5 7.83502 27.665 0 18 0C8.33502 0 0.5 7.83502 0.5 17.5C0.5 27.165 8.33502 35 18 35Z" fill="#6DDB6D"/>
<path fill-rule="evenodd" clip-rule="evenodd" d="M26.5698 14.0514L16.7423 24.0514C16.4602 24.3384 16.0748 24.5 15.6724 24.5C15.2701 24.5 14.8846 24.3384 14.6026 24.0514L9.43016 18.7882L11.5698 16.6854L15.6724 20.86L24.4302 11.9486L26.5698 14.0514Z" fill="#6DDB6D"/>
</svg>
