<svg width="64" height="64" viewBox="0 0 64 64" fill="none" xmlns="http://www.w3.org/2000/svg">
<g clip-path="url(#clip0_4142_87925)">
<path d="M33.9912 0.0466822C14.4252 -0.963435 0.156678 14.5768 0.00200603 31.3603C-0.191334 49.4259 13.6132 63.7229 31.7485 63.9949C49.1491 64.3057 62.7989 50.4748 63.9203 34.6238C65.2737 14.0718 49.1491 0.862546 33.9912 0.0466822ZM47.7957 20.5C46.133 28.5809 44.4316 36.623 42.6915 44.6651C42.1889 47.0738 41.0288 47.5401 38.9794 46.1803C36.5433 44.5097 34.1846 42.6837 31.5938 40.78C29.8151 42.3729 28.2297 43.8104 26.6443 45.2479C26.2576 40.78 25.5229 36.7396 29.7764 33.6704C33.8752 30.7177 37.394 26.9492 40.8741 23.0641C40.0234 23.6081 39.1341 24.1131 38.2834 24.657C33.5272 27.6485 28.7711 30.5623 24.0922 33.6315C22.7388 34.5251 21.5015 34.797 19.9547 34.1754C18.06 33.4373 16.0106 32.9711 14.1159 32.2329C12.6078 31.6501 12.4531 30.7177 13.9999 29.8242C14.2319 29.7076 14.4252 29.5911 14.6572 29.5134C24.7109 25.6283 34.7646 21.7044 44.8183 17.8582C47.2157 16.9646 48.2984 17.9747 47.7957 20.5Z" fill="#56C2FE"/>
</g>
<defs>
<clipPath id="clip0_4142_87925">
<rect width="64" height="64" fill="white"/>
</clipPath>
</defs>
</svg>
