<svg width="64" height="64" viewBox="0 0 64 64" fill="none" xmlns="http://www.w3.org/2000/svg">
<g clip-path="url(#clip0_4142_87926)">
<path d="M32 0C14.3269 0 0 14.3269 0 32C0 49.6731 14.3269 64 32 64C49.6731 64 64 49.6731 64 32C64 14.3269 49.6731 0 32 0ZM48.2025 29.0478C44.8045 29.0478 41.4982 27.945 38.9525 26.079L38.9323 38.7665C38.9301 41.1174 38.2111 43.4118 36.8711 45.3435C35.5311 47.2751 33.6339 48.7522 31.4326 49.5776C29.2313 50.403 26.8307 50.5374 24.551 49.9629C22.2714 49.3884 20.2211 48.1324 18.6738 46.3624C17.1266 44.5924 16.1559 42.3926 15.8914 40.0566C15.6269 37.7206 16.081 35.3594 17.1933 33.2883C18.3056 31.2171 20.023 29.5344 22.1165 28.4647C24.21 27.395 26.5799 26.9892 28.91 27.3014V33.532C27.8108 33.2073 26.6373 33.2369 25.556 33.6166C24.4746 33.9963 23.5402 34.7068 22.8853 35.6474C22.2304 36.588 21.8883 37.7109 21.9075 38.8569C21.9267 40.0029 22.3062 41.1137 22.9922 42.0318C23.6782 42.95 24.6359 43.6288 25.7294 43.9721C26.8229 44.3154 27.9967 44.3057 29.0844 43.9443C30.1721 43.583 31.1183 42.8884 31.789 41.959C32.4597 41.0296 32.8208 39.9126 32.821 38.7665V13.6666H39.2304C39.2304 14.8448 39.4624 16.0115 39.9133 17.0999C40.3642 18.1884 41.025 19.1775 41.8581 20.0106C42.6913 20.8437 43.6803 21.5045 44.7688 21.9554C45.8573 22.4062 47.0239 22.6383 48.2021 22.6383L48.2025 29.0478Z" fill="#56C2FE"/>
</g>
<defs>
<clipPath id="clip0_4142_87926">
<rect width="64" height="64" fill="white"/>
</clipPath>
</defs>
</svg>
