<svg width="20" height="20" viewBox="0 0 20 20" fill="none" xmlns="http://www.w3.org/2000/svg">
    <rect width="20" height="20" fill="white"/>
    <path fill-rule="evenodd" clip-rule="evenodd" d="M2.02478 5.12395C2.02478 3.41233 3.41233 2.02478 5.12395 2.02478H18.0165V14.9173C18.0165 16.629 16.629 18.0165 14.9173 18.0165H2.02478V5.12395ZM7.02478 5.49585C7.02478 6.36308 6.32176 7.0661 5.45453 7.0661C4.58731 7.0661 3.88428 6.36308 3.88428 5.49585C3.88428 4.62863 4.58731 3.92561 5.45453 3.92561C6.32176 3.92561 7.02478 4.62863 7.02478 5.49585ZM9.99999 7.0661C10.8672 7.0661 11.5702 6.36308 11.5702 5.49585C11.5702 4.62863 10.8672 3.92561 9.99999 3.92561C9.13276 3.92561 8.42974 4.62863 8.42974 5.49585C8.42974 6.36308 9.13276 7.0661 9.99999 7.0661ZM16.1157 5.49585C16.1157 6.36308 15.4127 7.0661 14.5454 7.0661C13.6782 7.0661 12.9752 6.36308 12.9752 5.49585C12.9752 4.62863 13.6782 3.92561 14.5454 3.92561C15.4127 3.92561 16.1157 4.62863 16.1157 5.49585ZM9.99999 11.5702C10.8672 11.5702 11.5702 10.8672 11.5702 9.99999C11.5702 9.13276 10.8672 8.42974 9.99999 8.42974C9.13276 8.42974 8.42974 9.13276 8.42974 9.99999C8.42974 10.8672 9.13276 11.5702 9.99999 11.5702ZM11.5702 14.5041C11.5702 15.3713 10.8672 16.0744 9.99999 16.0744C9.13276 16.0744 8.42974 15.3713 8.42974 14.5041C8.42974 13.6369 9.13276 12.9339 9.99999 12.9339C10.8672 12.9339 11.5702 13.6369 11.5702 14.5041ZM14.5454 16.0744C15.4127 16.0744 16.1157 15.3713 16.1157 14.5041C16.1157 13.6369 15.4127 12.9339 14.5454 12.9339C13.6782 12.9339 12.9752 13.6369 12.9752 14.5041C12.9752 15.3713 13.6782 16.0744 14.5454 16.0744Z" fill="#1A4AB5"/>
</svg>
