<svg width="18" height="21" viewBox="0 0 18 21" fill="none" xmlns="http://www.w3.org/2000/svg">
    <path d="M15 5H11.41L13.71 2.71C13.8032 2.61676 13.8772 2.50607 13.9277 2.38425C13.9781 2.26243 14.0041 2.13186 14.0041 2C14.0041 1.86814 13.9781 1.73758 13.9277 1.61575C13.8772 1.49393 13.8032 1.38324 13.71 1.29C13.6168 1.19676 13.5061 1.1228 13.3842 1.07234C13.2624 1.02188 13.1319 0.995911 13 0.995911C12.7337 0.995911 12.4783 1.1017 12.29 1.29L9 4.54L7.83 2.54C7.76434 2.42575 7.67682 2.32555 7.57243 2.24513C7.46805 2.1647 7.34885 2.10562 7.22163 2.07127C7.09441 2.03691 6.96168 2.02794 6.83099 2.04489C6.70031 2.06183 6.57425 2.10434 6.46 2.17C6.34575 2.23566 6.24555 2.32318 6.16513 2.42757C6.0847 2.53195 6.02562 2.65116 5.99126 2.77837C5.95691 2.90559 5.94794 3.03833 5.96488 3.16901C5.98182 3.29969 6.02434 3.42575 6.09 3.54L7 5H3C2.20435 5 1.44129 5.31607 0.87868 5.87868C0.316071 6.44129 0 7.20435 0 8V16C0 16.7957 0.316071 17.5587 0.87868 18.1213C1.44129 18.6839 2.20435 19 3 19V20C3 20.2652 3.10536 20.5196 3.29289 20.7071C3.48043 20.8946 3.73478 21 4 21C4.26522 21 4.51957 20.8946 4.70711 20.7071C4.89464 20.5196 5 20.2652 5 20V19H13V20C13 20.2652 13.1054 20.5196 13.2929 20.7071C13.4804 20.8946 13.7348 21 14 21C14.2652 21 14.5196 20.8946 14.7071 20.7071C14.8946 20.5196 15 20.2652 15 20V19C15.7956 19 16.5587 18.6839 17.1213 18.1213C17.6839 17.5587 18 16.7957 18 16V8C18 7.20435 17.6839 6.44129 17.1213 5.87868C16.5587 5.31607 15.7956 5 15 5ZM16 16C16 16.2652 15.8946 16.5196 15.7071 16.7071C15.5196 16.8946 15.2652 17 15 17H3C2.73478 17 2.48043 16.8946 2.29289 16.7071C2.10536 16.5196 2 16.2652 2 16V8C2 7.73479 2.10536 7.48043 2.29289 7.2929C2.48043 7.10536 2.73478 7 3 7H15C15.2652 7 15.5196 7.10536 15.7071 7.2929C15.8946 7.48043 16 7.73479 16 8V16Z" fill="#6DDB6D"/>
</svg>
