<svg width="32" height="32" viewBox="0 0 32 32" fill="none" xmlns="http://www.w3.org/2000/svg">
<circle cx="16" cy="16" r="16" fill="url(#paint0_radial_37_1310)"/>
<path d="M7.11245 16.343C7.11393 16.348 7.11584 16.3528 7.11732 16.3579C7.16945 16.5303 7.24489 16.6964 7.34406 16.854C7.36822 16.8925 7.39005 16.9318 7.41717 16.9691C7.42353 16.9779 7.43222 16.9888 7.439 16.9982C7.49367 17.0771 7.55152 17.1543 7.61657 17.2273C8.38431 18.1884 10.2224 20.1781 11.7945 21.9065C13.1369 23.3823 15.4855 23.361 16.8005 21.8615C19.1499 19.1823 23.6302 13.9727 24.3543 13.1304C24.3893 13.0921 24.4234 13.0528 24.4563 13.0118L24.4565 13.0116C24.4565 13.0116 24.4565 13.0116 24.4565 13.0114C24.8226 12.5563 25 12.0133 25 11.474C25 11.4736 25 11.4734 25 11.473C25 11.4726 25 11.4721 25 11.4717C24.9992 10.7657 24.6936 10.0666 24.1072 9.58012C24.1066 9.5797 24.1062 9.57908 24.1055 9.57866C24.0918 9.56736 24.0778 9.55606 24.0638 9.54497C24.0604 9.54225 24.057 9.53932 24.0534 9.5366L24.0532 9.53639C23.5923 9.17481 23.0422 8.99967 22.4961 8.99988C22.4959 8.99988 22.4957 8.99988 22.4955 8.99988C22.4953 8.99988 22.4949 8.99988 22.4946 8.99988C21.7579 9.00051 21.0285 9.32066 20.5345 9.93438C20.5326 9.93647 17.0029 14.1438 15.3403 16.0691C14.8031 16.6912 13.8345 16.7054 13.2791 16.0988C12.5762 15.3311 11.5203 14.1306 11.3688 13.981C11.3599 13.9722 11.1539 13.7626 11.0448 13.677C10.9994 13.6414 10.952 13.6102 10.9049 13.5782C9.94075 12.9224 8.65237 13.0237 7.80538 13.795C7.71151 13.8804 7.62145 13.9716 7.53944 14.0733C7.03002 14.7065 6.88953 15.51 7.08363 16.2361C7.09359 16.2721 7.10122 16.3079 7.11245 16.343Z" fill="white"/>
<defs>
<radialGradient id="paint0_radial_37_1310" cx="0" cy="0" r="1" gradientUnits="userSpaceOnUse" gradientTransform="translate(13.5 3.5) rotate(57.0115) scale(33.9779)">
<stop stop-color="#FF4E4E"/>
<stop offset="1" stop-color="#FDB305"/>
</radialGradient>
</defs>
</svg>
