<svg width="64" height="64" viewBox="0 0 64 64" fill="none" xmlns="http://www.w3.org/2000/svg">
<g clip-path="url(#clip0_4142_87927)">
<path fill-rule="evenodd" clip-rule="evenodd" d="M32 64C49.6731 64 64 49.6731 64 32C64 14.3269 49.6731 0 32 0C14.3269 0 0 14.3269 0 32C0 49.6731 14.3269 64 32 64ZM13 21C13.3086 35.991 20.7139 45 33.697 45H34.4329V36.4234C39.2037 36.9039 42.8112 40.4354 44.259 45H51C49.1487 38.1772 44.2827 34.4054 41.2446 32.9639C44.2827 31.1861 48.555 26.8619 49.5757 21H43.4518C42.1226 25.7568 38.1831 30.081 34.4329 30.4895V21H28.3091V37.6246C24.5114 36.6636 19.717 32.003 19.5034 21H13Z" fill="#56C2FE"/>
</g>
<defs>
<clipPath id="clip0_4142_87927">
<rect width="64" height="64" fill="white"/>
</clipPath>
</defs>
</svg>
