<svg width="14" height="20" viewBox="0 0 14 20" fill="none" xmlns="http://www.w3.org/2000/svg">
    <path d="M11.9999 6.61001L10.9999 0.840007C10.9616 0.603381 10.8395 0.388399 10.656 0.234219C10.4724 0.0800393 10.2396 -0.00307837 9.99989 6.5952e-06H3.99989C3.7602 -0.00307837 3.52738 0.0800393 3.34383 0.234219C3.16028 0.388399 3.03823 0.603381 2.99989 0.840007L1.99989 6.61001C1.31626 7.60834 0.950439 8.79004 0.950439 10C0.950439 11.21 1.31626 12.3917 1.99989 13.39L2.99989 19.16C3.03823 19.3966 3.16028 19.6116 3.34383 19.7658C3.52738 19.92 3.7602 20.0031 3.99989 20H9.99989C10.2396 20.0031 10.4724 19.92 10.656 19.7658C10.8395 19.6116 10.9616 19.3966 10.9999 19.16L11.9999 13.39C12.6835 12.3917 13.0493 11.21 13.0493 10C13.0493 8.79004 12.6835 7.60834 11.9999 6.61001ZM4.84989 2.00001H9.14989L9.58989 4.59001C8.78131 4.20306 7.8963 4.00221 6.99989 4.00221C6.10349 4.00221 5.21848 4.20306 4.40989 4.59001L4.84989 2.00001ZM9.14989 18H4.84989L4.40989 15.41C5.21848 15.797 6.10349 15.9978 6.99989 15.9978C7.8963 15.9978 8.78131 15.797 9.58989 15.41L9.14989 18ZM6.99989 14C6.20877 14 5.43541 13.7654 4.77761 13.3259C4.11982 12.8864 3.60713 12.2616 3.30438 11.5307C3.00163 10.7998 2.92241 9.99557 3.07675 9.21965C3.23109 8.44372 3.61206 7.73099 4.17147 7.17158C4.73088 6.61217 5.44361 6.23121 6.21953 6.07687C6.99546 5.92252 7.79972 6.00174 8.53063 6.30449C9.26153 6.60724 9.88625 7.11993 10.3258 7.77773C10.7653 8.43552 10.9999 9.20888 10.9999 10C10.9999 11.0609 10.5785 12.0783 9.82832 12.8284C9.07818 13.5786 8.06076 14 6.99989 14Z" fill="#6DDB6D"/>
</svg>
