<svg width="512" height="512" viewBox="0 0 512 512" fill="none" xmlns="http://www.w3.org/2000/svg">
<rect width="512" height="512" rx="256" fill="white"/>
<path d="M399.496 204.799C399.774 204.45 400.003 204.078 400.264 203.724C400.765 203.053 401.267 202.382 401.724 201.678C402.056 201.17 402.356 200.646 402.667 200.128C403.059 199.468 403.451 198.808 403.811 198.126C404.116 197.542 404.382 196.952 404.66 196.363C404.96 195.714 405.265 195.07 405.532 194.404C405.788 193.766 406.011 193.117 406.24 192.467C406.463 191.823 406.687 191.185 406.883 190.53C407.084 189.837 407.253 189.139 407.422 188.44C407.575 187.807 407.727 187.185 407.853 186.542C408 185.783 408.098 185.019 408.201 184.25C408.283 183.655 408.37 183.06 408.425 182.455C408.501 181.614 408.528 180.774 408.55 179.934C408.566 179.492 408.615 179.061 408.615 178.619C408.615 178.493 408.599 178.368 408.599 178.242C408.593 177.691 408.55 177.14 408.528 176.589C408.49 175.809 408.452 175.034 408.376 174.265C408.326 173.784 408.25 173.31 408.185 172.835C408.07 172 407.945 171.165 407.782 170.347C407.695 169.905 407.586 169.468 407.488 169.032C407.291 168.197 407.079 167.373 406.839 166.56C406.709 166.118 406.567 165.676 406.42 165.24C406.158 164.459 405.875 163.696 405.57 162.937C405.385 162.468 405.194 162.004 404.987 161.54C404.677 160.842 404.339 160.16 403.99 159.478C403.74 158.987 403.495 158.49 403.222 158.01C402.868 157.377 402.476 156.766 402.089 156.155C401.784 155.669 401.495 155.173 401.163 154.698C400.498 153.738 399.796 152.804 399.055 151.904C397.208 149.656 395.111 147.561 392.741 145.673C392.698 145.635 392.649 145.607 392.6 145.575C392.18 145.242 391.723 144.953 391.292 144.636C390.53 144.08 389.772 143.518 388.993 143.021C388.525 142.721 388.024 142.47 387.544 142.192C386.749 141.733 385.954 141.27 385.142 140.871C384.635 140.62 384.112 140.408 383.595 140.178C382.767 139.813 381.939 139.453 381.094 139.142C380.55 138.94 380 138.771 379.444 138.591C378.583 138.312 377.728 138.056 376.856 137.838C376.295 137.696 375.734 137.57 375.162 137.456C374.247 137.265 373.326 137.112 372.4 136.981C371.861 136.904 371.322 136.828 370.777 136.774C369.726 136.67 368.68 136.621 367.623 136.593C367.28 136.583 366.947 136.533 366.604 136.533C366.484 136.533 366.375 136.55 366.255 136.55C365.433 136.555 364.616 136.621 363.793 136.675C363.205 136.714 362.611 136.73 362.034 136.79C361.385 136.861 360.748 136.986 360.105 137.085C359.375 137.199 358.634 137.292 357.915 137.445C357.518 137.527 357.131 137.652 356.739 137.75C355.802 137.974 354.865 138.198 353.955 138.481C353.753 138.547 353.557 138.634 353.356 138.7C352.277 139.06 351.204 139.436 350.169 139.878C349.537 140.146 348.932 140.473 348.317 140.773C347.729 141.057 347.124 141.313 346.552 141.63C345.533 142.181 344.547 142.803 343.572 143.441C343.42 143.545 343.256 143.627 343.104 143.73C342.303 144.271 341.54 144.876 340.772 145.477C340.462 145.717 340.135 145.94 339.83 146.191C339.258 146.666 338.718 147.195 338.168 147.703C337.694 148.139 337.209 148.554 336.757 149.012C336.343 149.432 335.956 149.896 335.559 150.333C335.009 150.938 334.458 151.533 333.941 152.172C333.865 152.264 333.783 152.341 333.712 152.433C333.679 152.472 274.465 224.065 246.579 256.826C237.569 267.411 221.319 267.651 212.004 257.333C200.216 244.27 182.5 223.842 179.956 221.299C179.809 221.152 176.356 217.583 174.52 216.126C173.757 215.521 172.962 214.991 172.172 214.446C155.998 203.287 134.383 205.012 120.176 218.134C118.601 219.591 117.087 221.141 115.714 222.87C107.167 233.641 104.814 247.321 108.071 259.674C108.229 260.28 108.36 260.891 108.545 261.485C108.572 261.573 108.605 261.655 108.627 261.736C109.499 264.667 110.768 267.498 112.429 270.178C112.838 270.832 113.203 271.503 113.655 272.136C113.764 272.289 113.906 272.475 114.02 272.633C114.935 273.975 115.91 275.29 117 276.534C129.878 292.887 160.716 326.744 187.087 356.16C209.607 381.27 249.009 380.91 271.066 355.39C311.579 308.531 389.849 216.181 398.652 205.792C398.837 205.574 399.022 205.361 399.202 205.142C399.387 204.93 399.496 204.799 399.496 204.799Z" fill="url(#paint0_linear_7122_106123)"/>
<path d="M366.604 220.704C389.809 220.704 408.621 201.862 408.621 178.619C408.621 155.376 389.809 136.534 366.604 136.534C343.399 136.534 324.587 155.376 324.587 178.619C324.587 201.862 343.399 220.704 366.604 220.704Z" fill="#D7FFC0"/>
<defs>
<linearGradient id="paint0_linear_7122_106123" x1="106.66" y1="255.65" x2="408.618" y2="255.65" gradientUnits="userSpaceOnUse">
<stop stop-color="#54C1FF"/>
<stop offset="1" stop-color="#88FFCC"/>
</linearGradient>
</defs>
</svg>
