<svg width="25" height="24" viewBox="0 0 25 24" fill="none" xmlns="http://www.w3.org/2000/svg">
<path d="M7.90152 11C7.34923 11 6.90152 11.4477 6.90152 12C6.90152 12.5523 7.34923 13 7.90152 13H11.1196V16.2181C11.1196 16.7704 11.5674 17.2181 12.1196 17.2181C12.6719 17.2181 13.1196 16.7704 13.1196 16.2181V13H16.3378C16.8901 13 17.3378 12.5523 17.3378 12C17.3378 11.4477 16.8901 11 16.3378 11H13.1196V7.78187C13.1196 7.22959 12.6719 6.78187 12.1196 6.78187C11.5674 6.78187 11.1196 7.22959 11.1196 7.78187V11H7.90152Z" fill="#6DDB6D"/>
<path fill-rule="evenodd" clip-rule="evenodd" d="M12.0205 2.70459C6.88678 2.70459 2.7251 6.86628 2.7251 12C2.7251 17.1337 6.88678 21.2954 12.0205 21.2954C17.1542 21.2954 21.3159 17.1337 21.3159 12C21.3159 6.86628 17.1542 2.70459 12.0205 2.70459ZM4.7251 12C4.7251 7.97084 7.99135 4.70459 12.0205 4.70459C16.0496 4.70459 19.3159 7.97084 19.3159 12C19.3159 16.0291 16.0496 19.2954 12.0205 19.2954C7.99135 19.2954 4.7251 16.0291 4.7251 12Z" fill="#6DDB6D"/>
</svg>
