<svg width="24" height="24" viewBox="0 0 24 24" fill="none" xmlns="http://www.w3.org/2000/svg">
<path d="M9.16119 2.21692C9.45352 2.68549 9.31065 3.30233 8.84207 3.59466L3.87332 6.69451C3.40475 6.98684 2.78791 6.84397 2.49558 6.37539C2.20325 5.90682 2.34613 5.28998 2.8147 4.99765L7.78345 1.8978C8.25203 1.60547 8.86886 1.74834 9.16119 2.21692Z" fill="#6DDB6D"/>
<path d="M12.9857 8.62942C12.9857 8.07714 12.538 7.62942 11.9857 7.62942C11.4334 7.62942 10.9857 8.07714 10.9857 8.62942V13.056C10.9857 13.6083 11.4334 14.056 11.9857 14.056H15.2086C15.7609 14.056 16.2086 13.6083 16.2086 13.056C16.2086 12.5038 15.7609 12.056 15.2086 12.056H12.9857V8.62942Z" fill="#6DDB6D"/>
<path fill-rule="evenodd" clip-rule="evenodd" d="M12 4.19729C7.19064 4.19729 3.29186 8.09607 3.29186 12.9054C3.29186 15.5068 4.43252 17.8418 6.24096 19.4375L5.66309 20.4326C5.38576 20.9102 5.54811 21.5222 6.02571 21.7995C6.50331 22.0769 7.11531 21.9145 7.39264 21.4369L7.88815 20.5836C9.11281 21.2408 10.5129 21.6136 12 21.6136C13.5001 21.6136 14.9116 21.2343 16.1438 20.5664L16.6493 21.4369C16.9267 21.9145 17.5387 22.0769 18.0163 21.7995C18.4939 21.5222 18.6562 20.9102 18.3789 20.4326L17.7868 19.4129C19.5792 17.8179 20.7082 15.4935 20.7082 12.9054C20.7082 8.09607 16.8094 4.19729 12 4.19729ZM5.29186 12.9054C5.29186 9.20064 8.29521 6.19729 12 6.19729C15.7048 6.19729 18.7082 9.20064 18.7082 12.9054C18.7082 16.6103 15.7048 19.6136 12 19.6136C8.29521 19.6136 5.29186 16.6103 5.29186 12.9054Z" fill="#6DDB6D"/>
<path d="M14.9981 3.59466C14.5295 3.30233 14.3867 2.68549 14.679 2.21692C14.9713 1.74834 15.5881 1.60547 16.0567 1.8978L21.0255 4.99765C21.494 5.28998 21.6369 5.90682 21.3446 6.37539C21.0523 6.84397 20.4354 6.98684 19.9669 6.69451L14.9981 3.59466Z" fill="#6DDB6D"/>
</svg>
