<svg width="24" height="24" viewBox="0 0 24 24" fill="none" xmlns="http://www.w3.org/2000/svg">
<path fill-rule="evenodd" clip-rule="evenodd" d="M8.20521 1.27039C8.66459 0.963803 9.28552 1.08766 9.59211 1.54703C10.0098 2.17289 9.93819 2.82542 9.78514 3.30451C9.66733 3.67328 9.45987 4.0591 9.30051 4.35547C9.27328 4.4061 9.24746 4.45413 9.22372 4.49901C8.82406 5.25485 8.73247 5.62313 8.91785 5.99173C9.16599 6.48513 8.96717 7.08627 8.47377 7.33441C7.98037 7.58255 7.37923 7.38373 7.13108 6.89033C6.44004 5.51627 7.08433 4.26641 7.45568 3.56412C7.49191 3.4956 7.52578 3.43204 7.55738 3.37272C7.7202 3.06715 7.82305 2.87413 7.87999 2.69589C7.89189 2.65864 7.89837 2.63243 7.90184 2.61502C7.62982 2.1605 7.75979 1.56767 8.20521 1.27039Z" fill="#6DDB6D"/>
<path fill-rule="evenodd" clip-rule="evenodd" d="M6.62598 8.14111L17.3736 8.14111C17.9259 8.14111 18.3736 8.58883 18.3736 9.14111C18.3736 10.8316 17.7021 12.4528 16.5068 13.6481C16.3145 13.8403 16.1113 14.019 15.8985 14.1835C15.9122 14.2226 15.9236 14.263 15.9325 14.3045L17.5214 21.6875C17.6375 22.2274 17.294 22.7593 16.7541 22.8755C16.2142 22.9917 15.6823 22.6482 15.5661 22.1083L14.9066 19.0435H9.20868L8.54911 22.1083C8.43292 22.6482 7.90103 22.9917 7.36111 22.8755C6.82119 22.7593 6.47768 22.2274 6.59388 21.6875L8.18275 14.3045C8.18636 14.2877 8.19039 14.271 8.1948 14.2546C7.94783 14.0708 7.7131 13.8684 7.49282 13.6481C6.2975 12.4528 5.62598 10.8316 5.62598 9.14111C5.62598 8.8759 5.73133 8.62154 5.91887 8.43401C6.10641 8.24647 6.36076 8.14111 6.62598 8.14111ZM7.74181 10.1411C7.92644 10.9272 8.32681 11.6536 8.90704 12.2339C9.72729 13.0541 10.8398 13.5149 11.9998 13.5149C13.1598 13.5149 14.2723 13.0541 15.0925 12.2339C15.6728 11.6536 16.0731 10.9272 16.2578 10.1411L7.74181 10.1411ZM9.63909 17.0435H14.4761L14.0726 15.1685C13.4117 15.3958 12.7119 15.5149 11.9998 15.5149C11.3263 15.5149 10.6638 15.4083 10.0348 15.2045L9.63909 17.0435Z" fill="#6DDB6D"/>
<path fill-rule="evenodd" clip-rule="evenodd" d="M13.5443 1.54703C13.2377 1.08766 12.6167 0.963803 12.1574 1.27039C11.7119 1.56767 11.582 2.1605 11.854 2.61502C11.8505 2.63243 11.844 2.65864 11.8321 2.69589C11.7752 2.87413 11.6724 3.06715 11.5095 3.37272C11.478 3.43187 11.4439 3.49584 11.4078 3.56412C11.0365 4.26641 10.3922 5.51627 11.0832 6.89033C11.3314 7.38373 11.9325 7.58255 12.4259 7.33441C12.9193 7.08627 13.1181 6.48513 12.87 5.99173C12.6846 5.62313 12.7762 5.25485 13.1759 4.49901C13.1996 4.45419 13.2254 4.40623 13.2525 4.35567C13.4119 4.0593 13.6195 3.67328 13.7373 3.30451C13.8903 2.82542 13.962 2.17289 13.5443 1.54703Z" fill="#6DDB6D"/>
<path fill-rule="evenodd" clip-rule="evenodd" d="M16.1095 1.27039C16.5689 0.963803 17.1898 1.08766 17.4964 1.54703C17.9141 2.17289 17.8425 2.82542 17.6894 3.30451C17.5716 3.67328 17.3642 4.0591 17.2048 4.35547C17.1776 4.40609 17.1517 4.45414 17.128 4.49901C16.7284 5.25485 16.6368 5.62313 16.8221 5.99173C17.0703 6.48513 16.8715 7.08627 16.3781 7.33441C15.8847 7.58255 15.2835 7.38373 15.0354 6.89033C14.3443 5.51627 14.9886 4.26641 15.36 3.56412C15.3962 3.49566 15.43 3.43214 15.4616 3.37287C15.6244 3.06729 15.7273 2.87413 15.7843 2.69589C15.7962 2.65864 15.8027 2.63243 15.8061 2.61502C15.5341 2.1605 15.6641 1.56767 16.1095 1.27039Z" fill="#6DDB6D"/>
</svg>
