<svg width="24" height="24" viewBox="0 0 24 24" fill="none" xmlns="http://www.w3.org/2000/svg">
<path fill-rule="evenodd" clip-rule="evenodd" d="M14.0225 3H15C17.2091 3 19 4.79086 19 7V14C19 14.5523 18.5523 15 18 15H16.4774V20C16.4774 20.5523 16.0297 21 15.4774 21H8.52246C7.97018 21 7.52246 20.5523 7.52246 20V15H6C5.44772 15 5 14.5523 5 14V7C5 4.79086 6.79086 3 9 3H13.9784C13.9931 2.99968 14.0077 2.99967 14.0225 3ZM12.5 10.3569L14.6735 5H15C16.1046 5 17 5.89543 17 7V13H16.4774V10C16.4774 9.44772 16.0297 9 15.4774 9C14.9251 9 14.4774 9.44772 14.4774 10V11H12.5L12.5 10.3569ZM12.5 13H14.4774V19H9.52246V13H10.5L10.5001 17C10.5001 17.5523 10.9478 18 11.5001 18C12.0524 18 12.5001 17.5523 12.5001 17L12.5 13ZM9.52246 10V11H10.5L10.5 10.1618C10.5 10.0329 10.5249 9.90527 10.5734 9.78584L11.2033 8.23317C11.0832 8.16273 10.9759 8.06594 10.8908 7.94443L8.83262 5.0069C7.80637 5.09193 7 5.9518 7 7V13H7.52246V10C7.52246 9.44772 7.97018 9 8.52246 9C9.07475 9 9.52246 9.44772 9.52246 10ZM11.2698 5L12.0585 6.12558L12.5152 5H11.2698Z" fill="#6DDB6D"/>
</svg>
