<svg width="25" height="24" viewBox="0 0 25 24" fill="none" xmlns="http://www.w3.org/2000/svg">
<path fill-rule="evenodd" clip-rule="evenodd" d="M6.01611 4.09937C5.46383 4.09937 5.01611 4.54708 5.01611 5.09937V18.9009C5.01611 19.4531 5.46383 19.9009 6.01611 19.9009H18.0252C18.5775 19.9009 19.0252 19.4531 19.0252 18.9009V10.7502C19.0252 10.4858 18.9204 10.2321 18.7339 10.0447L13.1085 4.39386C12.9209 4.20534 12.6658 4.09937 12.3998 4.09937H6.01611ZM7.01611 12.853V6.09937H11.3998V10.7502C11.3998 11.3025 11.8475 11.7502 12.3998 11.7502H17.0252V12.853L7.01611 12.853ZM7.01611 14.853V17.9009H17.0252V14.853L7.01611 14.853ZM15.6187 9.75022L13.3998 7.52132V9.75022H15.6187Z" fill="#6DDB6D"/>
</svg>
