<svg width="24" height="24" viewBox="0 0 24 24" fill="none" xmlns="http://www.w3.org/2000/svg">
<path fill-rule="evenodd" clip-rule="evenodd" d="M13.7276 2.36075C13.3371 1.97023 12.7039 1.97025 12.3134 2.36078C12.0533 2.62086 11.9665 2.98855 12.0528 3.32051C12.0317 3.40131 12.0205 3.48609 12.0205 3.57349V6.95733C11.0295 7.1539 10.1105 7.63994 9.38557 8.36482C8.4215 9.3289 7.87988 10.6365 7.87988 11.9999C7.87988 13.3633 8.4215 14.6709 9.38557 15.6349C10.1105 16.3598 11.0295 16.8459 12.0205 17.0424V20.8328C12.0205 21.385 12.4682 21.8328 13.0205 21.8328C13.5728 21.8328 14.0205 21.385 14.0205 20.8328V17.202L17.9995 21.1808C18.39 21.5713 19.0231 21.5713 19.4137 21.1807C19.8042 20.7902 19.8042 20.157 19.4136 19.7665L14.0206 14.3737V11.2802L17.9995 15.2589C18.39 15.6494 19.0231 15.6494 19.4137 15.2589C19.8042 14.8683 19.8042 14.2352 19.4136 13.8446L14.0206 8.45187V7.85913L14.0205 7.84331V5.48201L17.9995 9.46078C18.39 9.8513 19.0231 9.85129 19.4137 9.46075C19.8042 9.07022 19.8042 8.43706 19.4136 8.04654L13.7276 2.36075ZM12.0205 9.02262C11.5649 9.17569 11.1461 9.43276 10.7998 9.77904C10.2108 10.368 9.87988 11.1669 9.87988 11.9999C9.87988 12.8329 10.2108 13.6317 10.7998 14.2207C11.1461 14.567 11.5649 14.8241 12.0205 14.9771V9.02262Z" fill="#6DDB6D"/>
<path d="M2.51904 12.2031C2.51904 11.6508 2.96676 11.2031 3.51904 11.2031H5.99121C6.5435 11.2031 6.99121 11.6508 6.99121 12.2031C6.99121 12.7554 6.5435 13.2031 5.99121 13.2031H3.51904C2.96676 13.2031 2.51904 12.7554 2.51904 12.2031Z" fill="#6DDB6D"/>
<path d="M7.27797 4.32075C6.93218 3.89011 6.30276 3.82134 5.87212 4.16713C5.44149 4.51292 5.37272 5.14234 5.71851 5.57298L7.26637 7.5006C7.61216 7.93123 8.24158 8.00001 8.67222 7.65422C9.10285 7.30842 9.17163 6.679 8.82583 6.24837L7.27797 4.32075Z" fill="#6DDB6D"/>
<path d="M5.80333 19.6546C5.40605 19.271 5.39499 18.6379 5.77864 18.2406L7.49594 16.4623C7.87958 16.065 8.51265 16.0539 8.90993 16.4376C9.30722 16.8212 9.31827 17.4543 8.93463 17.8516L7.21733 19.6299C6.83368 20.0272 6.20061 20.0383 5.80333 19.6546Z" fill="#6DDB6D"/>
</svg>
