<svg width="24" height="24" viewBox="0 0 24 24" fill="none" xmlns="http://www.w3.org/2000/svg">
<path fill-rule="evenodd" clip-rule="evenodd" d="M8.48168 15.8081C9.78679 15.8081 10.9983 15.4074 12 14.7224C13.0017 15.4074 14.2132 15.8081 15.5183 15.8081C18.9647 15.8081 21.7585 13.0142 21.7585 9.56786C21.7585 6.12148 18.9647 3.32764 15.5183 3.32764C14.2132 3.32764 13.0017 3.72829 12 4.41331C10.9983 3.72829 9.78679 3.32764 8.48168 3.32764C5.0353 3.32764 2.24146 6.12148 2.24146 9.56786C2.24146 13.0142 5.0353 15.8081 8.48168 15.8081ZM8.48168 5.32764C6.13987 5.32764 4.24146 7.22605 4.24146 9.56786C4.24146 11.9097 6.13987 13.8081 8.48168 13.8081C9.21671 13.8081 9.90805 13.6211 10.5107 13.292C9.73638 12.2525 9.27808 10.9637 9.27808 9.56786C9.27808 8.17201 9.73638 6.88321 10.5107 5.84371C9.90805 5.51466 9.21671 5.32764 8.48168 5.32764ZM15.5183 5.32764C14.7833 5.32764 14.0919 5.51466 13.4893 5.84371C14.2636 6.88321 14.7219 8.17201 14.7219 9.56786C14.7219 10.9637 14.2636 12.2525 13.4893 13.292C14.0919 13.6211 14.7833 13.8081 15.5183 13.8081C17.8601 13.8081 19.7585 11.9097 19.7585 9.56786C19.7585 7.22605 17.8601 5.32764 15.5183 5.32764ZM12.7219 9.56786C12.7219 8.69113 12.4558 7.87654 12 7.20045C11.5442 7.87654 11.2781 8.69113 11.2781 9.56786C11.2781 10.4446 11.5442 11.2592 12 11.9353C12.4558 11.2592 12.7219 10.4446 12.7219 9.56786Z" fill="#6DDB6D"/>
<path d="M4.24146 19.6724C4.24146 18.6196 5.09495 17.7661 6.14779 17.7661C7.20063 17.7661 8.05412 18.6196 8.05412 19.6724C8.05412 20.2247 8.50184 20.6724 9.05412 20.6724L9.06771 20.6724L9.0813 20.6724C9.63358 20.6724 10.0813 20.2247 10.0813 19.6724C10.0813 18.6196 10.9348 17.7661 11.9876 17.7661C13.0405 17.7661 13.894 18.6196 13.894 19.6724C13.894 20.2247 14.3417 20.6724 14.894 20.6724C14.8985 20.6724 14.9031 20.6724 14.9077 20.6724C14.9122 20.6724 14.9168 20.6724 14.9214 20.6724C15.4737 20.6724 15.9214 20.2247 15.9214 19.6724C15.9214 18.6196 16.7749 17.7661 17.8277 17.7661C18.8806 17.7661 19.7341 18.6196 19.7341 19.6724C19.7341 20.2247 20.1818 20.6724 20.7341 20.6724C21.2863 20.6724 21.7341 20.2247 21.7341 19.6724C21.7341 17.515 19.9851 15.7661 17.8277 15.7661C16.6663 15.7661 15.6232 16.273 14.9077 17.0776C14.1922 16.273 13.1491 15.7661 11.9876 15.7661C10.8262 15.7661 9.78324 16.2729 9.06771 17.0775C8.35219 16.2729 7.30918 15.7661 6.14779 15.7661C3.99038 15.7661 2.24146 17.515 2.24146 19.6724C2.24146 20.2247 2.68917 20.6724 3.24146 20.6724C3.79374 20.6724 4.24146 20.2247 4.24146 19.6724Z" fill="#6DDB6D"/>
</svg>
