<svg width="24" height="24" viewBox="0 0 24 24" fill="none" xmlns="http://www.w3.org/2000/svg">
<path fill-rule="evenodd" clip-rule="evenodd" d="M9.45342 3.6773C9.89219 2.65294 10.9095 1.9353 12.0944 1.9353C13.2793 1.9353 14.2966 2.65292 14.7354 3.67725C15.5949 4.08564 16.3449 4.68718 16.9292 5.42577C17.5399 5.59246 18.1594 5.88073 18.641 6.36512C19.2258 6.95336 19.5271 7.75249 19.4467 8.7038C19.3714 9.59363 18.9684 10.5771 18.2558 11.6636V18.9158H18.7378C19.2901 18.9158 19.7378 19.3635 19.7378 19.9158C19.7378 20.4681 19.2901 20.9158 18.7378 20.9158H5.26221C4.70992 20.9158 4.26221 20.4681 4.26221 19.9158C4.26221 19.3635 4.70992 18.9158 5.26221 18.9158H5.93311V11.6636C5.22057 10.5771 4.81753 9.59361 4.74231 8.7038C4.6619 7.75249 4.96318 6.95336 5.54799 6.36512C6.02956 5.88074 6.64905 5.59248 7.25968 5.42579C7.84399 4.68721 8.59393 4.08568 9.45342 3.6773ZM12.0944 3.9353C11.613 3.9353 11.2227 4.32561 11.2227 4.80707C11.2227 5.28853 11.613 5.67884 12.0944 5.67884C12.5759 5.67884 12.9662 5.28853 12.9662 4.80707C12.9662 4.32561 12.5759 3.9353 12.0944 3.9353ZM12.0944 7.67884C12.809 7.67884 13.4625 7.41788 13.9651 6.98608C14.1628 7.16048 14.4287 7.2569 14.7121 7.23262C15.0537 7.20335 15.4053 7.20342 15.7397 7.23665C16.0686 7.83223 16.2558 8.51701 16.2558 9.24551V11.7699C14.7558 12.4006 14.0038 13.8553 13.9925 15.1729C13.9866 15.8515 14.1749 16.5587 14.6252 17.1295C15.0199 17.63 15.5786 17.9761 16.2558 18.1074V18.9102H7.93311V18.1074C8.61035 17.9761 9.16903 17.63 9.5638 17.1295C10.0141 16.5587 10.2023 15.8515 10.1965 15.1729C10.1851 13.8553 9.43314 12.4006 7.93311 11.7699V9.24551C7.93311 8.51701 8.1203 7.83223 8.44922 7.23666C8.78364 7.20342 9.1352 7.20335 9.47689 7.23262C9.76027 7.2569 10.0262 7.1605 10.2238 6.98613C10.7264 7.4179 11.3799 7.67884 12.0944 7.67884ZM16.2558 15.9579V14.2835C16.0851 14.5609 15.9951 14.8798 15.9924 15.1902C15.9897 15.5027 16.0779 15.7419 16.1955 15.8909C16.2135 15.9138 16.2334 15.9362 16.2558 15.9579ZM7.93311 14.2834V15.9579C7.95549 15.9363 7.97548 15.9138 7.9935 15.8909C8.11106 15.7419 8.19925 15.5027 8.19655 15.1902C8.19388 14.8798 8.10383 14.5608 7.93311 14.2834Z" fill="#6DDB6D"/>
</svg>
