<svg width="24" height="24" viewBox="0 0 24 24" fill="none" xmlns="http://www.w3.org/2000/svg">
<path fill-rule="evenodd" clip-rule="evenodd" d="M9.78692 10.1054C8.65279 10.9907 8.78838 12.5746 9.55092 13.5515C10.3135 14.5285 11.8171 15.0446 12.9512 14.1594C14.0853 13.2741 13.9497 11.6902 13.1872 10.7133C12.4246 9.73634 10.921 9.22021 9.78692 10.1054ZM11.1275 12.3209C10.9966 12.1532 10.9529 11.9798 10.9567 11.8558C10.9605 11.7344 11.0033 11.6931 11.0175 11.682C11.0317 11.6709 11.0822 11.6394 11.2008 11.6652C11.3221 11.6917 11.4797 11.7761 11.6106 11.9439C11.7415 12.1116 11.7852 12.285 11.7814 12.4091C11.7776 12.5304 11.7348 12.5717 11.7206 12.5828C11.7064 12.5939 11.6559 12.6254 11.5373 12.5996C11.416 12.5732 11.2584 12.4887 11.1275 12.3209Z" fill="#6DDB6D"/>
<path fill-rule="evenodd" clip-rule="evenodd" d="M6.99534 4.42602C3.92644 6.82144 4.10112 11.5877 6.7278 14.9529C7.17706 15.5284 7.68349 16.0444 8.22975 16.4923L6.57681 19.2841C6.3938 19.5932 6.39064 19.9767 6.56854 20.2888C6.74645 20.6008 7.07807 20.7935 7.4373 20.7935H11.432C11.9842 20.7935 12.432 20.3458 12.432 19.7935C12.432 19.2412 11.9842 18.7935 11.432 18.7935H9.1915L9.90417 17.5898C12.2609 18.7894 14.9663 18.8404 17.0046 17.2494C20.0735 14.854 19.8988 10.0878 17.2721 6.72257C14.6454 3.35738 10.0642 2.0306 6.99534 4.42602ZM8.30439 13.7223C6.08277 10.876 6.34211 7.47302 8.22594 6.00261C10.1098 4.53219 13.4739 5.10692 15.6955 7.95317C17.8277 10.6849 17.6747 13.9294 15.9935 15.4861C16.0276 15.3105 16.058 15.1328 16.0846 14.9545C16.2654 13.7473 16.3062 12.3293 16.1585 10.9263C16.1007 10.3771 15.6086 9.97868 15.0593 10.0365C14.5101 10.0943 14.1117 10.5864 14.1695 11.1357C14.2997 12.3726 14.262 13.6207 14.1067 14.6584C13.9816 15.4937 13.7947 16.0945 13.6211 16.4474C11.8731 16.5511 9.82214 15.6668 8.30439 13.7223Z" fill="#6DDB6D"/>
</svg>
