<svg width="24" height="24" viewBox="0 0 24 24" fill="none" xmlns="http://www.w3.org/2000/svg">
<path fill-rule="evenodd" clip-rule="evenodd" d="M18.2239 7.99798L15.6751 5.50335C15.3642 5.1991 14.9054 5.1387 14.5358 5.31959C14.4389 5.36703 14.3481 5.43106 14.2677 5.51164L13.137 6.64237L11.9733 5.50335C11.5816 5.11999 10.9543 5.12335 10.5667 5.5109L8.07199 8.00553C7.78598 8.29152 7.70042 8.72164 7.8552 9.09532C7.96137 9.35164 8.16627 9.54677 8.41504 9.64406V15.2585C8.41504 15.8108 8.86275 16.2585 9.41504 16.2585H12.9099C13.4622 16.2585 13.9099 15.8108 13.9099 15.2585V9.70885C14.2807 9.67649 14.6061 9.43953 14.7485 9.09036C14.8942 8.7333 14.8211 8.32629 14.5651 8.04274L14.9831 7.62467L16.8249 9.42731C17.2196 9.81362 17.8528 9.80681 18.2391 9.41211C18.6254 9.01742 18.6186 8.38429 18.2239 7.99798ZM10.415 9.71265H11.9099V14.2585H10.415V9.71265ZM11.2813 7.62466L11.1934 7.71265H11.3712L11.2813 7.62466Z" fill="#6DDB6D"/>
<path fill-rule="evenodd" clip-rule="evenodd" d="M18.8423 18.4983V21.4031C18.8423 21.9554 19.29 22.4031 19.8423 22.4031C20.3946 22.4031 20.8423 21.9554 20.8423 21.4031V3.87231C20.8423 3.84699 20.8413 3.8219 20.8395 3.79705C20.8413 3.77273 20.8422 3.74816 20.8422 3.72339C20.8422 3.1711 20.3945 2.72339 19.8422 2.72339H7.87061C6.21375 2.72339 4.87061 4.06653 4.87061 5.72339V16.5795C3.54952 16.8935 2.56689 18.0811 2.56689 19.4983V21.4031C2.56689 21.9554 3.01461 22.4031 3.56689 22.4031C4.11918 22.4031 4.56689 21.9554 4.56689 21.4031V19.4983C4.56689 18.946 5.01461 18.4983 5.56689 18.4983H18.8423ZM6.87061 5.72339C6.87061 5.1711 7.31832 4.72339 7.87061 4.72339H18.8423V16.4983H6.87061V5.72339Z" fill="#6DDB6D"/>
</svg>
