<svg width="25" height="24" viewBox="0 0 25 24" fill="none" xmlns="http://www.w3.org/2000/svg">
<path d="M9.02051 17H13.0205C14.3466 17 15.6184 16.4732 16.556 15.5355C17.4937 14.5979 18.0205 13.3261 18.0205 12V11H19.0205C19.8162 11 20.5792 10.6839 21.1418 10.1213C21.7044 9.55871 22.0205 8.79565 22.0205 8C22.0205 7.20435 21.7044 6.44129 21.1418 5.87868C20.5792 5.31607 19.8162 5 19.0205 5H18.0205V4C18.0205 3.73478 17.9152 3.48043 17.7276 3.29289C17.5401 3.10536 17.2857 3 17.0205 3H5.02051C4.75529 3 4.50094 3.10536 4.3134 3.29289C4.12586 3.48043 4.02051 3.73478 4.02051 4V12C4.02051 13.3261 4.54729 14.5979 5.48497 15.5355C6.42266 16.4732 7.69443 17 9.02051 17ZM18.0205 7H19.0205C19.2857 7 19.5401 7.10536 19.7276 7.29289C19.9152 7.48043 20.0205 7.73478 20.0205 8C20.0205 8.26522 19.9152 8.51957 19.7276 8.70711C19.5401 8.89464 19.2857 9 19.0205 9H18.0205V7ZM6.02051 5H16.0205V12C16.0205 12.7956 15.7044 13.5587 15.1418 14.1213C14.5792 14.6839 13.8162 15 13.0205 15H9.02051C8.22486 15 7.4618 14.6839 6.89919 14.1213C6.33658 13.5587 6.02051 12.7956 6.02051 12V5ZM21.0205 19H3.02051C2.75529 19 2.50094 19.1054 2.3134 19.2929C2.12586 19.4804 2.02051 19.7348 2.02051 20C2.02051 20.2652 2.12586 20.5196 2.3134 20.7071C2.50094 20.8946 2.75529 21 3.02051 21H21.0205C21.2857 21 21.5401 20.8946 21.7276 20.7071C21.9152 20.5196 22.0205 20.2652 22.0205 20C22.0205 19.7348 21.9152 19.4804 21.7276 19.2929C21.5401 19.1054 21.2857 19 21.0205 19Z" fill="#6DDB6D"/>
</svg>
