<svg width="25" height="24" viewBox="0 0 25 24" fill="none" xmlns="http://www.w3.org/2000/svg">
<path fill-rule="evenodd" clip-rule="evenodd" d="M14.7186 3.07856L17.2837 3.07837C17.7685 3.07833 18.1835 3.42606 18.2683 3.90338L18.699 6.32664C18.7508 6.6179 18.6709 6.91714 18.4809 7.14389C18.2909 7.37064 18.0103 7.50162 17.7144 7.50162H17.0439V8.35229H19.5731C20.1254 8.35229 20.5731 8.80001 20.5731 9.35229V12.2621L20.5732 12.2776V19.9216C20.5732 20.4739 20.1255 20.9216 19.5732 20.9216C19.021 20.9216 18.5732 20.4739 18.5732 19.9216V13.3536H11.2694V17.8805C11.2694 18.4328 10.8217 18.8805 10.2694 18.8805H5.46777V19.9216C5.46777 20.4739 5.02006 20.9216 4.46777 20.9216C3.91549 20.9216 3.46777 20.4739 3.46777 19.9216V9.35229C3.46777 8.80001 3.91549 8.35229 4.46777 8.35229H15.0439V7.50162H14.3958C14.1075 7.50162 13.8333 7.37724 13.6434 7.16037C13.4535 6.9435 13.3664 6.65525 13.4045 6.36952L13.7274 3.94646C13.7936 3.44965 14.2174 3.07859 14.7186 3.07856ZM15.5943 5.07849L15.5379 5.50162H16.521L16.4458 5.07843L15.5943 5.07849ZM5.46777 10.3523V11.3536H18.5731V10.3523H5.46777ZM9.26944 16.8805H5.46777V16.1239H9.26944V16.8805ZM9.26944 14.1239H5.46777V13.3538H9.26944V14.1239Z" fill="#6DDB6D"/>
</svg>
