<svg width="25" height="24" viewBox="0 0 25 24" fill="none" xmlns="http://www.w3.org/2000/svg">
<path d="M4.10059 5.71631C4.10059 5.16402 3.65287 4.71631 3.10059 4.71631C2.5483 4.71631 2.10059 5.16402 2.10059 5.71631V17.6338C2.10059 18.1861 2.5483 18.6338 3.10059 18.6338C3.65287 18.6338 4.10059 18.1861 4.10059 17.6338V13.8814H7.80348V14.8095V17.6338C7.80348 18.1861 8.2512 18.6338 8.80348 18.6338C9.35577 18.6338 9.80348 18.1861 9.80348 17.6338V12.8814C9.80348 12.3291 9.35577 11.8814 8.80348 11.8814H4.10059V5.71631Z" fill="#6DDB6D"/>
<path d="M7.77979 8.66455C7.2275 8.66455 6.77979 9.11227 6.77979 9.66455C6.77979 10.2168 7.2275 10.6646 7.77979 10.6646H13.3601V14.9789L11.2253 16.7998C10.8051 17.1582 10.755 17.7894 11.1134 18.2096C11.4718 18.6298 12.103 18.6799 12.5232 18.3215L14.3503 16.763L16.1126 18.3118C16.5275 18.6764 17.1594 18.6356 17.5239 18.2207C17.8885 17.8059 17.8477 17.174 17.4329 16.8095L15.3601 14.9879V10.6646H20.9404C21.4927 10.6646 21.9404 10.2168 21.9404 9.66455C21.9404 9.11227 21.4927 8.66455 20.9404 8.66455H7.77979Z" fill="#6DDB6D"/>
<path d="M4.10059 14.8095V16.8095H7.80348V14.8095H4.10059Z" fill="#6DDB6D"/>
</svg>
