<svg width="25" height="24" viewBox="0 0 25 24" fill="none" xmlns="http://www.w3.org/2000/svg">
<path d="M17.2854 9.59912C18.0395 9.59912 18.6509 8.98778 18.6509 8.23364C18.6509 7.47951 18.0395 6.86816 17.2854 6.86816C16.5313 6.86816 15.9199 7.47951 15.9199 8.23364C15.9199 8.98778 16.5313 9.59912 17.2854 9.59912Z" fill="#6DDB6D"/>
<path fill-rule="evenodd" clip-rule="evenodd" d="M12.9541 4.58423C12.9541 4.03194 13.4018 3.58423 13.9541 3.58423H20.6166C21.1689 3.58423 21.6166 4.03194 21.6166 4.58423V19.416C21.6166 19.9683 21.1689 20.416 20.6166 20.416H14.1757C14.0992 20.4347 14.0193 20.4446 13.937 20.4446H7.68361C7.24826 20.4446 6.86293 20.163 6.73079 19.7482L2.4715 6.378C2.37465 6.07396 2.4287 5.74196 2.617 5.48435C2.8053 5.22674 3.10523 5.07446 3.42432 5.07446H11.1877C11.2498 5.07446 11.3106 5.08012 11.3695 5.09096C11.8756 4.87867 12.4077 4.72873 12.9541 4.64602V4.58423ZM12.9541 17.8566C11.5524 17.6445 10.2448 16.9899 9.23012 15.9752C7.97728 14.7223 7.27344 13.0231 7.27344 11.2513C7.27344 9.72568 7.7953 8.25384 8.74018 7.07446H4.79241L8.41456 18.4446H12.9541V17.8566ZM14.9541 5.58423V18.416H19.6166V5.58423H14.9541ZM10.6443 7.9417C11.2825 7.30356 12.0859 6.86872 12.954 6.67886V8.1263C12.4606 8.28419 12.0069 8.55814 11.6339 8.93122C11.0185 9.54655 10.6729 10.3811 10.6729 11.2513C10.6729 12.1215 11.0185 12.9561 11.6339 13.5714C12.0069 13.9445 12.4606 14.2184 12.954 14.3763V15.8238C12.0859 15.6339 11.2825 15.1991 10.6443 14.561C9.76656 13.6832 9.27344 12.4927 9.27344 11.2513C9.27344 10.01 9.76656 8.81947 10.6443 7.9417ZM12.9539 10.4506C12.7729 10.6767 12.6729 10.9588 12.6729 11.2513C12.6729 11.5438 12.7729 11.8259 12.9539 12.052V10.4506Z" fill="#6DDB6D"/>
</svg>
