<svg width="24" height="24" viewBox="0 0 24 24" fill="none" xmlns="http://www.w3.org/2000/svg">
<path fill-rule="evenodd" clip-rule="evenodd" d="M9.18774 11.9999C9.18774 10.1736 10.6682 8.69312 12.4945 8.69312C14.3208 8.69312 15.8013 10.1736 15.8013 11.9999C15.8013 13.8262 14.3208 15.3067 12.4945 15.3067C10.6682 15.3067 9.18774 13.8262 9.18774 11.9999ZM12.4945 10.6931C11.7728 10.6931 11.1877 11.2782 11.1877 11.9999C11.1877 12.7216 11.7728 13.3067 12.4945 13.3067C13.2163 13.3067 13.8013 12.7216 13.8013 11.9999C13.8013 11.2782 13.2163 10.6931 12.4945 10.6931Z" fill="#6DDB6D"/>
<path d="M12.4946 5.2395C11.9423 5.2395 11.4946 5.68722 11.4946 6.2395C11.4946 6.79179 11.9423 7.2395 12.4946 7.2395C13.1198 7.2395 13.7388 7.36264 14.3164 7.60188C14.894 7.84112 15.4188 8.19178 15.8609 8.63384C16.3029 9.0759 16.6536 9.6007 16.8928 10.1783C17.1321 10.7559 17.2552 11.3749 17.2552 12.0001C17.2552 12.5523 17.7029 13.0001 18.2552 13.0001C18.8075 13.0001 19.2552 12.5523 19.2552 12.0001C19.2552 11.1123 19.0803 10.2331 18.7406 9.41291C18.4008 8.59268 17.9028 7.8474 17.2751 7.21962C16.6473 6.59185 15.902 6.09387 15.0818 5.75412C14.2616 5.41437 13.3824 5.2395 12.4946 5.2395Z" fill="#6DDB6D"/>
<path fill-rule="evenodd" clip-rule="evenodd" d="M2.37622 12C2.37622 6.41176 6.90639 1.88159 12.4946 1.88159C18.0829 1.88159 22.613 6.41176 22.613 12C22.613 17.5882 18.0829 22.1184 12.4946 22.1184C6.90639 22.1184 2.37622 17.5882 2.37622 12ZM12.4946 3.88159C8.01096 3.88159 4.37622 7.51633 4.37622 12C4.37622 16.4837 8.01096 20.1184 12.4946 20.1184C16.9783 20.1184 20.613 16.4837 20.613 12C20.613 7.51633 16.9783 3.88159 12.4946 3.88159Z" fill="#6DDB6D"/>
</svg>
