<svg width="25" height="24" viewBox="0 0 25 24" fill="none" xmlns="http://www.w3.org/2000/svg">
<path fill-rule="evenodd" clip-rule="evenodd" d="M5.02051 12H22.0205C22.2857 12 22.5401 12.1053 22.7276 12.2929C22.9152 12.4804 23.0205 12.7348 23.0205 13C23.0205 13.2652 22.9152 13.5196 22.7276 13.7071C22.5401 13.8946 22.2857 14 22.0205 14H21.0205V17C21.0186 17.6184 20.8253 18.221 20.4672 18.7252C20.1091 19.2293 19.6038 19.6103 19.0205 19.8157V21C19.0205 21.2652 18.9152 21.5196 18.7276 21.7071C18.5401 21.8946 18.2857 22 18.0205 22C17.7553 22 17.5009 21.8946 17.3134 21.7071C17.1259 21.5196 17.0205 21.2652 17.0205 21V20H7.02051V21C7.02051 21.2652 6.91515 21.5196 6.72761 21.7071C6.54008 21.8946 6.28572 22 6.02051 22C5.75529 22 5.50094 21.8946 5.3134 21.7071C5.12586 21.5196 5.02051 21.2652 5.02051 21V19.8157C4.43725 19.6102 3.93188 19.2293 3.57378 18.7251C3.21568 18.221 3.02241 17.6184 3.02051 17V14H2.02051C1.75529 14 1.50094 13.8946 1.3134 13.7071C1.12586 13.5196 1.02051 13.2652 1.02051 13C1.02051 12.7348 1.12586 12.4804 1.3134 12.2929C1.50094 12.1053 1.75529 12 2.02051 12H3.02051V6.41015C3.01914 5.75975 3.17669 5.11887 3.47945 4.54324C3.78222 3.96761 4.22103 3.47466 4.75772 3.10726C5.29442 2.73987 5.91274 2.50916 6.55892 2.43519C7.2051 2.36122 7.85956 2.44624 8.4654 2.68285C9.13733 2.19067 9.96298 1.95472 10.7935 2.01752C11.6241 2.08032 12.4048 2.43775 12.9951 3.02538L14.0557 4.08593C14.1485 4.17876 14.2222 4.28898 14.2725 4.4103C14.3228 4.53161 14.3486 4.66164 14.3486 4.79296C14.3486 4.92428 14.3228 5.05431 14.2725 5.17562C14.2222 5.29694 14.1485 5.40716 14.0557 5.49999L10.5205 9.03515C10.4277 9.12803 10.3175 9.2017 10.1961 9.25197C10.0748 9.30224 9.94479 9.32811 9.81348 9.32811C9.68216 9.32811 9.55213 9.30224 9.43082 9.25197C9.3095 9.2017 9.19928 9.12803 9.10645 9.03515L8.04586 7.9746C7.59171 7.51721 7.27306 6.94302 7.1252 6.31565C6.97734 5.68827 7.00605 5.03222 7.20815 4.42016C6.81109 4.38071 6.41132 4.46124 6.06051 4.65136C5.74326 4.82182 5.47866 5.07579 5.29535 5.38579C5.11204 5.69579 5.017 6.05002 5.02051 6.41015V12ZM10.5205 4.00097C10.1229 4.00097 9.74149 4.15865 9.45996 4.43944C9.17903 4.7209 9.02125 5.10233 9.02125 5.5C9.02126 5.89767 9.17905 6.27909 9.45999 6.56054L9.81351 6.91405L11.9346 4.79296L11.5811 4.43944C11.2995 4.15865 10.9181 4.00097 10.5205 4.00097ZM18.7274 17.7069C18.9149 17.5194 19.0203 17.2652 19.0205 17V14H5.02051V17C5.02069 17.2652 5.1261 17.5194 5.3136 17.7069C5.5011 17.8944 5.75535 17.9998 6.02051 18H18.0205C18.2857 17.9998 18.5399 17.8944 18.7274 17.7069ZM16.8401 3.69974C16.3511 3.44305 15.7466 3.63138 15.4899 4.12039C15.2332 4.6094 15.4216 5.2139 15.9106 5.47059C16.1273 5.58436 16.394 5.88484 16.6447 6.3743C16.8818 6.83722 17.0334 7.3297 17.0955 7.619C17.1726 7.9779 17.4402 8.26571 17.7925 8.36876C18.1448 8.47182 18.5253 8.37357 18.7836 8.11279C18.9772 7.91738 19.3419 7.62522 19.747 7.43435C20.1688 7.23555 20.4619 7.22393 20.6382 7.29156C21.1538 7.48938 21.7322 7.23173 21.93 6.71609C22.1278 6.20044 21.8702 5.62207 21.3545 5.42426C20.44 5.07342 19.5314 5.32498 18.8944 5.62516C18.7867 5.67589 18.6818 5.73028 18.5803 5.7872C18.5319 5.67916 18.4801 5.57058 18.4248 5.46264C18.1115 4.85082 17.6073 4.10243 16.8401 3.69974Z" fill="#6DDB6D"/>
</svg>
