<svg width="24" height="24" viewBox="0 0 24 24" fill="none" xmlns="http://www.w3.org/2000/svg">
<path fill-rule="evenodd" clip-rule="evenodd" d="M20.2249 5.34987C20.2249 6.92987 18.944 8.21072 17.364 8.21072C15.784 8.21072 14.5032 6.92987 14.5032 5.34987C14.5032 3.76986 15.784 2.48901 17.364 2.48901C18.944 2.48901 20.2249 3.76986 20.2249 5.34987ZM18.2249 5.34987C18.2249 5.82531 17.8395 6.21072 17.364 6.21072C16.8886 6.21072 16.5032 5.82531 16.5032 5.34987C16.5032 4.87443 16.8886 4.48901 17.364 4.48901C17.8395 4.48901 18.2249 4.87443 18.2249 5.34987Z" fill="#6DDB6D"/>
<path fill-rule="evenodd" clip-rule="evenodd" d="M8.57986 8.64552C8.57986 10.2255 7.29902 11.5064 5.71901 11.5064C4.139 11.5064 2.85815 10.2255 2.85815 8.64552C2.85815 7.06552 4.139 5.78467 5.71901 5.78467C7.29902 5.78467 8.57986 7.06552 8.57986 8.64552ZM6.57986 8.64552C6.57986 9.12096 6.19445 9.50638 5.71901 9.50638C5.24357 9.50638 4.85815 9.12096 4.85815 8.64552C4.85815 8.17009 5.24357 7.78467 5.71901 7.78467C6.19445 7.78467 6.57986 8.17009 6.57986 8.64552Z" fill="#6DDB6D"/>
<path fill-rule="evenodd" clip-rule="evenodd" d="M11.8648 15.5669C13.4448 15.5669 14.7256 14.2861 14.7256 12.7061C14.7256 11.1261 13.4448 9.84521 11.8648 9.84521C10.2848 9.84521 9.00391 11.1261 9.00391 12.7061C9.00391 14.2861 10.2848 15.5669 11.8648 15.5669ZM11.8648 13.5669C12.3402 13.5669 12.7256 13.1815 12.7256 12.7061C12.7256 12.2306 12.3402 11.8452 11.8648 11.8452C11.3893 11.8452 11.0039 12.2306 11.0039 12.7061C11.0039 13.1815 11.3893 13.5669 11.8648 13.5669Z" fill="#6DDB6D"/>
<path d="M10.0039 16.168C8.89934 16.168 8.00391 17.0634 8.00391 18.168V20.3354C8.00391 20.8877 8.45162 21.3354 9.00391 21.3354C9.55619 21.3354 10.0039 20.8877 10.0039 20.3354V18.168L13.7256 18.168V20.3354C13.7256 20.8877 14.1733 21.3354 14.7256 21.3354C15.2779 21.3354 15.7256 20.8877 15.7256 20.3354V18.168C15.7256 17.0634 14.8302 16.168 13.7256 16.168H10.0039Z" fill="#6DDB6D"/>
<path d="M14.7756 9.84521C14.7756 9.29293 15.2233 8.84521 15.7756 8.84521H20.467C21.5716 8.84521 22.467 9.74065 22.467 10.8452V20.3354C22.467 20.8877 22.0193 21.3354 21.467 21.3354C20.9148 21.3354 20.467 20.8877 20.467 20.3354V10.8452H15.7756C15.2233 10.8452 14.7756 10.3975 14.7756 9.84521Z" fill="#6DDB6D"/>
<path d="M3.53296 12.0127C2.42839 12.0127 1.53296 12.9081 1.53296 14.0127V20.3354C1.53296 20.8877 1.98067 21.3354 2.53296 21.3354C3.08524 21.3354 3.53296 20.8877 3.53296 20.3354V14.0127H7.07861C7.6309 14.0127 8.07861 13.565 8.07861 13.0127C8.07861 12.4604 7.6309 12.0127 7.07861 12.0127H3.53296Z" fill="#6DDB6D"/>
</svg>
