<svg width="25" height="24" viewBox="0 0 25 24" fill="none" xmlns="http://www.w3.org/2000/svg">
<path fill-rule="evenodd" clip-rule="evenodd" d="M11.0681 2.76459C11.3869 2.18725 11.9651 1.9629 12.4817 1.87954C13.5096 1.71366 14.7653 2.00602 15.7851 2.55852C16.8002 3.10843 17.8343 4.05926 18.0527 5.41282C18.2711 6.76639 17.5886 7.99424 16.7981 8.83552C16.3025 9.3629 15.688 9.82302 15.0461 10.1348C15.5432 10.7738 15.8393 11.577 15.8393 12.4493C15.8393 13.1215 15.6635 13.7526 15.3553 14.2993C15.4864 14.3463 15.6166 14.3954 15.7409 14.4424C15.8049 14.4665 15.8673 14.4901 15.9274 14.5125C16.2998 14.651 16.668 14.7781 17.0517 14.8617C17.4354 14.9453 17.8231 14.9829 18.2194 15.0118C18.2832 15.0165 18.3497 15.021 18.4179 15.0256C18.7368 15.0474 19.0932 15.0717 19.3941 15.124C19.7403 15.1842 20.2873 15.3194 20.6668 15.7776C21.0874 16.2855 21.0847 16.9057 20.9733 17.417C20.7517 18.4344 20.0202 19.4961 19.133 20.2431C18.2498 20.9866 16.9866 21.6012 15.647 21.3093C14.3073 21.0175 13.4143 19.9331 12.9205 18.8896C12.5268 18.0576 12.3048 17.0862 12.3407 16.2121C12.2502 16.2186 12.1588 16.2219 12.0667 16.2219C10.577 16.2219 9.28892 15.3585 8.67569 14.1048C8.63175 14.1406 8.5882 14.1759 8.5455 14.2105C8.49233 14.2536 8.44048 14.2956 8.39084 14.3362C8.08336 14.5878 7.78782 14.8416 7.52207 15.1307C7.25632 15.4198 7.02825 15.7356 6.80334 16.0631C6.76716 16.1157 6.72979 16.1707 6.69147 16.2271C6.51177 16.4915 6.31077 16.7873 6.11374 17.0207C5.88712 17.2893 5.49434 17.6933 4.90735 17.7897C4.25653 17.8966 3.72244 17.5814 3.3372 17.2272C2.57067 16.5226 2.02306 15.3554 1.82578 14.2124C1.62942 13.0748 1.73613 11.6741 2.66404 10.6647C3.59195 9.65533 4.97879 9.43141 6.12886 9.53157C7.0984 9.61601 8.10566 9.9448 8.85757 10.4647C9.45529 9.50025 10.4757 8.82523 11.6601 8.69831C11.6353 8.42318 11.6311 8.11627 11.6274 7.83759C11.6264 7.76916 11.6255 7.70234 11.6244 7.63821C11.6171 7.24097 11.6007 6.85177 11.5381 6.46411C11.4756 6.07645 11.3687 5.70186 11.2507 5.32249C11.2316 5.26123 11.2115 5.19761 11.1908 5.13236C11.0944 4.82759 10.9867 4.48732 10.9253 4.18809C10.8547 3.84388 10.7805 3.28531 11.0681 2.76459ZM13.1604 4.72839C13.2847 5.12808 13.4266 5.61288 13.5126 6.14549C13.5985 6.67809 13.6163 7.18291 13.624 7.60143C13.6257 7.69341 13.627 7.77869 13.6282 7.85822C13.6323 8.13912 13.6354 8.34811 13.6525 8.52605C14.1326 8.41641 14.8008 8.04044 15.3406 7.46596C15.9208 6.84848 16.1568 6.21842 16.0783 5.73145C15.9997 5.24448 15.5774 4.72065 14.8324 4.31702C14.1393 3.94151 13.3868 3.79481 12.8966 3.84175C12.9363 4.01603 12.9991 4.21538 13.0835 4.48334L13.0844 4.48604C13.108 4.56111 13.1334 4.64162 13.1604 4.72839ZM12.0667 10.6767C11.0876 10.6767 10.294 11.4703 10.294 12.4493C10.294 13.4283 11.0876 14.2219 12.0667 14.2219C13.0457 14.2219 13.8393 13.4283 13.8393 12.4493C13.8393 11.4703 13.0457 10.6767 12.0667 10.6767ZM16.626 16.8159C17.1531 16.9307 17.6562 16.976 18.0737 17.0065C18.1654 17.0132 18.2505 17.0191 18.3298 17.0246C18.6101 17.0441 18.8186 17.0586 18.9954 17.0853C18.8597 17.5587 18.4479 18.2054 17.8449 18.7131C17.1967 19.2588 16.5547 19.4602 16.0727 19.3552C15.5908 19.2502 15.0907 18.8 14.7283 18.0341C14.3911 17.3216 14.2856 16.5621 14.3592 16.0752C14.5311 16.1244 14.7267 16.198 14.9896 16.2969C15.064 16.3248 15.144 16.3549 15.2302 16.387C15.6225 16.5329 16.0988 16.701 16.626 16.8159ZM5.15467 14.9309C5.39163 14.5858 5.68457 14.1743 6.04969 13.7771C6.41481 13.3799 6.80028 13.0535 7.12422 12.7884C7.19542 12.7301 7.26162 12.6764 7.32335 12.6262C7.5414 12.4491 7.70362 12.3173 7.8328 12.1937C7.44956 11.8845 6.74066 11.5924 5.95533 11.524C5.11121 11.4505 4.47025 11.6551 4.13642 12.0183C3.80259 12.3814 3.65251 13.0373 3.79663 13.8722C3.93072 14.6491 4.2813 15.3309 4.62157 15.6869C4.73384 15.5478 4.85153 15.3751 5.00972 15.143L5.01046 15.1419C5.0549 15.0767 5.10306 15.006 5.15467 14.9309ZM4.79405 15.8368C4.79407 15.8369 4.79271 15.8362 4.78994 15.8346L4.7932 15.8362L4.79405 15.8368Z" fill="#6DDB6D"/>
<path d="M8.61012 5.36402C9.1611 5.32605 9.57696 4.8486 9.53899 4.29763C9.50101 3.74665 9.02357 3.33078 8.47259 3.36876C7.04654 3.46705 5.95373 4.16589 5.19162 4.94137C4.43882 5.70739 3.9603 6.59371 3.73955 7.21582C3.55486 7.73631 3.82708 8.30797 4.34757 8.49266C4.86806 8.67735 5.43972 8.40513 5.62441 7.88464C5.75743 7.50974 6.0893 6.8813 6.61809 6.34322C7.13758 5.81461 7.79756 5.42003 8.61012 5.36402Z" fill="#6DDB6D"/>
<path d="M20.8257 14.4897C20.2963 14.3325 19.9945 13.7759 20.1517 13.2464C20.3974 12.4188 20.3121 11.4681 20.0446 10.6117C19.7671 9.72316 19.3575 9.13231 19.1583 8.96509C18.7354 8.60997 18.6803 7.9792 19.0355 7.55622C19.3906 7.13325 20.0214 7.07824 20.4443 7.43336C21.0554 7.94638 21.6196 8.94588 21.9537 10.0154C22.2978 11.1171 22.4619 12.4921 22.069 13.8157C21.9118 14.3451 21.3552 14.6469 20.8257 14.4897Z" fill="#6DDB6D"/>
<path d="M7.41543 18.9199C7.08654 18.4763 6.46025 18.3832 6.01657 18.7121C5.57289 19.041 5.47983 19.6673 5.80872 20.1109C6.65994 21.2593 7.83751 21.8033 8.90143 22.0274C9.95238 22.2488 10.9569 22.1743 11.5999 22.0251C12.1379 21.9002 12.4727 21.3628 12.3479 20.8249C12.223 20.2869 11.6856 19.952 11.1476 20.0769C10.7601 20.1668 10.0519 20.2259 9.31371 20.0704C8.58848 19.9176 7.90045 19.5743 7.41543 18.9199Z" fill="#6DDB6D"/>
</svg>
