<svg width="24" height="24" viewBox="0 0 24 24" fill="none" xmlns="http://www.w3.org/2000/svg">
<path fill-rule="evenodd" clip-rule="evenodd" d="M15.2766 3.9969C15.5631 4.10444 15.7846 4.33725 15.8777 4.62876L17.7038 10.3441C17.7946 10.6283 17.7538 10.9381 17.5925 11.1891C17.4313 11.44 17.1664 11.6059 16.8702 11.6414L14.5675 11.9173C14.4047 12.0392 14.174 12.2074 13.8896 12.4026C13.3111 12.7996 12.5002 13.3158 11.5801 13.7822C11.5441 13.8005 11.5078 13.8187 11.4713 13.8369L12.388 16.7061C12.568 17.2692 12.5579 17.8324 12.4028 18.3402C13.8665 19.1603 14.9148 18.8083 15.3369 18.3856C15.8129 17.9089 15.9624 17.3556 16.1665 16.6008L16.2008 16.474C16.399 15.7444 16.725 14.5712 18.0675 14.1423C18.5936 13.9742 19.1564 14.2644 19.3244 14.7905C19.4925 15.3166 19.2023 15.8793 18.6762 16.0474C18.4558 16.1179 18.3431 16.2173 18.1308 16.9984C18.1154 17.0552 18.0996 17.1152 18.0831 17.1779C17.8984 17.8784 17.6219 18.9277 16.7522 19.7987C15.4611 21.0917 13.2812 21.226 11.1521 19.9221C10.6792 20.1989 10.114 20.3388 9.50591 20.2805C8.41086 20.1754 7.48377 19.4279 7.14896 18.38L6.01593 14.8339C5.75555 14.7607 5.49903 14.6615 5.24948 14.532C4.29411 14.0362 3.47412 13.2077 3.06365 12.1422C2.64445 11.054 2.68157 9.79065 3.33014 8.52493C3.84195 7.5261 4.79377 6.87928 5.75197 6.45035C6.7256 6.01451 7.83589 5.74529 8.8512 5.57522C9.87366 5.40394 10.8419 5.32648 11.5512 5.29143C11.907 5.27385 12.2006 5.26681 12.4069 5.26418L12.4434 5.26375L14.4081 4.07711C14.6701 3.91891 14.9901 3.88935 15.2766 3.9969ZM13.9181 6.70956L14.9247 9.86016L15.4302 9.79959L14.358 6.44385L13.9181 6.70956ZM5.11007 9.43699C5.32292 9.02159 5.79664 8.62159 6.56912 8.2758C7.32616 7.93692 8.25169 7.70351 9.18162 7.54773C10.1044 7.39316 10.9908 7.32156 11.6499 7.28899C11.7753 7.28279 11.8922 7.27803 11.9989 7.27438L13.0461 10.5519C12.9589 10.6141 12.8624 10.6818 12.7577 10.7537C12.2268 11.1181 11.4939 11.5837 10.6759 11.9983C9.85184 12.416 8.97918 12.7625 8.1632 12.9176C7.34209 13.0736 6.67483 13.0184 6.17075 12.7568C5.59373 12.4573 5.14384 11.9784 4.92996 11.4232C4.72481 10.8907 4.70888 10.2199 5.11007 9.43699ZM9.61673 14.6038C9.2614 14.7179 8.89958 14.8134 8.53655 14.8824C8.40949 14.9066 8.28088 14.9277 8.15114 14.9453L9.05408 17.7713C9.14539 18.0571 9.39823 18.261 9.69688 18.2896C10.2329 18.341 10.6468 17.8277 10.4829 17.3148L9.61673 14.6038Z" fill="#6DDB6D"/>
<path d="M17.3708 4.78604C16.8701 5.01892 16.6529 5.61368 16.8858 6.11446C17.1186 6.61524 17.7134 6.83242 18.2142 6.59955L19.5459 5.98027C20.0467 5.74739 20.2638 5.15263 20.031 4.65185C19.7981 4.15106 19.2033 3.93388 18.7025 4.16676L17.3708 4.78604Z" fill="#6DDB6D"/>
<path d="M21.0644 8.53522C21.1101 9.08561 20.701 9.56883 20.1506 9.61452L18.8441 9.72297C18.2938 9.76866 17.8105 9.35951 17.7648 8.80912C17.7192 8.25873 18.1283 7.77551 18.6787 7.72982L19.9851 7.62137C20.5355 7.57569 21.0187 7.98483 21.0644 8.53522Z" fill="#6DDB6D"/>
</svg>
