<svg width="24" height="24" viewBox="0 0 24 24" fill="none" xmlns="http://www.w3.org/2000/svg">
<path d="M11.1635 15.0236V6.00792C11.1635 5.76343 11.0664 5.52896 10.8935 5.35608C10.7207 5.1832 10.4862 5.08608 10.2417 5.08608C9.99721 5.08608 9.76273 5.1832 9.58985 5.35608C9.41697 5.52896 9.31985 5.76343 9.31985 6.00792V15.0236C9.0412 15.1844 8.8095 15.4154 8.64778 15.6936C8.48606 15.9718 8.39995 16.2874 8.398 16.6091C8.398 17.0981 8.59225 17.5671 8.93801 17.9128C9.28377 18.2586 9.75272 18.4528 10.2417 18.4528C10.7307 18.4528 11.1996 18.2586 11.5454 17.9128C11.8911 17.5671 12.0854 17.0981 12.0854 16.6091C12.0834 16.2874 11.9973 15.9718 11.8356 15.6936C11.6739 15.4154 11.4422 15.1844 11.1635 15.0236ZM19.4601 3.24239H18.9992V2.78146C18.9992 2.53698 18.9021 2.3025 18.7292 2.12962C18.5563 1.95674 18.3219 1.85962 18.0774 1.85962C17.8329 1.85962 17.5984 1.95674 17.4255 2.12962C17.2527 2.3025 17.1555 2.53698 17.1555 2.78146V3.24239H16.6946C16.4501 3.24239 16.2156 3.33951 16.0428 3.51239C15.8699 3.68527 15.7728 3.91974 15.7728 4.16423C15.7728 4.40872 15.8699 4.64319 16.0428 4.81607C16.2156 4.98895 16.4501 5.08608 16.6946 5.08608H17.1555V5.547C17.1555 5.79149 17.2527 6.02596 17.4255 6.19884C17.5984 6.37172 17.8329 6.46884 18.0774 6.46884C18.3219 6.46884 18.5563 6.37172 18.7292 6.19884C18.9021 6.02596 18.9992 5.79149 18.9992 5.547V5.08608H19.4601C19.7046 5.08608 19.9391 4.98895 20.112 4.81607C20.2849 4.64319 20.382 4.40872 20.382 4.16423C20.382 3.91974 20.2849 3.68527 20.112 3.51239C19.9391 3.33951 19.7046 3.24239 19.4601 3.24239V3.24239ZM14.39 6.00792C14.39 4.90772 13.9529 3.85259 13.175 3.07463C12.397 2.29667 11.3419 1.85962 10.2417 1.85962C9.1415 1.85962 8.08636 2.29667 7.3084 3.07463C6.53044 3.85259 6.09339 4.90772 6.09339 6.00792V12.9218C5.45625 13.6438 5.01864 14.5196 4.82384 15.4626C4.62904 16.4056 4.6838 17.3831 4.98271 18.2985C5.28162 19.2138 5.81432 20.0353 6.52811 20.6816C7.24191 21.3279 8.11207 21.7767 9.05251 21.9835C9.44017 22.072 9.83517 22.1244 10.2325 22.1402C11.3032 22.147 12.3528 21.8428 13.254 21.2647C14.1553 20.6865 14.8693 19.8592 15.3095 18.8832C15.7497 17.9071 15.8971 16.8243 15.7339 15.7661C15.5707 14.7079 15.1038 13.7198 14.39 12.9218V6.00792ZM12.5463 19.4761C12.0608 19.8708 11.4828 20.1355 10.8667 20.2453C10.2506 20.355 9.61674 20.3061 9.02477 20.1033C8.43279 19.9004 7.90218 19.5502 7.48289 19.0857C7.0636 18.6212 6.76942 18.0576 6.62806 17.448C6.48564 16.8318 6.50411 16.1893 6.68169 15.5823C6.85928 14.9753 7.19 14.4242 7.64209 13.9819C7.72919 13.8965 7.79849 13.7947 7.84596 13.6823C7.89343 13.57 7.91814 13.4493 7.91864 13.3274V6.00792C7.91864 5.3967 8.16145 4.81051 8.59365 4.37831C9.02585 3.94612 9.61203 3.70331 10.2233 3.70331C10.8345 3.70331 11.4207 3.94612 11.8529 4.37831C12.2851 4.81051 12.5279 5.3967 12.5279 6.00792V13.3274C12.5284 13.4493 12.5531 13.57 12.6006 13.6823C12.648 13.7947 12.7173 13.8965 12.8044 13.9819C13.1812 14.3459 13.4761 14.786 13.6695 15.273C13.8629 15.7599 13.9503 16.2824 13.9258 16.8058C13.9014 17.3291 13.7657 17.8413 13.5279 18.3081C13.29 18.7749 12.9554 19.1856 12.5463 19.513V19.4761Z" fill="#6DDB6D"/>
</svg>
