<svg width="25" height="24" viewBox="0 0 25 24" fill="none" xmlns="http://www.w3.org/2000/svg">
<path d="M22.6008 2.06205C22.5557 1.89077 22.4659 1.73453 22.3406 1.60929C22.2154 1.48404 22.0592 1.39428 21.8879 1.34916C19.8365 0.816345 17.6764 0.873732 15.6562 1.51471C13.636 2.15569 11.8379 3.35419 10.4689 4.97222L9.35401 6.29605L6.74921 5.66757C6.11595 5.4468 5.4242 5.46262 4.80169 5.71212C4.17919 5.96161 3.66799 6.42793 3.36249 7.02495L1.1623 10.9248C1.08521 11.0614 1.04134 11.2143 1.03423 11.371C1.02712 11.5277 1.05698 11.6838 1.12138 11.8268C1.18579 11.9699 1.28294 12.0957 1.40498 12.1943C1.52703 12.2928 1.67054 12.3612 1.82392 12.394L4.89667 13.0527C4.63638 13.8451 4.45052 14.66 4.3415 15.4868C4.32174 15.6387 4.33713 15.7932 4.38648 15.9382C4.43584 16.0832 4.51784 16.2149 4.62616 16.3232L7.72626 19.4233C7.81908 19.5162 7.9293 19.5899 8.05061 19.6402C8.17192 19.6905 8.30195 19.7163 8.43326 19.7163C8.46207 19.7163 8.49088 19.7149 8.52018 19.7124C9.36552 19.6364 10.2006 19.4722 11.0118 19.2224L11.6554 22.2256C11.6883 22.379 11.7568 22.5224 11.8554 22.6444C11.9539 22.7664 12.0798 22.8635 12.2228 22.9279C12.3658 22.9923 12.5219 23.0222 12.6786 23.0151C12.8352 23.0081 12.9881 22.9642 13.1247 22.8872L17.0299 20.6846C17.5796 20.3506 18.0089 19.8507 18.2561 19.2569C18.5032 18.6631 18.5553 18.0062 18.4049 17.3809L17.7362 14.6219L18.9733 13.4844C20.5974 12.1193 21.8005 10.3211 22.4427 8.299C23.0848 6.27692 23.1397 4.11407 22.6008 2.06205V2.06205ZM3.57197 10.7232L5.12812 7.96343C5.22478 7.77607 5.38945 7.63279 5.58838 7.56297C5.7873 7.49315 6.0054 7.50208 6.19794 7.58794L7.91535 8.00414L7.26535 8.77593C6.64911 9.5145 6.11612 10.3187 5.67603 11.174L3.57197 10.7232ZM16.0422 18.9454L13.3264 20.477L12.8969 18.4724C13.7675 18.0382 14.5786 17.4938 15.3103 16.8525L16.0538 16.1689L16.4572 17.8335C16.5095 18.039 16.4978 18.2557 16.4237 18.4544C16.3495 18.6531 16.2164 18.8244 16.0422 18.9454V18.9454ZM17.6564 11.98L13.9719 15.3663C12.5134 16.6276 10.7145 17.4293 8.80146 17.6705L6.39716 15.2662C6.72008 13.3482 7.54888 11.551 8.79804 10.0602L10.4764 8.0675C10.5043 8.03824 10.5304 8.00726 10.5545 7.97473L11.9895 6.27105C13.0504 5.01794 14.4249 4.06885 15.9727 3.52069C17.5204 2.97253 19.1859 2.84493 20.799 3.15093C21.1124 4.76914 20.9862 6.44179 20.4335 7.99465C19.8808 9.5475 18.9218 10.9238 17.6564 11.98V11.98ZM16.7334 5.81629C16.4368 5.81629 16.1468 5.90426 15.9001 6.06908C15.6534 6.2339 15.4612 6.46817 15.3476 6.74226C15.2341 7.01635 15.2044 7.31795 15.2623 7.60892C15.3201 7.89989 15.463 8.16717 15.6728 8.37695C15.8826 8.58672 16.1498 8.72959 16.4408 8.78746C16.7318 8.84534 17.0334 8.81564 17.3075 8.70211C17.5816 8.58857 17.8158 8.39632 17.9806 8.14964C18.1455 7.90297 18.2334 7.61296 18.2334 7.31629C18.2335 7.1193 18.1947 6.92423 18.1193 6.74223C18.0439 6.56024 17.9334 6.39487 17.7941 6.25558C17.6548 6.11628 17.4895 6.00579 17.3075 5.93042C17.1255 5.85504 16.9304 5.81625 16.7334 5.81627L16.7334 5.81629Z" fill="#6DDB6D"/>
</svg>
