<svg width="24" height="24" viewBox="0 0 24 24" fill="none" xmlns="http://www.w3.org/2000/svg">
<path fill-rule="evenodd" clip-rule="evenodd" d="M21.5787 4.85286C21.5517 4.58329 21.4166 4.3362 21.2041 4.16812C20.9916 4.00004 20.72 3.92536 20.4515 3.96117C16.8718 4.43851 13.372 6.91244 11.5249 10.7523C9.30729 8.01642 6.03091 7.13009 3.01267 7.96504C2.57935 8.08492 2.2793 8.47924 2.2793 8.92884C2.2793 11.2684 2.83456 13.8953 4.16454 16.0214C5.51507 18.1804 7.67232 19.8213 10.7634 20.0447C10.8758 20.0529 10.9852 20.0421 11.0884 20.0151C11.2198 20.0494 11.358 20.0568 11.4948 20.0355C16.2302 19.2975 18.9857 17.0376 20.4151 14.0816C21.807 11.2031 21.8737 7.80199 21.5787 4.85286ZM10.4583 13.9565C10.5206 13.6445 10.5928 13.3383 10.6744 13.0381C9.13724 10.3792 6.66074 9.37879 4.30409 9.7314C4.41657 11.5578 4.91482 13.4496 5.86012 14.9607C6.81754 16.4913 8.2255 17.63 10.2187 17.9675C10.1933 17.6109 10.1801 17.2592 10.1784 16.9128C10.0573 16.672 9.7655 16.2011 9.19913 15.5495C8.51855 14.7665 7.4799 13.767 5.97176 12.657C5.52696 12.3296 5.43177 11.7037 5.75914 11.2589C6.08651 10.8141 6.71248 10.7189 7.15728 11.0462C8.60867 12.1145 9.68443 13.1093 10.4583 13.9565ZM18.6145 13.2109C17.7064 15.0889 16.1037 16.6995 13.2827 17.5806L18.2975 10.8145C18.6263 10.3708 18.5332 9.74452 18.0895 9.41566C17.6458 9.08681 17.0195 9.17991 16.6907 9.62361L12.232 15.6395C12.6983 10.5435 16.1137 7.11467 19.6774 6.15306C19.8264 8.63324 19.6159 11.1401 18.6145 13.2109Z" fill="#6DDB6D"/>
</svg>
