<svg width="24" height="24" viewBox="0 0 24 24" fill="none" xmlns="http://www.w3.org/2000/svg">
<path fill-rule="evenodd" clip-rule="evenodd" d="M9.73975 1.66748C10.292 1.66748 10.7397 2.1152 10.7397 2.66748V6.31738H13.2607V2.66748C13.2607 2.1152 13.7084 1.66748 14.2607 1.66748C14.813 1.66748 15.2607 2.1152 15.2607 2.66748V6.31738H18.7527C19.305 6.31738 19.7527 6.7651 19.7527 7.31738V17.8895H19.9742C20.5265 17.8895 20.9742 18.3372 20.9742 18.8895V21.3325C20.9742 21.8848 20.5265 22.3325 19.9742 22.3325H4.02588C3.47359 22.3325 3.02588 21.8848 3.02588 21.3325V18.8895C3.02588 18.3372 3.47359 17.8895 4.02588 17.8895H4.24756V7.31738C4.24756 6.7651 4.69527 6.31738 5.24756 6.31738H8.73975V2.66748C8.73975 2.1152 9.18746 1.66748 9.73975 1.66748ZM9.73975 8.31741L9.73223 8.31738H9.15771V15.2487H9.3981C9.23547 14.8036 9.18775 14.3583 9.27398 13.9131C9.40393 13.242 9.80905 12.7557 10.1089 12.4333C10.2487 12.2831 10.3621 12.1689 10.4589 12.0716C10.6173 11.9123 10.7308 11.7981 10.8414 11.6444C10.9645 11.4735 10.9698 11.3955 10.9547 11.3087C10.8807 10.8849 11.0861 10.4612 11.4647 10.2568C11.8433 10.0524 12.3102 10.1131 12.624 10.4075C13.8074 11.5179 14.4765 12.539 14.692 13.5302C14.8341 14.1837 14.7653 14.7569 14.5965 15.2487H14.8425V8.31738H14.2682L14.2607 8.31741H9.73975ZM12.401 15.2487C12.4262 15.1532 12.4661 15.0599 12.5214 14.9718C12.7306 14.6391 12.8205 14.3361 12.7377 13.9551C12.6871 13.7226 12.5625 13.4167 12.2942 13.0303C12.1148 13.2441 11.9081 13.4535 11.7494 13.6143C11.6791 13.6855 11.6182 13.7472 11.5733 13.7955C11.3238 14.0637 11.2551 14.2022 11.2375 14.2933C11.2283 14.3408 11.2002 14.5255 11.4825 14.9516C11.5446 15.0453 11.5889 15.1457 11.6161 15.2487H12.401ZM7.15771 8.31738V16.2487C7.15771 16.801 7.60543 17.2487 8.15771 17.2487H15.8425C16.3948 17.2487 16.8425 16.801 16.8425 16.2487V8.31738H17.7527V17.8892H6.24756V8.31738H7.15771ZM5.02588 20.3325V19.8895H18.9742V20.3325H5.02588Z" fill="#6DDB6D"/>
</svg>
