<svg width="25" height="24" viewBox="0 0 25 24" fill="none" xmlns="http://www.w3.org/2000/svg">
<path d="M3.51371 5.25928C3.51371 4.70699 3.96143 4.25928 4.51371 4.25928H6.32467C6.87695 4.25928 7.32467 4.70699 7.32467 5.25928V17.7407H8.87341C9.42569 17.7407 9.87341 18.1884 9.87341 18.7407C9.87341 19.293 9.42569 19.7407 8.87341 19.7407H3.91016C3.35787 19.7407 2.91016 19.293 2.91016 18.7407C2.91016 18.1884 3.35787 17.7407 3.91016 17.7407H5.32467V6.25928H4.51371C3.96143 6.25928 3.51371 5.81156 3.51371 5.25928Z" fill="#6DDB6D"/>
<path d="M15.6534 5.25928C15.6534 4.70699 16.1011 4.25928 16.6534 4.25928H18.4643C19.0166 4.25928 19.4643 4.70699 19.4643 5.25928V17.7407H21.0131C21.5653 17.7407 22.0131 18.1884 22.0131 18.7407C22.0131 19.293 21.5653 19.7407 21.0131 19.7407H16.0498C15.4975 19.7407 15.0498 19.293 15.0498 18.7407C15.0498 18.1884 15.4975 17.7407 16.0498 17.7407H17.4643V6.25928H16.6534C16.1011 6.25928 15.6534 5.81156 15.6534 5.25928Z" fill="#6DDB6D"/>
<path d="M9.90835 11C9.35607 11 8.90835 11.4477 8.90835 12C8.90835 12.5523 9.35607 13 9.90835 13H11.2525V14.3442C11.2525 14.8965 11.7003 15.3442 12.2525 15.3442C12.8048 15.3442 13.2525 14.8965 13.2525 14.3442V13H14.5967C15.149 13 15.5967 12.5523 15.5967 12C15.5967 11.4477 15.149 11 14.5967 11H13.2525V9.65582C13.2525 9.10353 12.8048 8.65582 12.2525 8.65582C11.7003 8.65582 11.2525 9.10353 11.2525 9.65582V11H9.90835Z" fill="#6DDB6D"/>
</svg>
