<svg width="24" height="24" viewBox="0 0 24 24" fill="none" xmlns="http://www.w3.org/2000/svg">
<path d="M9.23405 12.7413C9.23405 13.2861 8.79242 13.7277 8.24764 13.7277C7.70286 13.7277 7.26123 13.2861 7.26123 12.7413C7.26123 12.1965 7.70286 11.7549 8.24764 11.7549C8.79242 11.7549 9.23405 12.1965 9.23405 12.7413Z" fill="#6DDB6D"/>
<path d="M11.2179 13.7277C11.7626 13.7277 12.2043 13.2861 12.2043 12.7413C12.2043 12.1965 11.7626 11.7549 11.2179 11.7549C10.6731 11.7549 10.2314 12.1965 10.2314 12.7413C10.2314 13.2861 10.6731 13.7277 11.2179 13.7277Z" fill="#6DDB6D"/>
<path fill-rule="evenodd" clip-rule="evenodd" d="M5.3999 4.51807C4.84762 4.51807 4.3999 4.96578 4.3999 5.51807V15.5279C4.3999 16.0802 4.84762 16.5279 5.3999 16.5279H19.4998C20.0521 16.5279 20.4998 16.0802 20.4998 15.5279V14.9546C20.4998 11.6409 17.8135 8.95459 14.4998 8.95459H6.3999V6.51807H15.6708C16.2231 6.51807 16.6708 6.07035 16.6708 5.51807C16.6708 4.96578 16.2231 4.51807 15.6708 4.51807H5.3999ZM6.3999 10.9546V14.5279H18.4773C18.2644 12.5194 16.5648 10.9546 14.4998 10.9546H6.3999Z" fill="#6DDB6D"/>
<path d="M4.26562 18.4822C4.26562 17.9299 4.71334 17.4822 5.26562 17.4822H19.3655C19.9178 17.4822 20.3655 17.9299 20.3655 18.4822C20.3655 19.0345 19.9178 19.4822 19.3655 19.4822H5.26562C4.71334 19.4822 4.26562 19.0345 4.26562 18.4822Z" fill="#6DDB6D"/>
</svg>
