<svg width="24" height="24" viewBox="0 0 24 24" fill="none" xmlns="http://www.w3.org/2000/svg">
<path fill-rule="evenodd" clip-rule="evenodd" d="M16.1606 20.3984C15.9797 20.6833 15.6631 20.8622 15.3164 20.8622H3.57471C3.02242 20.8622 2.57471 20.4145 2.57471 19.8622C2.57471 19.3099 3.02242 18.8622 3.57471 18.8622H4.47757C4.15536 18.5431 3.86046 18.1871 3.59615 17.8036C2.51051 16.228 1.87109 14.1062 1.87109 11.8108C1.87109 9.51539 2.51051 7.39357 3.59615 5.81804C4.67885 4.24677 6.27499 3.13818 8.15799 3.13818C8.60361 3.13818 8.98115 3.42966 9.11036 3.83236C9.85668 3.39335 10.694 3.13818 11.5974 3.13818C12.0871 3.13818 12.4946 3.49014 12.5807 3.95489C13.3759 3.44118 14.282 3.13818 15.2664 3.13818C17.0431 3.13818 18.5644 4.12512 19.64 5.55643L20.1924 4.09093C20.3871 3.57413 20.964 3.3131 21.4808 3.5079C21.9976 3.70269 22.2586 4.27954 22.0638 4.79633L20.8907 7.90873C21.318 9.09011 21.5533 10.4185 21.5533 11.8108C21.5533 14.1062 20.9139 16.228 19.8282 17.8036C18.9214 19.1195 17.6545 20.1109 16.1606 20.3984ZM3.87109 11.8108C3.87109 9.86874 4.41519 8.15425 5.24303 6.95284C5.89512 6.00649 6.68061 5.42776 7.48974 5.22258C7.3298 5.41205 7.17824 5.61103 7.0356 5.81804C5.94997 7.39357 5.31055 9.51539 5.31055 11.8108C5.31055 14.1062 5.94997 16.228 7.0356 17.8036C7.17824 18.0106 7.3298 18.2095 7.48975 18.399C6.68061 18.1938 5.89512 17.6151 5.24303 16.6687C4.41519 15.4673 3.87109 13.7529 3.87109 11.8108ZM19.5477 11.4716C19.5514 11.5838 19.5533 11.6969 19.5533 11.8108C19.5533 13.7529 19.0092 15.4673 18.1813 16.6687C17.872 17.1177 17.5326 17.4839 17.1749 17.7668L19.5477 11.4716ZM18.7419 7.93904C18.5752 7.58155 18.387 7.25136 18.1813 6.95284C17.3506 5.74717 16.3033 5.13818 15.2664 5.13818C14.2295 5.13818 13.1822 5.74717 12.3514 6.95284C11.5236 8.15425 10.9795 9.86874 10.9795 11.8108C10.9795 13.7529 11.5236 15.4673 12.3514 16.6687C13.0533 17.6874 13.9098 18.2801 14.784 18.4395L15.7785 15.8009C15.6145 15.8354 15.4436 15.8539 15.2663 15.8539C14.2642 15.8539 13.4655 15.2635 12.9601 14.53C12.4518 13.7922 12.1694 12.8278 12.1694 11.8108C12.1694 10.7939 12.4518 9.82944 12.9601 9.0917C13.4655 8.35822 14.2642 7.76782 15.2663 7.76782C16.2683 7.76782 17.067 8.35822 17.5724 9.0917C17.7418 9.33761 17.8862 9.6087 18.0033 9.89853L18.7419 7.93904ZM8.68248 6.95284C7.85464 8.15425 7.31055 9.86874 7.31055 11.8108C7.31055 13.7529 7.85464 15.4673 8.68248 16.6687C9.40873 17.7227 10.3005 18.3207 11.206 18.4545C11.0286 18.2485 10.8612 18.0309 10.7045 17.8036C9.61891 16.228 8.97949 14.1062 8.97949 11.8108C8.97949 9.51539 9.61891 7.39357 10.7045 5.81804C10.8612 5.59072 11.0286 5.37308 11.206 5.16708C10.3004 5.30088 9.40873 5.89887 8.68248 6.95284ZM14.607 10.2265C14.3565 10.5901 14.1694 11.1472 14.1694 11.8108C14.1694 12.4745 14.3565 13.0316 14.607 13.3952C14.8605 13.7631 15.1103 13.8539 15.2663 13.8539C15.4222 13.8539 15.672 13.7631 15.9255 13.3952C16.1761 13.0316 16.3631 12.4745 16.3631 11.8108C16.3631 11.1472 16.1761 10.5901 15.9255 10.2265C15.672 9.85862 15.4222 9.76782 15.2663 9.76782C15.1103 9.76782 14.8605 9.85862 14.607 10.2265Z" fill="#6DDB6D"/>
</svg>
