<svg width="24" height="24" viewBox="0 0 24 24" fill="none" xmlns="http://www.w3.org/2000/svg">
<path fill-rule="evenodd" clip-rule="evenodd" d="M20 4.40967V5.58967C20.5835 5.79598 21.089 6.17774 21.4471 6.6826C21.8051 7.18747 21.9983 7.79072 22 8.40967V10.4097C22 11.2053 21.6839 11.9684 21.1213 12.531C20.5587 13.0936 19.7956 13.4097 19 13.4097H15C14.2044 13.4097 13.4413 13.0936 12.8787 12.531C12.3161 11.9684 12 11.2053 12 10.4097V8.40967C12.0017 7.79072 12.1949 7.18747 12.5529 6.6826C12.911 6.17774 13.4165 5.79598 14 5.58967V4.40967C14 3.61402 14.3161 2.85096 14.8787 2.28835C15.4413 1.72574 16.2044 1.40967 17 1.40967C17.7956 1.40967 18.5587 1.72574 19.1213 2.28835C19.6839 2.85096 20 3.61402 20 4.40967ZM16.2929 3.70256C16.1054 3.8901 16 4.14445 16 4.40967V5.40967H18V4.40967C18 4.14445 17.8946 3.8901 17.7071 3.70256C17.5196 3.51502 17.2652 3.40967 17 3.40967C16.7348 3.40967 16.4804 3.51502 16.2929 3.70256ZM19.7071 11.1168C19.8946 10.9292 20 10.6749 20 10.4097V8.40967C20 8.14445 19.8946 7.8901 19.7071 7.70256C19.5196 7.51503 19.2652 7.40967 19 7.40967H15C14.7348 7.40967 14.4804 7.51503 14.2929 7.70256C14.1054 7.8901 14 8.14445 14 8.40967V10.4097C14 10.6749 14.1054 10.9292 14.2929 11.1168C14.4804 11.3043 14.7348 11.4097 15 11.4097H19C19.2652 11.4097 19.5196 11.3043 19.7071 11.1168ZM10.785 4.5813C11.3373 4.5813 11.785 5.02901 11.785 5.5813C11.785 6.13358 11.3373 6.5813 10.785 6.5813H7C6.73478 6.5813 6.48043 6.68666 6.29289 6.87419C6.10536 7.06173 6 7.31608 6 7.5813V14.5813H18V14.5775H20V14.5813H21C21.2652 14.5813 21.5196 14.6867 21.7071 14.8742C21.8946 15.0617 22 15.3161 22 15.5813V17.5813C22 18.3769 21.6839 19.14 21.1213 19.7026C20.5587 20.2652 19.7956 20.5813 19 20.5813H5C4.20435 20.5813 3.44129 20.2652 2.87868 19.7026C2.31607 19.14 2 18.3769 2 17.5813V15.5813C2 15.3161 2.10536 15.0617 2.29289 14.8742C2.48043 14.6867 2.73478 14.5813 3 14.5813H4V7.5813C4 6.78565 4.31607 6.02259 4.87868 5.45998C5.44129 4.89737 6.20435 4.5813 7 4.5813H10.785ZM20 17.5813C20 17.8465 19.8946 18.1009 19.7071 18.2884C19.5196 18.4759 19.2652 18.5813 19 18.5813H5C4.73478 18.5813 4.48043 18.4759 4.29289 18.2884C4.10536 18.1009 4 17.8465 4 17.5813V16.5813H20V17.5813Z" fill="#6DDB6D"/>
</svg>
