<svg width="24" height="24" viewBox="0 0 24 24" fill="none" xmlns="http://www.w3.org/2000/svg">
<path fill-rule="evenodd" clip-rule="evenodd" d="M20.8088 9.0882C20.8088 9.0882 20.8097 9.08695 20.0036 8.50256L20.8097 9.08695C21.0752 8.72063 21.0618 8.22164 20.7768 7.8702L20.0041 8.49669C20.7768 7.8702 20.7759 7.86913 20.7759 7.86913L20.775 7.868L20.773 7.86558L20.7685 7.86005L20.757 7.84632C20.7482 7.836 20.7373 7.82336 20.7242 7.80856C20.698 7.77898 20.6629 7.74077 20.6186 7.69522C20.53 7.60412 20.4043 7.48363 20.2382 7.34401C19.9059 7.06455 19.4131 6.70946 18.7341 6.36057C17.3711 5.66013 15.288 5 12.2973 5C9.49666 5 7.51007 5.66609 6.19977 6.36871C5.54753 6.71847 5.06975 7.07355 4.74688 7.35136C4.58552 7.49021 4.46292 7.60969 4.37656 7.69953C4.33337 7.74445 4.29922 7.78198 4.27379 7.81084C4.26108 7.82527 4.25054 7.83754 4.24214 7.84748L4.23113 7.86064L4.22682 7.86588L4.22496 7.86815L4.2241 7.8692C4.2241 7.8692 4.2233 7.8702 5.00005 8.5L4.2233 7.8702C3.92564 8.23731 3.92564 8.76269 4.2233 9.1298L5.00005 8.5C4.2233 9.1298 4.2241 9.1308 4.2241 9.1308L4.22496 9.13185L4.22682 9.13412L4.23113 9.13936L4.24214 9.15252C4.25054 9.16246 4.26108 9.17473 4.27379 9.18916C4.29922 9.21802 4.33337 9.25555 4.37656 9.30048C4.46292 9.39031 4.58552 9.50979 4.74688 9.64864C5.06975 9.92645 5.54753 10.2815 6.19977 10.6313C7.51007 11.3339 9.49666 12 12.2973 12H7C4.79086 12 3 13.7909 3 16C3 18.2091 4.79086 20 7 20H18.541C19.8991 20 21 18.8991 21 17.541C21 16.9747 20.8061 16.4421 20.4716 16.018C20.8056 15.6068 21 15.0852 21 14.5298C21 13.1326 19.8674 12 18.4702 12H12.2973C15.3887 12 17.4765 11.3427 18.8227 10.6352C19.4934 10.2828 19.9713 9.92246 20.2916 9.63587C20.4515 9.49278 20.5716 9.36858 20.6565 9.2736C20.6989 9.22612 20.7325 9.18597 20.7578 9.15443C20.7705 9.13866 20.7811 9.12505 20.7897 9.11375L20.8012 9.09855L20.8058 9.09229L20.8078 9.0895L20.8088 9.0882ZM7.14493 8.86871C6.9092 8.74231 6.70614 8.61702 6.53398 8.5C6.70614 8.38298 6.9092 8.25769 7.14493 8.13129C8.16571 7.58391 9.82777 7 12.2973 7C14.9824 7 16.7506 7.58987 17.82 8.13943C18.0745 8.27022 18.2912 8.39962 18.4727 8.51971C18.3105 8.62914 18.118 8.74622 17.8924 8.86478C16.8599 9.40734 15.0963 10 12.2973 10C9.82777 10 8.16571 9.41609 7.14493 8.86871ZM18.7572 14.87L18.3795 15H7C6.44772 15 6 15.4477 6 16C6 16.5523 6.44772 17 7 17H18.3795L18.6903 17.1069C18.8756 17.1707 19 17.345 19 17.541C19 17.7945 18.7945 18 18.541 18H7C5.89543 18 5 17.1046 5 16C5 14.8954 5.89543 14 7 14H18.4702C18.7628 14 19 14.2372 19 14.5298C19 14.6834 18.9025 14.8201 18.7572 14.87Z" fill="#6DDB6D"/>
</svg>
