<svg width="25" height="24" viewBox="0 0 25 24" fill="none" xmlns="http://www.w3.org/2000/svg">
<path d="M19.0205 10C19.0205 9.44772 18.5728 9 18.0205 9C17.4682 9 17.0205 9.44772 17.0205 10V11C17.0205 11.5523 17.4682 12 18.0205 12C18.5728 12 19.0205 11.5523 19.0205 11V10Z" fill="#6DDB6D"/>
<path d="M18.0205 15C18.5728 15 19.0205 14.5523 19.0205 14C19.0205 13.4477 18.5728 13 18.0205 13C17.4682 13 17.0205 13.4477 17.0205 14C17.0205 14.5523 17.4682 15 18.0205 15Z" fill="#6DDB6D"/>
<path fill-rule="evenodd" clip-rule="evenodd" d="M3.02051 6C2.46822 6 2.02051 6.44772 2.02051 7V17C2.02051 17.5523 2.46822 18 3.02051 18C3.02051 18.5523 3.46822 19 4.02051 19C4.57279 19 5.02051 18.5523 5.02051 18H19.0205C19.0205 18.5523 19.4682 19 20.0205 19C20.5728 19 21.0205 18.5523 21.0205 18C21.5728 18 22.0205 17.5523 22.0205 17V7C22.0205 6.44772 21.5728 6 21.0205 6H3.02051ZM4.02051 8H14.0205V16H4.02051V8ZM16.0205 16V8H20.0205V16H16.0205Z" fill="#6DDB6D"/>
</svg>
