<svg width="24" height="24" viewBox="0 0 24 24" fill="none" xmlns="http://www.w3.org/2000/svg">
<path d="M12 7.63647C12.5523 7.63647 13 8.08419 13 8.63647V10.5339L14.6433 9.58521C15.1215 9.30906 15.7331 9.47294 16.0093 9.95123C16.2854 10.4295 16.1215 11.0411 15.6433 11.3173L13.9999 12.2661L15.6435 13.215C16.1218 13.4911 16.2856 14.1027 16.0095 14.581C15.7333 15.0593 15.1218 15.2232 14.6435 14.947L13 13.9982V15.8958C13 16.448 12.5523 16.8958 12 16.8958C11.4477 16.8958 11 16.448 11 15.8958V13.998L9.35653 14.9469C8.87824 15.223 8.26665 15.0592 7.99051 14.5809C7.71437 14.1026 7.87824 13.491 8.35653 13.2148L9.99989 12.2661L8.35675 11.3174C7.87846 11.0412 7.71458 10.4296 7.99072 9.95136C8.26686 9.47306 8.87846 9.30919 9.35675 9.58533L11 10.5341V8.63647C11 8.08419 11.4477 7.63647 12 7.63647Z" fill="#6DDB6D"/>
<path fill-rule="evenodd" clip-rule="evenodd" d="M1.56079 5.64355C1.56079 5.09127 2.00851 4.64355 2.56079 4.64355H21.4389C21.9912 4.64355 22.4389 5.09127 22.4389 5.64355V18.889C22.4389 19.4413 21.9912 19.889 21.4389 19.889H2.56079C2.00851 19.889 1.56079 19.4413 1.56079 18.889V5.64355ZM3.56079 6.64355V17.889H20.4389V6.64355H18.9893V10.5686C18.9893 11.1209 18.5415 11.5686 17.9893 11.5686C17.437 11.5686 16.9893 11.1209 16.9893 10.5686V6.64355H3.56079Z" fill="#6DDB6D"/>
</svg>
