<svg width="24" height="24" viewBox="0 0 24 24" fill="none" xmlns="http://www.w3.org/2000/svg">
<path d="M9.70686 7.79289C9.31634 7.40237 8.68317 7.40237 8.29265 7.79289C7.90212 8.18342 7.90212 8.81658 8.29265 9.20711L10.7926 11.7071C11.1832 12.0976 11.8163 12.0976 12.2069 11.7071C12.5974 11.3166 12.5974 10.6834 12.2069 10.2929L9.70686 7.79289Z" fill="#6DDB6D"/>
<path d="M12.7069 6.29289L15.2069 8.79289C15.5974 9.18342 15.5974 9.81658 15.2069 10.2071C14.8163 10.5976 14.1832 10.5976 13.7926 10.2071L11.2926 7.70711C10.9021 7.31658 10.9021 6.68342 11.2926 6.29289C11.6832 5.90237 12.3163 5.90237 12.7069 6.29289Z" fill="#6DDB6D"/>
<path fill-rule="evenodd" clip-rule="evenodd" d="M18.9998 9C18.9998 12.866 15.8657 16 11.9998 16C8.13376 16 4.99976 12.866 4.99976 9C4.99976 5.13401 8.13376 2 11.9998 2C15.8657 2 18.9998 5.13401 18.9998 9ZM16.9998 9C16.9998 11.7614 14.7612 14 11.9998 14C9.23833 14 6.99976 11.7614 6.99976 9C6.99976 6.23858 9.23833 4 11.9998 4C14.7612 4 16.9998 6.23858 16.9998 9Z" fill="#6DDB6D"/>
<path d="M6.34285 14.6569C5.95232 14.2664 5.31916 14.2664 4.92864 14.6569C4.53811 15.0474 4.53811 15.6806 4.92864 16.0711C5.85722 16.9997 6.95961 17.7363 8.17287 18.2388C9.07703 18.6134 10.0296 18.8524 10.9998 18.9499V20H7.99976C7.44747 20 6.99976 20.4477 6.99976 21C6.99976 21.5523 7.44747 22 7.99976 22H15.9998C16.552 22 16.9998 21.5523 16.9998 21C16.9998 20.4477 16.552 20 15.9998 20H12.9998V18.9499C13.9699 18.8524 14.9224 18.6134 15.8265 18.2388C17.0398 17.7363 18.1422 16.9997 19.0708 16.0711C19.4613 15.6806 19.4613 15.0474 19.0708 14.6569C18.6802 14.2664 18.0471 14.2664 17.6566 14.6569C16.9137 15.3998 16.0318 15.9891 15.0612 16.3911C14.0936 16.7919 13.0569 16.9987 12.0097 17C12.0064 17 12.0031 17 11.9998 17C11.9964 17 11.9931 17 11.9898 17C10.9426 16.9988 9.9058 16.7919 8.93824 16.3911C7.96763 15.9891 7.08572 15.3998 6.34285 14.6569Z" fill="#6DDB6D"/>
</svg>
