<svg width="24" height="24" viewBox="0 0 24 24" fill="none" xmlns="http://www.w3.org/2000/svg">
<path fill-rule="evenodd" clip-rule="evenodd" d="M21.4447 12.8187C21.4447 11.4304 21.1451 10.112 20.6071 8.92474C20.8315 8.56377 21.0548 8.00543 20.8173 7.40104C20.5557 6.73531 19.9225 6.49115 19.5057 6.39839C19.3009 6.3528 19.0807 6.3273 18.8512 6.31773C18.4738 5.9201 18.0622 5.55531 17.621 5.22807C17.767 4.8604 17.8742 4.49417 17.9156 4.14934C17.9664 3.72533 17.9462 3.04706 17.405 2.57932C16.8638 2.11158 16.1898 2.18981 15.7776 2.30151C15.3245 2.42431 14.8501 2.6718 14.3935 2.97101C14.1511 3.12988 13.8998 3.31262 13.643 3.51646C13.1094 3.42287 12.5604 3.37406 12.0001 3.37406C6.78393 3.37406 2.55542 7.60257 2.55542 12.8187C2.55542 18.0348 6.78393 22.2633 12.0001 22.2633C17.2162 22.2633 21.4447 18.0348 21.4447 12.8187ZM13.7289 15.6329L12.6031 14.5071L13.3123 18.3372C13.4129 18.8802 13.0542 19.402 12.5111 19.5025C11.9681 19.6031 11.4463 19.2444 11.3457 18.7013L10.382 13.4968C10.0351 13.5351 9.69962 13.5383 9.38737 13.5108L7.09248 15.9537C6.71434 16.3562 6.08148 16.376 5.67896 15.9978C5.27643 15.6197 5.25667 14.9868 5.63482 14.5843L7.52526 12.572C7.49569 12.5022 7.47575 12.4295 7.46622 12.3542C7.39701 11.8068 7.89527 11.2578 8.69485 10.8941C8.68968 10.7912 8.69198 10.6929 8.69852 10.6025L6.2211 8.1251C5.17967 9.40579 4.55542 11.0393 4.55542 12.8187C4.55542 16.9303 7.88849 20.2633 12.0001 20.2633C13.4332 20.2633 14.7717 19.8584 15.9075 19.1566C15.5573 19.1292 15.2321 18.9177 15.0756 18.5756L13.7289 15.6329ZM7.67967 6.75524L9.42801 8.50358C9.90379 7.62118 10.5923 6.63839 11.4216 5.67896C11.5089 5.57797 11.5966 5.47849 11.6848 5.38062C10.1948 5.4427 8.81801 5.94268 7.67967 6.75524ZM15.3977 14.4732L18.0635 17.1391C18.9331 15.9209 19.4447 14.4295 19.4447 12.8187C19.4447 11.9733 19.3038 11.1608 19.0441 10.4034C18.3749 10.8606 17.5473 11.3122 16.6273 11.7171C18.0477 12.4232 18.9344 13.4123 18.6741 14.0838C18.402 14.7856 16.9707 14.899 15.3595 14.3899L15.3977 14.4732ZM18.1335 8.59802C18.0781 8.51769 18.0211 8.4385 17.9627 8.36049C17.1698 8.46051 16.1468 8.71879 15.0404 9.1359C14.5118 9.73211 13.9687 10.2715 13.4396 10.7313C13.9809 10.5863 14.5676 10.3943 15.176 10.1552C16.4053 9.67213 17.4386 9.10854 18.1335 8.59802ZM13.8498 7.4547C14.2759 6.94777 14.6463 6.44894 14.9527 5.98255C14.7003 5.87339 14.4406 5.7778 14.1747 5.6967C13.7719 6.07056 13.352 6.50398 12.9347 6.98678C12.507 7.48169 12.131 7.97174 11.8145 8.43449C12.4237 8.08824 13.1124 7.75521 13.8498 7.4547ZM16.3913 4.21429C16.3913 4.21429 16.3854 4.21549 16.3754 4.21544C16.3866 4.21385 16.3913 4.21429 16.3913 4.21429ZM15.9352 3.83499C15.9337 3.8251 15.9341 3.8191 15.9341 3.8191C15.9341 3.8191 15.9352 3.8237 15.9352 3.83499Z" fill="#6DDB6D"/>
</svg>
