<svg width="24" height="24" viewBox="0 0 24 24" fill="none" xmlns="http://www.w3.org/2000/svg">
<path fill-rule="evenodd" clip-rule="evenodd" d="M7.79475 3.15055C7.49325 3.06528 7.16922 3.12624 6.91933 3.31526C6.66944 3.50427 6.52259 3.79948 6.52259 4.1128V13.4423C5.2631 13.0917 4.01281 13.5741 3.68156 14.5641C3.3364 15.5957 4.11979 16.7877 5.43131 17.2265C6.74283 17.6653 8.08583 17.1848 8.43099 16.1533C8.47959 16.008 8.50582 15.8596 8.51134 15.7105C8.51875 15.6614 8.52259 15.6112 8.52259 15.56V8.73187L15.9665 10.9745V16.9308C14.69 16.5526 13.4103 17.0347 13.0746 18.038C12.7295 19.0696 13.5129 20.2616 14.8244 20.7004C16.1359 21.1392 17.4789 20.6587 17.8241 19.6271C17.8296 19.6105 17.8349 19.5939 17.8398 19.5772C17.9205 19.433 17.9665 19.2667 17.9665 19.0897V6.78384C17.9665 6.33637 17.6693 5.94337 17.2387 5.82158L7.79475 3.15055ZM15.9665 8.88573L8.52259 6.64308V5.43486L15.9665 7.54024V8.88573Z" fill="#6DDB6D"/>
</svg>
