<svg width="24" height="24" viewBox="0 0 24 24" fill="none" xmlns="http://www.w3.org/2000/svg">
<path d="M12.7817 6.50952C12.7817 5.95724 12.334 5.50952 11.7817 5.50952C11.2295 5.50952 10.7817 5.95724 10.7817 6.50952C10.7817 7.09627 10.9054 7.63706 11.1866 8.10326C11.4695 8.57256 11.8697 8.89602 12.307 9.11322C13.1312 9.52264 14.1618 9.58767 15.0651 9.58767C15.8486 9.58767 16.1745 9.73483 16.2946 9.81306C16.3897 9.87497 16.4292 9.93608 16.4906 10.0814C16.7053 10.5903 17.2918 10.8287 17.8007 10.614C18.3095 10.3994 18.548 9.81281 18.3333 9.30396C18.2089 9.00927 17.9705 8.51786 17.3863 8.13727C16.8271 7.773 16.0725 7.58767 15.0651 7.58767C14.1775 7.58767 13.5664 7.50566 13.1967 7.32202C13.037 7.2427 12.9521 7.15813 12.8993 7.07052C12.8446 6.97981 12.7817 6.81481 12.7817 6.50952Z" fill="#6DDB6D"/>
<path fill-rule="evenodd" clip-rule="evenodd" d="M12 2C6.47715 2 2 6.47715 2 12C2 17.5228 6.47715 22 12 22C17.5228 22 22 17.5228 22 12C22 6.47715 17.5228 2 12 2ZM7.09436 5.68014C8.44904 4.62708 10.1513 4 12 4C16.4183 4 20 7.58172 20 12C20 13.8487 19.3729 15.551 18.3199 16.9056L16.9523 15.538H18C18.5523 15.538 19 15.0903 19 14.538V12C19 11.4477 18.5523 11 18 11H12.4142L7.09436 5.68014ZM5.68014 7.09436C4.62708 8.44904 4 10.1513 4 12C4 16.4183 7.58172 20 12 20C13.8487 20 15.551 19.3729 16.9056 18.3199L14.1238 15.538H6C5.44772 15.538 5 15.0903 5 14.538V12C5 11.4477 5.44772 11 6 11H9.58579L5.68014 7.09436ZM10 13H11.5858L12.1238 13.538H10V13ZM14.4142 13L14.9523 13.538H17V13H14.4142ZM7 13H8V13.538H7V13Z" fill="#6DDB6D"/>
</svg>
