<svg width="24" height="24" viewBox="0 0 24 24" fill="none" xmlns="http://www.w3.org/2000/svg">
<path fill-rule="evenodd" clip-rule="evenodd" d="M14.8741 2.3784C14.5519 2.1792 14.1447 2.1792 13.8225 2.37841L6.93031 6.63911C6.55008 6.87417 6.37204 7.33303 6.49422 7.76303C6.6164 8.19302 7.00912 8.4897 7.45614 8.4897H13.3483V11.8862H7.77979C7.2275 11.8862 6.77979 12.3339 6.77979 12.8862C6.77979 13.4385 7.2275 13.8862 7.77979 13.8862H13.3483C13.3486 13.9368 13.3526 13.9864 13.3601 14.0349V18.2006L11.2253 20.0215C10.8051 20.3799 10.755 21.011 11.1134 21.4312C11.4718 21.8514 12.103 21.9015 12.5232 21.5431L14.3503 19.9847L16.1126 21.5335C16.5275 21.898 17.1594 21.8573 17.5239 21.4424C17.8885 21.0276 17.8477 20.3957 17.4329 20.0311L15.3601 18.2096V13.8862H20.9404C21.4927 13.8862 21.9404 13.4385 21.9404 12.8862C21.9404 12.3339 21.4927 11.8862 20.9404 11.8862H15.3483V8.4897H21.2408C21.6878 8.4897 22.0806 8.19302 22.2027 7.76301C22.3249 7.33301 22.1469 6.87415 21.7666 6.6391L14.8741 2.3784ZM10.9755 6.4897L14.3483 4.40465L17.7213 6.4897H10.9755Z" fill="#6DDB6D"/>
<path fill-rule="evenodd" clip-rule="evenodd" d="M4.10059 8.93799C4.10059 8.3857 3.65287 7.93799 3.10059 7.93799C2.5483 7.93799 2.10059 8.3857 2.10059 8.93799V20.8555C2.10059 21.4078 2.5483 21.8555 3.10059 21.8555C3.65287 21.8555 4.10059 21.4078 4.10059 20.8555V20.0311H7.80348V20.8555C7.80348 21.4078 8.2512 21.8555 8.80348 21.8555C9.35577 21.8555 9.80348 21.4078 9.80348 20.8555V16.1031C9.80348 15.5508 9.35577 15.1031 8.80348 15.1031H4.10059V8.93799ZM7.80348 18.0311V17.1031H4.10059V18.0311H7.80348Z" fill="#6DDB6D"/>
</svg>
