<svg width="24" height="24" viewBox="0 0 24 24" fill="none" xmlns="http://www.w3.org/2000/svg">
<path fill-rule="evenodd" clip-rule="evenodd" d="M14.527 4.4121C14.1692 4.78404 13.8467 5.37343 13.7001 6.09837L13.6988 6.10476L13.6988 6.10476C13.5476 6.82815 13.6186 7.45619 13.7936 7.87819C13.9687 8.30022 14.1915 8.419 14.3395 8.44139L14.3408 8.44158C14.5028 8.4663 14.8062 8.40583 15.1776 8.02341C15.5374 7.653 15.8641 7.06443 16.0204 6.33878C16.1615 5.61853 16.0854 4.9913 15.9061 4.56634C15.7285 4.14536 15.5039 4.01623 15.3494 3.98882C15.1904 3.96873 14.8909 4.03368 14.527 4.4121ZM13.0855 3.02568C13.7238 2.36207 14.6309 1.86336 15.6438 2.01053L15.6577 2.01255L15.6576 2.01265C16.693 2.17796 17.3892 2.93639 17.7488 3.78894C18.1089 4.64253 18.1879 5.68746 17.981 6.73412L17.9795 6.74153L17.9779 6.74892C17.9145 7.04609 17.83 7.33469 17.7267 7.61102C18.0094 7.34574 18.3153 7.1189 18.636 6.93852C19.4447 6.48372 20.4522 6.27622 21.3949 6.68141L21.3999 6.68359L21.3999 6.6836C22.3452 7.09611 22.8443 7.98354 22.9909 8.89204C23.1378 9.8016 22.9592 10.8237 22.4833 11.7696C22.0087 12.7127 21.295 13.48 20.4814 13.9422C19.675 14.4002 18.6702 14.6044 17.7321 14.1976C16.7763 13.7831 16.2705 12.9007 16.1196 11.9868C15.9969 11.2437 16.0918 10.4278 16.3785 9.63924C15.8199 10.1295 15.1038 10.4787 14.3116 10.4452C14.614 10.7137 14.8791 11.0084 15.112 11.2923C15.4295 11.6794 15.7306 12.1028 16.0053 12.4889C16.0497 12.5512 16.0934 12.6126 16.1363 12.6728C16.4581 13.1232 16.7437 13.5092 17.0319 13.8187L17.0397 13.8271L17.0396 13.8272C17.2771 14.0881 17.5639 14.3494 17.8958 14.6441C17.934 14.678 17.9728 14.7124 18.0122 14.7473C18.3019 15.0039 18.6214 15.2868 18.9142 15.5815C19.5681 16.2393 20.2774 17.1343 20.3291 18.3372L20.3291 18.3376C20.3602 19.0683 20.0991 19.7684 19.731 20.3238C19.362 20.8806 18.8309 21.3756 18.2047 21.6601C16.9261 22.2449 15.605 21.8901 14.6087 21.5696C14.3894 21.499 14.1905 21.4314 14.0001 21.3667C13.7018 21.2654 13.4243 21.1711 13.1217 21.0836C12.6538 20.9482 12.2516 20.8701 11.89 20.8701C11.5335 20.8701 11.1337 20.9503 10.6644 21.0908C10.3645 21.1805 10.0934 21.2755 9.80195 21.3776C9.60617 21.4461 9.40118 21.5179 9.17211 21.5935C8.17733 21.9218 6.83516 22.2899 5.55442 21.6454C4.83367 21.2905 4.27443 20.6752 3.91616 20.0112C3.55733 19.3462 3.35276 18.5447 3.44714 17.7606L3.44719 17.7602C3.58419 16.6261 4.32816 15.8411 4.9698 15.2847C5.22491 15.0634 5.50287 14.8467 5.75516 14.65C5.82447 14.5959 5.89183 14.5434 5.95626 14.4927C6.11194 14.3702 6.25542 14.2547 6.38669 14.1425C6.34786 14.1617 6.30824 14.1801 6.26781 14.1976C5.32974 14.6044 4.32493 14.4002 3.51858 13.9422C2.70492 13.48 1.99123 12.7127 1.51668 11.7696C1.0407 10.8237 0.862186 9.8016 1.009 8.89204C1.15564 7.98354 1.6547 7.09611 2.60003 6.6836L2.60507 6.6814L2.60508 6.68141C3.54777 6.27622 4.55519 6.48372 5.3639 6.93852C5.61241 7.07828 5.85201 7.24591 6.07879 7.43771C6.00337 7.21335 5.94038 6.98159 5.89103 6.74427C5.67143 5.69331 5.74763 4.64559 6.10671 3.79047C6.46466 2.93806 7.16028 2.17882 8.191 2.01286L8.19918 2.01154L8.20738 2.01036C9.22219 1.86416 10.1311 2.35973 10.7723 3.02479C11.2733 3.54431 11.6743 4.22342 11.93 4.98893C12.1855 4.2236 12.5861 3.54488 13.0855 3.02568ZM7.67538 9.79484C7.91966 10.5346 7.99501 11.2925 7.88036 11.9868C7.84567 12.1969 7.79222 12.4054 7.71885 12.6068C7.76993 12.5359 7.82214 12.463 7.87533 12.3886C8.12554 12.0391 8.39755 11.659 8.67705 11.313C8.91007 11.0245 9.17656 10.7224 9.48277 10.4471C8.80541 10.4575 8.1851 10.1879 7.67538 9.79484ZM11.4183 9.47431C11.6216 9.22242 11.7841 8.93873 11.9061 8.64459C11.9129 8.6282 11.9196 8.61174 11.9262 8.59521C11.9328 8.61174 11.9395 8.6282 11.9463 8.64459C12.0707 8.94448 12.2372 9.23278 12.4458 9.48755C12.2681 9.45674 12.0829 9.44014 11.89 9.44014C11.7271 9.44014 11.5699 9.45201 11.4183 9.47431ZM12.1201 5.70164C12.1201 5.70173 12.1201 5.70182 12.1201 5.70191L11.943 5.73773M11.9408 5.73726L11.7411 5.69552C11.7409 5.69662 11.7407 5.69771 11.7404 5.69881C11.7402 5.69984 11.74 5.70087 11.7398 5.70191M8.50078 3.98883C8.66777 3.96831 8.96987 4.0368 9.3326 4.41299C9.69085 4.78454 10.0132 5.37344 10.1598 6.09837L10.16 6.09945C10.3074 6.82386 10.2348 7.45397 10.0588 7.87819C9.88212 8.30406 9.65989 8.42011 9.51917 8.44158L9.51791 8.44177C9.36303 8.4656 9.06016 8.40728 8.6873 8.02341C8.32636 7.6518 7.99978 7.0618 7.84904 6.33662L7.84881 6.33552C7.69854 5.61664 7.77237 4.98956 7.95073 4.56481C8.12704 4.14494 8.3514 4.0161 8.50078 3.98883ZM3.39746 8.51776C3.24323 8.58616 3.05393 8.77406 2.98344 9.21074C2.91276 9.64868 2.98924 10.2466 3.30326 10.8707C3.61871 11.4976 4.07002 11.9553 4.50636 12.2031C4.95001 12.4551 5.2802 12.4459 5.47214 12.3627C5.64629 12.2872 5.83548 12.0946 5.90708 11.661C5.97894 11.2258 5.90614 10.6296 5.60598 9.99861C5.28196 9.38513 4.826 8.93059 4.38354 8.68176C3.93173 8.42768 3.59513 8.434 3.39746 8.51776ZM18.394 9.99859C18.0938 10.6296 18.021 11.2258 18.0929 11.661C18.1645 12.0946 18.3537 12.2872 18.5278 12.3627C18.7197 12.4459 19.0499 12.4551 19.4936 12.2031C19.9299 11.9553 20.3812 11.4976 20.6967 10.8707C21.0107 10.2466 21.0872 9.64868 21.0165 9.21074C20.946 8.77406 20.7567 8.58617 20.6025 8.51776C20.4048 8.434 20.0682 8.42767 19.6164 8.68176C19.1739 8.93059 18.718 9.38512 18.394 9.99859ZM8.18201 15.2023C7.86858 15.5238 7.51493 15.8112 7.19306 16.0644C7.11267 16.1277 7.03481 16.1884 6.95911 16.2475C6.71422 16.4385 6.49197 16.6119 6.28014 16.7956C5.71701 17.284 5.47594 17.6439 5.4328 17.9996C5.39718 18.2956 5.47261 18.6841 5.67629 19.0615C5.87959 19.4383 6.16341 19.7166 6.43999 19.8521L6.45127 19.8577L6.45124 19.8577C6.92878 20.0992 7.53409 20.028 8.54533 19.6943C8.70138 19.6428 8.8786 19.581 9.06554 19.5159C9.39811 19.4 9.76142 19.2734 10.0909 19.1748C10.6375 19.0112 11.2514 18.8701 11.89 18.8701C12.5233 18.8701 13.1324 19.0046 13.6776 19.1623C14.0139 19.2597 14.3796 19.3834 14.7151 19.497C14.8956 19.5581 15.0675 19.6162 15.2212 19.6657C16.2295 19.9901 16.8626 20.075 17.3735 19.841L17.377 19.8394C17.61 19.7337 17.8683 19.5142 18.0639 19.2189C18.2608 18.9219 18.3398 18.632 18.3309 18.4227C18.3124 17.9957 18.0617 17.5608 17.4957 16.9913C17.251 16.7451 16.9825 16.5071 16.6874 16.2456C16.648 16.2107 16.6082 16.1754 16.5679 16.1396C16.2399 15.8483 15.8807 15.5247 15.5641 15.1773C15.1788 14.7627 14.827 14.2805 14.5089 13.8353C14.462 13.7696 14.4157 13.7047 14.3701 13.6405C14.0926 13.2508 13.8359 12.8903 13.5655 12.5605C12.9155 11.7679 12.4098 11.4401 11.89 11.4401C11.3739 11.4401 10.882 11.7662 10.2329 12.5698C9.99354 12.8661 9.76849 13.1803 9.52527 13.52C9.4467 13.6297 9.36623 13.7421 9.28277 13.8574C8.95803 14.3059 8.5932 14.7902 8.18201 15.2023Z" fill="#6DDB6D"/>
</svg>
