<svg width="25" height="24" viewBox="0 0 25 24" fill="none" xmlns="http://www.w3.org/2000/svg">
<path d="M14.5798 6.18686C12.6426 5.72614 10.7156 5.54508 9.40535 5.69928C8.85685 5.76383 8.35988 5.37151 8.29533 4.82301C8.23078 4.27451 8.6231 3.77753 9.1716 3.71299C10.8009 3.52124 12.9808 3.7508 15.0426 4.24113C17.0996 4.73035 19.19 5.5148 20.5964 6.53317C21.0437 6.85708 21.1437 7.48229 20.8198 7.92962C20.4959 8.37694 19.8707 8.47698 19.4234 8.15306C18.3222 7.35568 16.5217 6.64868 14.5798 6.18686Z" fill="#6DDB6D"/>
<path fill-rule="evenodd" clip-rule="evenodd" d="M18.5009 8.18322C16.2506 7.17741 14.3641 6.48167 12.3316 6.16484C10.2443 5.83947 8.06623 5.92293 5.23984 6.39761C4.96285 6.44413 4.71819 6.60499 4.5657 6.84085C3.44354 8.57647 2.77934 10.0608 2.57446 11.6606C2.37075 13.2512 2.63532 14.8511 3.17502 16.7833C3.24965 17.0505 3.43195 17.2747 3.67833 17.4023C5.60084 18.3978 7.3307 19.0354 9.42229 19.3349C11.4918 19.6313 13.8693 19.5899 17.0749 19.2928C17.3338 19.2689 17.5727 19.1451 17.7415 18.9484C17.786 18.9196 17.8288 18.8869 17.8695 18.8503C19.55 17.3357 20.0705 15.2662 20.0934 13.4228C20.1162 11.5834 19.6499 9.84182 19.2032 8.77307C19.0735 8.46282 18.8057 8.25234 18.5009 8.18322ZM6.00988 8.29875C5.13055 9.7213 4.69828 10.8213 4.55825 11.9147C4.41705 13.0172 4.56085 14.2033 4.98689 15.8237C6.60027 16.6259 8.02328 17.1142 9.70583 17.3551C11.34 17.5892 13.2557 17.5954 15.8744 17.3888C15.7316 15.9719 15.6867 14.7346 15.8329 13.5042C15.982 12.2499 16.3245 11.0404 16.9162 9.6723C15.0836 8.88699 13.5833 8.38411 12.0236 8.14098C10.3164 7.87487 8.48196 7.91177 6.00988 8.29875ZM17.7486 15.5067C17.7313 14.8802 17.752 14.3041 17.819 13.7402C17.8691 13.3187 17.9459 12.8979 18.056 12.4631C18.0836 12.7692 18.0974 13.0825 18.0935 13.398C18.0844 14.1324 17.9805 14.8486 17.7486 15.5067Z" fill="#6DDB6D"/>
</svg>
