<svg width="25" height="24" viewBox="0 0 25 24" fill="none" xmlns="http://www.w3.org/2000/svg">
<path d="M15.0205 14C15.5728 14 16.0205 13.5523 16.0205 13C16.0205 12.4477 15.5728 12 15.0205 12C14.4682 12 14.0205 12.4477 14.0205 13C14.0205 13.5523 14.4682 14 15.0205 14Z" fill="#6DDB6D"/>
<path fill-rule="evenodd" clip-rule="evenodd" d="M5.02051 4C5.02051 3.44772 5.46822 3 6.02051 3H18.0205C18.5728 3 19.0205 3.44772 19.0205 4V20H20.0205C20.5728 20 21.0205 20.4477 21.0205 21C21.0205 21.5523 20.5728 22 20.0205 22H4.02051C3.46822 22 3.02051 21.5523 3.02051 21C3.02051 20.4477 3.46822 20 4.02051 20H5.02051V4ZM17.0205 5V20H7.02051V5H17.0205Z" fill="#6DDB6D"/>
</svg>
