<svg width="25" height="24" viewBox="0 0 25 24" fill="none" xmlns="http://www.w3.org/2000/svg">
<path fill-rule="evenodd" clip-rule="evenodd" d="M20.4625 16.9655C20.4445 17.5181 20.2643 18.054 19.9434 18.5058C19.6065 18.9801 19.1311 19.3385 18.5824 19.5317V20.6459C18.5824 20.8954 18.4833 21.1347 18.3068 21.3111C18.1304 21.4875 17.8911 21.5867 17.6416 21.5867C17.3921 21.5867 17.1528 21.4875 16.9764 21.3111C16.7999 21.1347 16.7008 20.8954 16.7008 20.6459V19.7051H7.29308V20.6459C7.29308 20.8954 7.19397 21.1347 7.01754 21.3111C6.84111 21.4875 6.60182 21.5867 6.35231 21.5867C6.1028 21.5867 5.86351 21.4875 5.68708 21.3111C5.51065 21.1347 5.41154 20.8954 5.41154 20.6459V19.5317C4.86282 19.3384 4.38738 18.98 4.05049 18.5058C3.7136 18.0315 3.53178 17.4645 3.52999 16.8828V14.0605H2.58921C2.3397 14.0605 2.10041 13.9613 1.92398 13.7849C1.74755 13.6085 1.64844 13.3692 1.64844 13.1197C1.64844 12.8702 1.74755 12.6309 1.92398 12.4545C2.10041 12.278 2.3397 12.1789 2.58921 12.1789H3.52999V6.92013C3.5287 6.30825 3.67692 5.70533 3.96175 5.16379C4.24658 4.62225 4.65941 4.15849 5.16431 3.81286C5.66922 3.46722 6.25093 3.25018 6.85883 3.18059C7.46674 3.111 8.08245 3.19098 8.6524 3.41358C9.28454 2.95055 10.0613 2.72857 10.8426 2.78766C10.9521 2.79593 11.0606 2.80964 11.1678 2.82863C11.3368 2.57809 11.6233 2.41333 11.9483 2.41333H21.4514C21.971 2.41333 22.3922 2.83453 22.3922 3.3541V16.0247C22.3922 16.5443 21.971 16.9655 21.4514 16.9655H20.4625ZM11.0075 4.71803C10.8722 4.67572 10.7301 4.65364 10.5858 4.65364C10.2117 4.65364 9.85292 4.80198 9.58806 5.06614C9.32376 5.33093 9.17533 5.68976 9.17533 6.06388C9.17534 6.438 9.32378 6.79683 9.58808 7.06161L9.92067 7.39419L11.0075 6.30735V4.71803ZM11.0075 8.96797L10.5858 9.38966C10.4985 9.47704 10.3948 9.54635 10.2806 9.59364C10.1665 9.64093 10.0442 9.66527 9.92064 9.66527C9.7971 9.66527 9.67477 9.64093 9.56064 9.59364C9.44651 9.54635 9.34282 9.47704 9.25548 9.38966L8.25771 8.39192C7.83046 7.96162 7.53067 7.42144 7.39157 6.83122C7.25247 6.24101 7.27948 5.6238 7.46961 5.048C7.09607 5.01088 6.71998 5.08665 6.38994 5.26551C6.09148 5.42587 5.84255 5.6648 5.6701 5.95644C5.49765 6.24808 5.40823 6.58133 5.41154 6.92013V12.1789H11.0075V8.96797ZM11.0075 14.0605H5.41154V16.8828C5.4117 17.1322 5.51087 17.3714 5.68727 17.5478C5.86366 17.7242 6.10285 17.8234 6.35231 17.8236H17.6416C17.8911 17.8234 18.1303 17.7242 18.3066 17.5478C18.4634 17.391 18.5592 17.1846 18.5787 16.9655H11.9483C11.4287 16.9655 11.0075 16.5443 11.0075 16.0247V14.0605ZM12.889 15.084V4.29488H20.5106V15.084H18.9963V7.54005C18.9963 7.02047 18.5751 6.59927 18.0555 6.59927C17.5359 6.59927 17.1147 7.02047 17.1147 7.54005V15.084H16.0899V7.54005C16.0899 7.02047 15.6687 6.59927 15.1491 6.59927C14.6295 6.59927 14.2083 7.02047 14.2083 7.54005V15.084H12.889Z" fill="#6DDB6D"/>
</svg>
