<svg width="24" height="24" viewBox="0 0 24 24" fill="none" xmlns="http://www.w3.org/2000/svg">
<path fill-rule="evenodd" clip-rule="evenodd" d="M4.68583 9.90644C4.4763 9.12408 4.42677 8.36753 4.51596 7.69254C4.63499 6.79164 5.02979 5.8845 5.80266 5.39873C6.68271 4.84559 7.69623 5.04473 8.51128 5.71225C8.54742 5.74186 8.58338 5.77247 8.61914 5.8041C8.76027 5.23134 8.97293 4.71639 9.24742 4.26382C10.0291 2.97499 11.289 2.24902 12.6026 2.23459C13.9261 2.22006 15.1828 2.9315 15.9094 4.25466C16.1508 4.69435 16.3294 5.19138 16.4383 5.74183C17.1206 5.28515 17.9267 5.09395 18.6978 5.36327C19.6228 5.68634 20.1456 6.54735 20.2616 7.51971C20.3549 8.30267 20.2039 9.20969 19.799 10.1934C19.8899 10.2522 19.9778 10.3127 20.0624 10.3751C20.5069 10.7029 20.6014 11.329 20.2736 11.7734C19.9458 12.2179 19.3197 12.3125 18.8752 11.9847C18.3117 11.569 17.3701 11.1932 16.1383 10.9228C14.927 10.6568 13.518 10.5106 12.089 10.4993C10.6598 10.4879 9.23726 10.6116 7.99786 10.8715C6.74154 11.135 5.75221 11.5221 5.12439 11.9848C4.67982 12.3125 4.05379 12.2178 3.72611 11.7732C3.39842 11.3286 3.49318 10.7026 3.93775 10.3749C4.16808 10.2051 4.41869 10.0493 4.68583 9.90644ZM10.4882 8.54003C10.2844 7.02709 10.5528 5.96817 10.9575 5.30096C11.4119 4.55176 12.0604 4.24067 12.6246 4.23447C13.1789 4.22839 13.7694 4.51277 14.1563 5.21733C14.5202 5.87997 14.7329 6.9854 14.3899 8.625C13.6425 8.54743 12.8732 8.50543 12.1049 8.49932C11.5661 8.49503 11.0246 8.50837 10.4882 8.54003ZM8.29274 8.78187C7.90217 7.96142 7.53027 7.49397 7.24405 7.25955C7.0635 7.11169 6.95247 7.08491 6.91821 7.08036C6.89617 7.07744 6.88799 7.07881 6.86696 7.09203C6.79112 7.1397 6.57566 7.37223 6.49872 7.95453C6.45369 8.29532 6.46588 8.70853 6.56406 9.16662C6.89728 9.07082 7.2398 8.98699 7.58738 8.9141C7.81833 8.86567 8.05373 8.82162 8.29274 8.78187ZM17.9811 9.3543C18.2627 8.64307 18.3175 8.1073 18.2756 7.7565C18.2233 7.31785 18.0505 7.25566 18.0384 7.25143C18.0074 7.24061 17.7831 7.18976 17.3939 7.52344C17.0959 7.77898 16.751 8.23025 16.4516 8.94437C16.4903 8.95258 16.5288 8.96089 16.5672 8.96932C17.0546 9.07633 17.5303 9.2039 17.9811 9.3543Z" fill="#6DDB6D"/>
<path fill-rule="evenodd" clip-rule="evenodd" d="M19.3347 13.4835C19.5404 13.996 19.2917 14.5783 18.7792 14.784L14.1665 16.6356C13.2116 17.5127 11.1171 19.5214 9.41714 21.4305C9.18221 21.6943 8.82552 21.8146 8.4788 21.7469C6.6372 21.3876 5.50542 20.3013 4.86345 19.0551C4.82881 19.0051 4.79827 18.9511 4.77251 18.8935C4.75476 18.8539 4.73981 18.8136 4.72756 18.7731C4.68424 18.6768 4.64365 18.5798 4.6057 18.4824C4.0498 17.0555 4.03934 15.511 4.19214 14.5079C4.27416 13.9695 4.77192 13.5958 5.31182 13.6672L13.4966 14.7494L18.0341 12.928C18.5467 12.7222 19.129 12.9709 19.3347 13.4835ZM7.18324 18.9104L8.62667 18.2646C9.1308 18.0391 9.35662 17.4475 9.13107 16.9434C8.90551 16.4393 8.31398 16.2135 7.80986 16.439L6.27349 17.1264C6.16451 16.6729 6.1161 16.2124 6.10878 15.7899L11.4111 16.491C10.4911 17.384 9.37025 18.5111 8.33672 19.6424C7.85997 19.4744 7.48256 19.2216 7.18324 18.9104Z" fill="#6DDB6D"/>
</svg>
