<svg width="25" height="24" viewBox="0 0 25 24" fill="none" xmlns="http://www.w3.org/2000/svg">
<path fill-rule="evenodd" clip-rule="evenodd" d="M10.071 14.2803C10.3483 14.5176 10.6694 14.7052 11.0205 14.8293V16C11.0205 16.5523 11.4682 17 12.0205 17C12.5728 17 13.0205 16.5523 13.0205 16V14.8293C13.3716 14.7052 13.6927 14.5176 13.97 14.2803L14.9848 14.8662C15.4631 15.1424 16.0747 14.9785 16.3508 14.5002C16.627 14.0219 16.4631 13.4103 15.9848 13.1342L14.9705 12.5485C15.0033 12.3707 15.0205 12.1874 15.0205 12C15.0205 11.8127 15.0033 11.6294 14.9705 11.4516L15.9846 10.8661C16.4629 10.5899 16.6267 9.97835 16.3506 9.50006C16.0744 9.02177 15.4629 8.85789 14.9846 9.13403L13.9701 9.71975C13.6928 9.48243 13.3716 9.29481 13.0205 9.17071V8C13.0205 7.44772 12.5728 7 12.0205 7C11.4682 7 11.0205 7.44772 11.0205 8V9.17071C10.6693 9.29482 10.3482 9.48247 10.0709 9.71983L9.05645 9.13416C8.57816 8.85802 7.96657 9.02189 7.69043 9.50019C7.41429 9.97848 7.57816 10.5901 8.05645 10.8662L9.0705 11.4517C9.03767 11.6294 9.02051 11.8127 9.02051 12C9.02051 12.1874 9.03768 12.3707 9.07055 12.5486L8.05647 13.134C7.57817 13.4102 7.4143 14.0218 7.69044 14.5001C7.96658 14.9784 8.57817 15.1422 9.05646 14.8661L10.071 14.2803ZM11.1455 11.5156C11.0658 11.6591 11.0205 11.8243 11.0205 12C11.0205 12.1771 11.0665 12.3435 11.1473 12.4877L11.1545 12.5001L11.1611 12.5116C11.3356 12.8041 11.6552 13 12.0205 13C12.5728 13 13.0205 12.5523 13.0205 12C13.0205 11.8235 12.9748 11.6577 12.8946 11.5138L12.8865 11.5001L12.8791 11.487C12.7044 11.1953 12.3852 11 12.0205 11C11.6565 11 11.3378 11.1945 11.1629 11.4853L11.1545 11.5002L11.1455 11.5156Z" fill="#6DDB6D"/>
<path d="M17.0205 9C17.5728 9 18.0205 8.55229 18.0205 8C18.0205 7.44772 17.5728 7 17.0205 7C16.4682 7 16.0205 7.44772 16.0205 8C16.0205 8.55229 16.4682 9 17.0205 9Z" fill="#6DDB6D"/>
<path fill-rule="evenodd" clip-rule="evenodd" d="M3.02051 5C3.02051 4.44772 3.46822 4 4.02051 4H20.0205C20.5728 4 21.0205 4.44772 21.0205 5V19C21.0205 19.5523 20.5728 20 20.0205 20C20.0205 20.5523 19.5728 21 19.0205 21C18.4682 21 18.0205 20.5523 18.0205 20H6.02051C6.02051 20.5523 5.57279 21 5.02051 21C4.46822 21 4.02051 20.5523 4.02051 20C3.46822 20 3.02051 19.5523 3.02051 19V5ZM19.0205 6H5.02051V18H19.0205V6Z" fill="#6DDB6D"/>
</svg>
