<svg width="24" height="24" viewBox="0 0 24 24" fill="none" xmlns="http://www.w3.org/2000/svg">
<path fill-rule="evenodd" clip-rule="evenodd" d="M10.0505 14.2803C10.3278 14.5176 10.6489 14.7052 11 14.8293V16C11 16.5523 11.4477 17 12 17C12.5523 17 13 16.5523 13 16V14.8293C13.3511 14.7052 13.6722 14.5176 13.9495 14.2803L14.9643 14.8662C15.4426 15.1424 16.0542 14.9785 16.3303 14.5002C16.6065 14.0219 16.4426 13.4103 15.9643 13.1342L14.95 12.5485C14.9828 12.3707 15 12.1874 15 12C15 11.8127 14.9828 11.6294 14.95 11.4516L15.9641 10.8661C16.4423 10.5899 16.6062 9.97835 16.3301 9.50006C16.0539 9.02177 15.4423 8.85789 14.9641 9.13403L13.9496 9.71975C13.6722 9.48243 13.3511 9.29481 13 9.17071V8C13 7.44772 12.5523 7 12 7C11.4477 7 11 7.44772 11 8V9.17071C10.6488 9.29482 10.3277 9.48247 10.0503 9.71983L9.03595 9.13416C8.55765 8.85802 7.94606 9.02189 7.66992 9.50019C7.39378 9.97848 7.55765 10.5901 8.03595 10.8662L9.05 11.4517C9.01716 11.6294 9 11.8127 9 12C9 12.1874 9.01718 12.3707 9.05004 12.5486L8.03596 13.134C7.55766 13.4102 7.39379 14.0218 7.66993 14.5001C7.94607 14.9784 8.55766 15.1422 9.03596 14.8661L10.0505 14.2803ZM11.125 11.5156C11.0453 11.6591 11 11.8243 11 12C11 12.1771 11.046 12.3435 11.1268 12.4877L11.134 12.5001L11.1406 12.5116C11.3151 12.8041 11.6347 13 12 13C12.5523 13 13 12.5523 13 12C13 11.8235 12.9543 11.6577 12.8741 11.5138L12.866 11.5001L12.8585 11.487C12.6839 11.1953 12.3647 11 12 11C11.6359 11 11.3173 11.1945 11.1424 11.4853L11.134 11.5002L11.125 11.5156Z" fill="#6DDB6D"/>
<path d="M17 9C17.5523 9 18 8.55229 18 8C18 7.44772 17.5523 7 17 7C16.4477 7 16 7.44772 16 8C16 8.55229 16.4477 9 17 9Z" fill="#6DDB6D"/>
<path fill-rule="evenodd" clip-rule="evenodd" d="M3 5C3 4.44772 3.44772 4 4 4H20C20.5523 4 21 4.44772 21 5V19C21 19.5523 20.5523 20 20 20C20 20.5523 19.5523 21 19 21C18.4477 21 18 20.5523 18 20H6C6 20.5523 5.55228 21 5 21C4.44772 21 4 20.5523 4 20C3.44772 20 3 19.5523 3 19V5ZM19 6H5V18H19V6Z" fill="#6DDB6D"/>
</svg>
