<svg width="25" height="24" viewBox="0 0 25 24" fill="none" xmlns="http://www.w3.org/2000/svg">
<path d="M16.2061 2.5904C16.7426 2.45917 17.2839 2.78767 17.4151 3.32414C17.7914 4.86245 17.1532 6.02688 16.7226 6.81251C16.6616 6.92386 16.6047 7.0276 16.5555 7.12371C16.3379 7.54872 16.2206 7.86654 16.2069 8.19452C16.194 8.50351 16.2703 8.93088 16.6548 9.55578C16.9442 10.0262 16.7976 10.6421 16.3272 10.9315C15.8568 11.2209 15.2409 11.0742 14.9514 10.6039C14.4049 9.71562 14.1758 8.89901 14.2086 8.11134C14.2406 7.34267 14.5199 6.71115 14.7753 6.21228C14.8512 6.06404 14.9234 5.92718 14.991 5.79911C15.413 4.99975 15.6543 4.54278 15.4724 3.79937C15.3412 3.2629 15.6697 2.72163 16.2061 2.5904Z" fill="#6DDB6D"/>
<path d="M9.75098 7.28638C10.7795 7.28638 11.6133 6.45259 11.6133 5.42407C11.6133 4.39555 10.7795 3.56177 9.75098 3.56177C8.72245 3.56177 7.88867 4.39555 7.88867 5.42407C7.88867 6.45259 8.72245 7.28638 9.75098 7.28638Z" fill="#6DDB6D"/>
<path d="M7.64391 6.85744C7.96962 7.1206 8.08683 7.54618 7.97319 7.92384L9.06101 10.3601H10.7983C11.3505 10.3601 11.7983 10.8078 11.7983 11.3601C11.7983 11.9124 11.3505 12.3601 10.7983 12.3601H8.41236C8.01779 12.3601 7.66012 12.1281 7.49925 11.7678L6.68891 9.95299C6.57016 10.2089 6.48064 10.4564 6.41297 10.7048C6.25706 11.2772 6.20325 11.9034 6.22499 12.7218L11.0746 13.2167C11.4381 13.2538 11.7525 13.4864 11.8945 13.8231L14.3967 19.7593C14.6113 20.2682 14.3726 20.8547 13.8637 21.0692C13.3548 21.2837 12.7683 21.0451 12.5538 20.5361L10.2818 15.1462L5.16831 14.6243C4.68444 14.575 4.30628 14.1846 4.27229 13.6994C4.17969 12.3779 4.18841 11.2617 4.48329 10.1792C4.7819 9.08296 5.34982 8.10566 6.23761 7.00683C6.58469 6.57724 7.21431 6.51036 7.64391 6.85744Z" fill="#6DDB6D"/>
<path d="M20.4708 7.86369C20.3396 7.32723 19.7983 6.99872 19.2618 7.12995C18.7253 7.26118 18.3968 7.80245 18.5281 8.33892C18.7099 9.08233 18.4687 9.5393 18.0467 10.3387C17.9791 10.4667 17.9068 10.6036 17.8309 10.7518C17.5755 11.2507 17.2963 11.8822 17.2643 12.6509C17.2315 13.4386 17.4606 14.2552 18.0071 15.1434C18.2965 15.6138 18.9125 15.7605 19.3828 15.4711C19.8532 15.1816 19.9999 14.5657 19.7105 14.0953C19.326 13.4704 19.2497 13.0431 19.2626 12.7341C19.2762 12.4061 19.3936 12.0883 19.6112 11.6633C19.6604 11.5671 19.7173 11.4634 19.7783 11.3521C20.2089 10.5664 20.8471 9.40201 20.4708 7.86369Z" fill="#6DDB6D"/>
<path d="M3 15.656C2.44772 15.656 2 16.1037 2 16.656C2 17.2083 2.44772 17.656 3 17.656H6.94677V20.4387C6.94677 20.9909 7.39449 21.4387 7.94677 21.4387C8.49906 21.4387 8.94677 20.9909 8.94677 20.4387V17.656H9.40186C9.95414 17.656 10.4019 17.2083 10.4019 16.656C10.4019 16.1037 9.95414 15.656 9.40186 15.656H3Z" fill="#6DDB6D"/>
</svg>
