<svg width="24" height="24" viewBox="0 0 24 24" fill="none" xmlns="http://www.w3.org/2000/svg">
<path fill-rule="evenodd" clip-rule="evenodd" d="M12.1549 0.311523C12.8111 0.311523 13.343 0.843452 13.343 1.49962V2.93116C15.4775 3.39311 16.8059 3.84979 17.7967 4.42094C18.6916 4.93687 19.296 5.5532 19.8836 6.15254C20.035 6.30689 20.1852 6.46012 20.339 6.61021C20.6848 6.94766 20.7918 7.46094 20.6097 7.90847C20.4275 8.356 19.9924 8.64863 19.5092 8.64863H4.49087C4.00373 8.64863 3.56594 8.35126 3.38641 7.8984C3.20687 7.44554 3.32197 6.92898 3.67679 6.59518C4.55556 5.76846 5.35789 5.02311 6.60777 4.38025C7.67256 3.83259 9.0161 3.38088 10.9668 2.93981V1.49962C10.9668 0.843452 11.4988 0.311523 12.1549 0.311523ZM12.16 5.11189C10.2628 5.50995 9.04314 5.88356 8.1592 6.27244H16.2136C15.4416 5.9058 14.2587 5.53354 12.16 5.11189Z" fill="#6DDB6D"/>
<path d="M6.37579 12.3928C6.37579 13.0805 5.81831 13.638 5.13063 13.638C4.44295 13.638 3.88547 13.0805 3.88547 12.3928C3.88547 11.7052 4.44295 11.1477 5.13063 11.1477C5.81831 11.1477 6.37579 11.7052 6.37579 12.3928Z" fill="#6DDB6D"/>
<path d="M5.13063 21.796C5.81831 21.796 6.37579 21.2385 6.37579 20.5508C6.37579 19.8632 5.81831 19.3057 5.13063 19.3057C4.44295 19.3057 3.88547 19.8632 3.88547 20.5508C3.88547 21.2385 4.44295 21.796 5.13063 21.796Z" fill="#6DDB6D"/>
<path d="M13.2453 12.3928C13.2453 13.0805 12.6879 13.638 12.0002 13.638C11.3125 13.638 10.755 13.0805 10.755 12.3928C10.755 11.7052 11.3125 11.1477 12.0002 11.1477C12.6879 11.1477 13.2453 11.7052 13.2453 12.3928Z" fill="#6DDB6D"/>
<path d="M18.8694 13.638C19.5571 13.638 20.1146 13.0805 20.1146 12.3928C20.1146 11.7052 19.5571 11.1477 18.8694 11.1477C18.1818 11.1477 17.6243 11.7052 17.6243 12.3928C17.6243 13.0805 18.1818 13.638 18.8694 13.638Z" fill="#6DDB6D"/>
<path d="M13.2453 20.5508C13.2453 21.2385 12.6879 21.796 12.0002 21.796C11.3125 21.796 10.755 21.2385 10.755 20.5508C10.755 19.8632 11.3125 19.3057 12.0002 19.3057C12.6879 19.3057 13.2453 19.8632 13.2453 20.5508Z" fill="#6DDB6D"/>
<path d="M18.8694 21.796C19.5571 21.796 20.1146 21.2385 20.1146 20.5508C20.1146 19.8632 19.5571 19.3057 18.8694 19.3057C18.1818 19.3057 17.6243 19.8632 17.6243 20.5508C17.6243 21.2385 18.1818 21.796 18.8694 21.796Z" fill="#6DDB6D"/>
<path d="M9.81071 16.4288C9.81071 17.1165 9.25323 17.6739 8.56555 17.6739C7.87787 17.6739 7.32039 17.1165 7.32039 16.4288C7.32039 15.7411 7.87787 15.1836 8.56555 15.1836C9.25323 15.1836 9.81071 15.7411 9.81071 16.4288Z" fill="#6DDB6D"/>
<path d="M15.4348 17.6739C16.1225 17.6739 16.68 17.1165 16.68 16.4288C16.68 15.7411 16.1225 15.1836 15.4348 15.1836C14.7471 15.1836 14.1897 15.7411 14.1897 16.4288C14.1897 17.1165 14.7471 17.6739 15.4348 17.6739Z" fill="#6DDB6D"/>
</svg>
