<svg width="24" height="24" viewBox="0 0 24 24" fill="none" xmlns="http://www.w3.org/2000/svg">
<path fill-rule="evenodd" clip-rule="evenodd" d="M3.43001 6.62791C3.86969 5.03439 5.37928 4.1874 6.77076 4.02672C8.18203 3.86375 9.85332 4.35744 10.6972 5.88667C11.0261 6.48273 11.2174 7.30417 11.3331 8.15028C11.4526 9.02391 11.5046 10.0314 11.4986 11.0688C11.4868 13.1334 11.2445 15.415 10.7872 17.1126C10.4261 18.4535 9.50609 19.5787 8.29142 19.9097C7.66504 20.0804 6.9904 20.024 6.37325 19.6846C5.76748 19.3515 5.2909 18.7879 4.94955 18.0663C4.3132 16.721 3.78374 14.4507 3.48342 12.3068C3.33108 11.2193 3.23274 10.1293 3.21176 9.16201C3.19127 8.21683 3.24205 7.30913 3.43001 6.62791ZM8.9461 6.85296C8.60411 6.23321 7.85804 5.91445 7.00019 6.01351C6.12253 6.11486 5.51123 6.6044 5.35797 7.15986C5.24946 7.55313 5.1919 8.22441 5.21129 9.11865C5.21553 9.31433 5.22335 9.51696 5.23454 9.72518C5.2473 9.72149 5.26009 9.71782 5.2729 9.71417C5.7963 9.56522 6.43398 9.43259 7.08598 9.3348C7.73832 9.23696 8.4289 9.1704 9.05791 9.16126C9.18095 9.15947 9.30614 9.15975 9.43183 9.16289C9.41024 8.90284 9.38347 8.6547 9.35155 8.42118C9.24443 7.6376 9.09152 7.11649 8.9461 6.85296ZM9.49781 11.1665C9.37564 11.161 9.23868 11.1588 9.08696 11.161C8.56821 11.1686 7.96947 11.2247 7.38264 11.3127C6.79547 11.4007 6.24412 11.5172 5.82033 11.6378C5.66247 11.6827 5.53148 11.7256 5.42812 11.7645C5.4397 11.8526 5.45169 11.9409 5.46408 12.0293C5.75665 14.1179 6.25342 16.1455 6.75748 17.2111C6.96717 17.6544 7.18802 17.8502 7.33695 17.9321C7.4745 18.0077 7.61183 18.022 7.76561 17.9801C8.11125 17.8859 8.62426 17.4531 8.85605 16.5925C9.24806 15.137 9.4788 13.0871 9.49781 11.1665Z" fill="#6DDB6D"/>
<path fill-rule="evenodd" clip-rule="evenodd" d="M20.5699 6.62791C20.1302 5.03439 18.6206 4.1874 17.2291 4.02672C15.8178 3.86375 14.1466 4.35744 13.3027 5.88667C12.9738 6.48273 12.7824 7.30417 12.6668 8.15028C12.5473 9.02391 12.4953 10.0314 12.5013 11.0688C12.5131 13.1334 12.7554 15.415 13.2127 17.1126C13.5738 18.4535 14.4938 19.5787 15.7085 19.9097C16.3348 20.0804 17.0095 20.024 17.6266 19.6846C18.2324 19.3515 18.709 18.7879 19.0503 18.0663C19.6867 16.721 20.2161 14.4507 20.5165 12.3068C20.6688 11.2193 20.7671 10.1293 20.7881 9.16201C20.8086 8.21683 20.7578 7.30913 20.5699 6.62791ZM15.0538 6.85296C15.3958 6.23321 16.1418 5.91445 16.9997 6.01351C17.8773 6.11486 18.4887 6.6044 18.6419 7.15986C18.7504 7.55313 18.808 8.22441 18.7886 9.11865C18.7843 9.31433 18.7765 9.51696 18.7653 9.72518L18.727 9.71417C18.2036 9.56522 17.5659 9.43259 16.9139 9.3348C16.2616 9.23696 15.571 9.1704 14.942 9.16126C14.8189 9.15947 14.6937 9.15975 14.5681 9.16289C14.5896 8.90284 14.6164 8.6547 14.6483 8.42118C14.7555 7.6376 14.9084 7.11649 15.0538 6.85296ZM18.1796 11.6378C18.3374 11.6827 18.4684 11.7256 18.5718 11.7645C18.5602 11.8526 18.5482 11.9409 18.5358 12.0293C18.2432 14.1179 17.7465 16.1455 17.2424 17.2111C17.0327 17.6544 16.8119 17.8502 16.6629 17.9321C16.5254 18.0077 16.3881 18.022 16.2343 17.9801C15.8886 17.8859 15.3756 17.4531 15.1438 16.5925C14.7518 15.137 14.5211 13.0871 14.5021 11.1665C14.6242 11.161 14.7612 11.1588 14.9129 11.161C15.4317 11.1686 16.0304 11.2247 16.6172 11.3127C17.2044 11.4007 17.7558 11.5172 18.1796 11.6378Z" fill="#6DDB6D"/>
</svg>
