<svg width="24" height="24" viewBox="0 0 24 24" fill="none" xmlns="http://www.w3.org/2000/svg">
<path fill-rule="evenodd" clip-rule="evenodd" d="M3.8355 3.54156C4.02542 3.32316 4.30066 3.19775 4.59009 3.19775H19.4099C19.6976 3.19775 19.9713 3.32162 20.1612 3.53772C20.351 3.75381 20.4386 4.0412 20.4016 4.32646L19.8227 8.7867C19.7979 8.97776 19.7185 9.15759 19.5939 9.30457L17.5816 11.6788C17.3916 11.903 17.1126 12.0322 16.8187 12.0322H7.56171C7.29445 12.0322 7.03831 11.9252 6.85045 11.7351L4.50408 9.36092C4.35277 9.20782 4.25491 9.00998 4.22503 8.79682L3.59978 4.33658C3.5596 4.04995 3.64558 3.75997 3.8355 3.54156ZM5.74006 5.19775L6.08494 7.65799H17.9525L18.2718 5.19775H5.74006ZM16.6726 9.65799H7.60955L7.97939 10.0322H16.3554L16.6726 9.65799ZM6.6289 13.7419C7.04197 13.3753 7.67401 13.413 8.04061 13.826C8.35633 14.1818 8.57712 14.5729 8.6765 15.0031C8.77634 15.4353 8.73786 15.8385 8.63816 16.1923C8.48694 16.729 8.15115 17.2483 7.91873 17.6077C7.87813 17.6705 7.84067 17.7284 7.80791 17.7807C7.52645 18.2299 7.43858 18.4605 7.43931 18.6297C7.43969 18.7174 7.46247 18.9859 8.03905 19.4599C8.46564 19.8107 8.52711 20.4409 8.17635 20.8675C7.82559 21.2941 7.19541 21.3555 6.76882 21.0048C5.91994 20.3068 5.4432 19.5273 5.43933 18.6384C5.43582 17.8309 5.83898 17.1563 6.11317 16.7187C6.17462 16.6207 6.23112 16.5318 6.28289 16.4503C6.51369 16.0873 6.65053 15.872 6.71312 15.6499C6.74055 15.5525 6.7377 15.496 6.72783 15.4533C6.7175 15.4086 6.68324 15.3096 6.54475 15.1536C6.17815 14.7405 6.21583 14.1085 6.6289 13.7419ZM11.7732 13.7419C12.1863 13.3753 12.8183 13.413 13.1849 13.826C13.5006 14.1818 13.7214 14.5729 13.8208 15.0031C13.9206 15.4353 13.8821 15.8385 13.7824 16.1923C13.6312 16.729 13.2954 17.2483 13.063 17.6077C13.0224 17.6705 12.985 17.7284 12.9522 17.7807C12.6707 18.2299 12.5829 18.4605 12.5836 18.6297C12.584 18.7174 12.6068 18.9859 13.1833 19.4599C13.6099 19.8107 13.6714 20.4409 13.3206 20.8675C12.9699 21.2941 12.3397 21.3555 11.9131 21.0048C11.0642 20.3068 10.5875 19.5273 10.5836 18.6384C10.5801 17.8309 10.9833 17.1563 11.2575 16.7187C11.3189 16.6207 11.3754 16.5318 11.4272 16.4503C11.658 16.0873 11.7948 15.872 11.8574 15.6499C11.8848 15.5525 11.882 15.496 11.8721 15.4533C11.8618 15.4086 11.8275 15.3096 11.689 15.1536C11.3224 14.7405 11.3601 14.1085 11.7732 13.7419ZM16.9175 13.7419C17.3305 13.3753 17.9626 13.413 18.3292 13.826C18.6449 14.1818 18.8657 14.5729 18.9651 15.0031C19.0649 15.4353 19.0264 15.8385 18.9267 16.1923C18.7755 16.729 18.4397 17.2483 18.2073 17.6077C18.1667 17.6705 18.1292 17.7285 18.0965 17.7807C17.815 18.2299 17.7272 18.4605 17.7279 18.6297C17.7283 18.7174 17.751 18.9859 18.3276 19.4599C18.7542 19.8107 18.8157 20.4409 18.4649 20.8675C18.1142 21.2941 17.484 21.3555 17.0574 21.0048C16.2085 20.3068 15.7318 19.5273 15.7279 18.6384C15.7244 17.8309 16.1276 17.1563 16.4017 16.7187C16.4632 16.6207 16.5197 16.5318 16.5715 16.4503C16.8023 16.0873 16.9391 15.872 17.0017 15.6499C17.0291 15.5525 17.0263 15.496 17.0164 15.4533C17.0061 15.4086 16.9718 15.3096 16.8333 15.1536C16.4667 14.7405 16.5044 14.1085 16.9175 13.7419Z" fill="#6DDB6D"/>
</svg>
