<svg width="24" height="24" viewBox="0 0 24 24" fill="none" xmlns="http://www.w3.org/2000/svg">
<path d="M11.0918 5.9004C11.0745 5.34838 10.6131 4.91488 10.061 4.93214C9.50903 4.9494 9.07552 5.41089 9.09278 5.9629C9.11824 6.77693 9.3001 7.48567 9.64906 8.08039C10.0008 8.6798 10.4895 9.10724 11.0392 9.40332C12.0944 9.97158 13.3946 10.0639 14.4988 10.0639C14.9855 10.0639 15.4737 10.0447 15.9199 10.0271L16.1373 10.0187C16.6546 9.99893 17.0955 9.98684 17.4654 10.0056C17.7795 10.0216 17.97 10.0576 18.0752 10.0914C18.2153 10.5609 18.683 10.8679 19.1815 10.7932C19.7277 10.7112 20.1041 10.2021 20.0222 9.65591C19.9199 8.97409 19.4827 8.53572 18.9804 8.30162C18.5367 8.09482 18.0201 8.03122 17.5668 8.0082C17.0959 7.98428 16.5708 8.00067 16.0611 8.02011L15.8354 8.02888C15.3873 8.04645 14.9428 8.06388 14.4988 8.06389C13.4317 8.06389 12.5714 7.95689 11.9876 7.64244C11.7178 7.49715 11.5173 7.31238 11.374 7.06823C11.228 6.81937 11.1091 6.45318 11.0918 5.9004Z" fill="#6DDB6D"/>
<path fill-rule="evenodd" clip-rule="evenodd" d="M3.625 12.0823C3.625 11.53 4.07272 11.0823 4.625 11.0823H19.375C19.9273 11.0823 20.375 11.53 20.375 12.0823V15.0436C20.375 15.5959 19.9273 16.0436 19.375 16.0436H4.625C4.07272 16.0436 3.625 15.5959 3.625 15.0436V12.0823ZM5.625 13.0823H7.78234V14.0436H5.625V13.0823ZM9.78234 13.0823V14.0436H18.375V13.0823H9.78234Z" fill="#6DDB6D"/>
</svg>
