<svg width="24" height="24" viewBox="0 0 24 24" fill="none" xmlns="http://www.w3.org/2000/svg">
<path fill-rule="evenodd" clip-rule="evenodd" d="M8.17317 3.7612C9.38642 3.25866 10.6868 3 12 3C14.6522 3 17.1957 4.05357 19.0711 5.92893C20.9464 7.8043 22 10.3478 22 13V20C22 20.2652 21.8946 20.5196 21.7071 20.7071C21.5196 20.8946 21.2652 21 21 21H18C17.2044 21 16.4413 20.6839 15.8787 20.1213C15.3161 19.5587 15 18.7956 15 18V16C15 15.2044 15.3161 14.4413 15.8787 13.8787C16.4413 13.3161 17.2044 13 18 13H20C20 10.8783 19.1571 8.84344 17.6569 7.34315C16.1566 5.84285 14.1217 5 12 5C9.87827 5 7.84344 5.84285 6.34315 7.34315C4.84285 8.84344 4 10.8783 4 13H6C6.79565 13 7.55871 13.3161 8.12132 13.8787C8.68393 14.4413 9 15.2044 9 16V18C9 18.7956 8.68393 19.5587 8.12132 20.1213C7.55871 20.6839 6.79565 21 6 21H3C2.73478 21 2.48043 20.8946 2.29289 20.7071C2.10536 20.5196 2 20.2652 2 20V13C2 10.3478 3.05357 7.8043 4.92893 5.92893C5.85752 5.00035 6.95991 4.26375 8.17317 3.7612ZM6.70711 15.2929C6.51957 15.1054 6.26522 15 6 15H4V19H6C6.26522 19 6.51957 18.8946 6.70711 18.7071C6.89464 18.5196 7 18.2652 7 18V16C7 15.7348 6.89464 15.4804 6.70711 15.2929ZM18 19H20V15H18C17.7348 15 17.4804 15.1054 17.2929 15.2929C17.1054 15.4804 17 15.7348 17 16V18C17 18.2652 17.1054 18.5196 17.2929 18.7071C17.4804 18.8946 17.7348 19 18 19Z" fill="#6DDB6D"/>
<path d="M10.5284 7.32976C10.1379 6.93923 9.50471 6.93923 9.11418 7.32976C8.72366 7.72028 8.72366 8.35345 9.11418 8.74397L10.586 10.2158L9.11418 11.6875C8.72366 12.0781 8.72366 12.7112 9.11418 13.1018C9.50471 13.4923 10.1379 13.4923 10.5284 13.1018L12.0002 11.63L13.472 13.1018C13.8625 13.4923 14.4957 13.4923 14.8862 13.1018C15.2767 12.7112 15.2767 12.0781 14.8862 11.6875L13.4144 10.2158L14.8862 8.74397C15.2767 8.35345 15.2767 7.72028 14.8862 7.32976C14.4957 6.93923 13.8625 6.93923 13.472 7.32976L12.0002 8.80155L10.5284 7.32976Z" fill="#6DDB6D"/>
</svg>
