<svg width="25" height="24" viewBox="0 0 25 24" fill="none" xmlns="http://www.w3.org/2000/svg">
<path d="M18.7804 12.945C18.5798 12.945 18.3701 12.8811 18.1695 12.8355C17.7636 12.7448 17.3645 12.626 16.975 12.4799C16.552 12.3261 16.0871 12.3341 15.6696 12.5024C15.2522 12.6707 14.9117 12.9875 14.7138 13.3917L14.5132 13.8112C13.6277 13.309 12.8096 12.6962 12.0787 11.9876C11.3701 11.2567 10.7574 10.4386 10.2552 9.55311L10.6746 9.36163C11.0788 9.1637 11.3956 8.82325 11.5639 8.40579C11.7323 7.98834 11.7402 7.52338 11.5864 7.10039C11.4416 6.70744 11.3228 6.30539 11.2308 5.89683C11.1852 5.69624 11.1487 5.48653 11.1214 5.28593C11.0106 4.64369 10.6742 4.06208 10.1727 3.64584C9.67126 3.22961 9.03764 3.00611 8.38599 3.01558H5.6415C5.25604 3.01507 4.87482 3.09604 4.52284 3.25318C4.17086 3.41031 3.85607 3.64006 3.59909 3.92737C3.33679 4.22247 3.14148 4.57086 3.02658 4.94861C2.91169 5.32635 2.87993 5.72448 2.93349 6.11566C3.42912 9.91065 5.163 13.4361 7.86627 16.1453C10.5755 18.8486 14.101 20.5825 17.8959 21.0781C18.0143 21.0872 18.1332 21.0872 18.2515 21.0781C18.9239 21.0791 19.5731 20.8324 20.0751 20.3852C20.3624 20.1282 20.5922 19.8134 20.7493 19.4614C20.9064 19.1094 20.9874 18.7282 20.9869 18.3428V15.6074C20.982 14.9774 20.7597 14.3684 20.3577 13.8833C19.9557 13.3982 19.3985 13.0667 18.7804 12.945ZM19.2272 18.4157C19.2269 18.5429 19.1999 18.6687 19.1481 18.7849C19.0963 18.9011 19.0207 19.0052 18.9263 19.0904C18.8263 19.1815 18.7074 19.2491 18.5781 19.2886C18.4488 19.328 18.3123 19.3382 18.1786 19.3184C14.7761 18.874 11.6139 17.3234 9.17924 14.9053C6.74246 12.4685 5.17834 9.29541 4.72971 5.8786C4.7099 5.74487 4.72008 5.60841 4.7595 5.4791C4.79893 5.34979 4.86661 5.23086 4.95766 5.13093C5.04393 5.03533 5.14948 4.95909 5.26735 4.90723C5.38521 4.85537 5.51273 4.82906 5.6415 4.83004H8.37687C8.58764 4.82489 8.79368 4.89294 8.95992 5.02261C9.12617 5.15228 9.24234 5.33555 9.28866 5.54124C9.28866 5.78742 9.37072 6.04272 9.42542 6.2889C9.53081 6.76656 9.67099 7.23586 9.84485 7.69306L8.56834 8.29484C8.34893 8.39556 8.17843 8.57918 8.09421 8.80544C8.00302 9.02743 8.00302 9.27641 8.09421 9.4984C9.40646 12.3092 11.6659 14.5687 14.4767 15.8809C14.6987 15.9721 14.9477 15.9721 15.1697 15.8809C15.396 15.7967 15.5796 15.6262 15.6803 15.4068L16.2547 14.1303C16.7251 14.3018 17.2064 14.4419 17.6953 14.5497C17.9324 14.6044 18.1877 14.65 18.4339 14.6865C18.6396 14.7328 18.8229 14.849 18.9525 15.0152C19.0822 15.1815 19.1502 15.3875 19.1451 15.5983L19.2272 18.4157ZM13.8476 2.91528C13.6379 2.91528 13.4191 2.91528 13.2093 2.91528C12.9675 2.93584 12.7438 3.05161 12.5873 3.23714C12.4309 3.42267 12.3545 3.66275 12.3751 3.90457C12.3956 4.1464 12.5114 4.37015 12.6969 4.52661C12.8824 4.68307 13.1225 4.75942 13.3644 4.73886H13.8476C15.2985 4.73886 16.69 5.31524 17.716 6.3412C18.742 7.36716 19.3183 8.75867 19.3183 10.2096C19.3183 10.3737 19.3183 10.5287 19.3183 10.6928C19.2981 10.9334 19.3741 11.1721 19.5296 11.3567C19.6852 11.5413 19.9076 11.6567 20.1481 11.6776H20.221C20.4493 11.6785 20.6696 11.5938 20.8384 11.4402C21.0072 11.2865 21.1123 11.0752 21.1328 10.8478C21.1328 10.6381 21.1328 10.4193 21.1328 10.2096C21.1328 8.2766 20.3655 6.42265 18.9996 5.05496C17.6336 3.68727 15.7806 2.9177 13.8476 2.91528V2.91528ZM15.6712 10.2096C15.6712 10.4514 15.7672 10.6833 15.9382 10.8543C16.1092 11.0253 16.3411 11.1214 16.583 11.1214C16.8248 11.1214 17.0567 11.0253 17.2277 10.8543C17.3987 10.6833 17.4948 10.4514 17.4948 10.2096C17.4948 9.24231 17.1105 8.31464 16.4265 7.63067C15.7426 6.94669 14.8149 6.56244 13.8476 6.56244C13.6058 6.56244 13.3739 6.6585 13.2029 6.8295C13.0319 7.00049 12.9358 7.23241 12.9358 7.47423C12.9358 7.71605 13.0319 7.94797 13.2029 8.11896C13.3739 8.28995 13.6058 8.38602 13.8476 8.38602C14.3312 8.38602 14.7951 8.57814 15.1371 8.92013C15.4791 9.26212 15.6712 9.72595 15.6712 10.2096Z" fill="#6DDB6D"/>
</svg>
