<svg width="24" height="24" viewBox="0 0 24 24" fill="none" xmlns="http://www.w3.org/2000/svg">
<path fill-rule="evenodd" clip-rule="evenodd" d="M7.96069 4.97063C7.45341 4.96773 6.88611 4.91398 6.39379 4.68425C5.89331 4.45071 5.67691 3.85567 5.91045 3.35519C6.14398 2.85472 6.73902 2.63832 7.2395 2.87185C7.34468 2.92093 7.57978 2.9725 8.03029 2.97071C8.4626 2.96899 8.97381 2.9214 9.57626 2.8609L9.74474 2.84389C10.8671 2.73032 12.2598 2.58938 13.5324 2.79028C14.0779 2.8764 14.4503 3.38846 14.3642 3.93399C14.2781 4.47952 13.7661 4.85194 13.2205 4.76582C12.2428 4.61147 11.1225 4.71586 9.96069 4.83235V6.38989H10.8853C11.4375 6.38989 11.8853 6.83761 11.8853 7.38989V8.51212C13.1119 9.19535 13.9417 10.5053 13.9417 12.009V12.4441H19.0201C19.5724 12.4441 20.0201 12.8918 20.0201 13.4441V19.9631C20.0201 20.5154 19.5724 20.9631 19.0201 20.9631H9.79761C9.78216 20.9631 9.76679 20.9628 9.75151 20.9621V20.9632H4.97998C4.4277 20.9632 3.97998 20.5155 3.97998 19.9632V12.009C3.97998 10.5446 4.767 9.26388 5.94116 8.56691V7.38989C5.94116 6.83761 6.38888 6.38989 6.94116 6.38989H7.96069V4.97063ZM11.9417 12.009V12.4441H9.79761C9.24532 12.4441 8.79761 12.8918 8.79761 13.4441V18.9632H5.97998V12.009C5.97998 10.9045 6.87541 10.009 7.97998 10.009H9.9417C10.1151 10.009 10.2833 10.0311 10.4437 10.0725C10.5239 10.1121 10.6101 10.1412 10.7007 10.1581C11.4289 10.457 11.9417 11.1731 11.9417 12.009ZM10.7976 17.5137V18.9631H18.0201V17.5137H10.7976ZM10.7976 15.5137H18.0201V14.4441H10.7976V15.5137Z" fill="#6DDB6D"/>
</svg>
