<svg width="25" height="24" viewBox="0 0 25 24" fill="none" xmlns="http://www.w3.org/2000/svg">
<path d="M14.5733 7.10555C15.0672 6.85856 15.6679 7.05878 15.9149 7.55276L16.9149 9.55276C17.1619 10.0467 16.9617 10.6474 16.4677 10.8944C15.9737 11.1414 15.373 10.9412 15.1261 10.4472L14.1261 8.44719C13.8791 7.95321 14.0793 7.35254 14.5733 7.10555Z" fill="#6DDB6D"/>
<path d="M12.9149 8.55276C12.6679 8.05878 12.0672 7.85856 11.5733 8.10555C11.0793 8.35254 10.8791 8.95321 11.1261 9.44719L12.1261 11.4472C12.373 11.9412 12.9737 12.1414 13.4677 11.8944C13.9617 11.6474 14.1619 11.0467 13.9149 10.5528L12.9149 8.55276Z" fill="#6DDB6D"/>
<path d="M10.5733 14.1055C11.0672 13.8586 11.6679 14.0588 11.9149 14.5528L12.9149 16.5528C13.1619 17.0467 12.9617 17.6474 12.4677 17.8944C11.9737 18.1414 11.373 17.9412 11.1261 17.4472L10.1261 15.4472C9.87907 14.9532 10.0793 14.3525 10.5733 14.1055Z" fill="#6DDB6D"/>
<path d="M14.9149 13.5528C14.6679 13.0588 14.0672 12.8586 13.5733 13.1055C13.0793 13.3525 12.8791 13.9532 13.1261 14.4472L14.1261 16.4472C14.373 16.9412 14.9737 17.1414 15.4677 16.8944C15.9617 16.6474 16.1619 16.0467 15.9149 15.5528L14.9149 13.5528Z" fill="#6DDB6D"/>
<path fill-rule="evenodd" clip-rule="evenodd" d="M4.02051 4C4.57279 4 5.02051 4.44772 5.02051 5V6L7.02051 6V5C7.02051 4.44772 7.46822 4 8.02051 4H19.0205C19.5728 4 20.0205 4.44772 20.0205 5V6C21.4012 6 22.5205 7.11929 22.5205 8.5C22.5205 9.88071 21.4012 11 20.0205 11V20C20.0205 20.5523 19.5728 21 19.0205 21H8.02051C7.46822 21 7.02051 20.5523 7.02051 20V11L5.02051 11L5.02051 14C5.02051 14.5523 4.57279 15 4.02051 15C3.46822 15 3.02051 14.5523 3.02051 14V5C3.02051 4.44772 3.46822 4 4.02051 4ZM20.0205 9C20.2966 9 20.5205 8.77614 20.5205 8.5C20.5205 8.22386 20.2966 8 20.0205 8V9ZM18.0205 6H9.02051V19H18.0205V6ZM5.02051 9L7.02051 9V8L5.02051 8L5.02051 9Z" fill="#6DDB6D"/>
</svg>
