<svg width="24" height="24" viewBox="0 0 24 24" fill="none" xmlns="http://www.w3.org/2000/svg">
<path fill-rule="evenodd" clip-rule="evenodd" d="M6.04562 4.06117C6.06294 3.52166 6.50531 3.09326 7.0451 3.09326H16.9548C17.4946 3.09326 17.9369 3.52166 17.9543 4.06117L18.4462 19.3824C18.4626 19.8941 18.0899 20.3356 17.5827 20.4052L13.9985 20.8972C13.4568 20.9716 12.9558 20.597 12.8738 20.0563L11.9998 14.2879L10.9094 20.0912C10.8104 20.6183 10.3131 20.9734 9.78232 20.896L6.40892 20.4041C5.90548 20.3306 5.53742 19.8909 5.55375 19.3824L6.04562 4.06117ZM7.86819 9.61988L7.58138 18.5539L9.12109 18.7784L11.1227 8.12543C11.2128 7.64608 11.6355 7.30163 12.1232 7.31025C12.6109 7.31888 13.0212 7.67805 13.0942 8.16029L14.7035 18.7817L16.4183 18.5463L16.1318 9.62126C15.2127 9.24587 14.0935 8.31206 13.6195 6.53454C13.4772 6.00091 13.7944 5.45294 14.328 5.31063C14.8616 5.16831 15.4096 5.48554 15.5519 6.01918C15.6747 6.47939 15.8554 6.82751 16.0504 7.08894L15.9864 5.09326H8.01352L7.9496 7.08429C8.14333 6.82339 8.32265 6.47667 8.44466 6.01918C8.58697 5.48554 9.13493 5.16831 9.66857 5.31063C10.2022 5.45294 10.5194 6.00091 10.3771 6.53454C9.90365 8.30989 8.78665 9.24359 7.86819 9.61988Z" fill="#6DDB6D"/>
</svg>
