<svg width="24" height="24" viewBox="0 0 24 24" fill="none" xmlns="http://www.w3.org/2000/svg">
<path d="M6.47118 9.05933C6.30789 8.53174 5.74781 8.23642 5.22022 8.39971C4.69263 8.56301 4.39731 9.12308 4.5606 9.65067L6.53446 16.0281C6.66408 16.4469 7.05136 16.7324 7.48975 16.7324C7.92814 16.7324 8.31542 16.4469 8.44504 16.0281L10.4189 9.65067C10.5822 9.12308 10.2869 8.56301 9.75928 8.39971C9.23169 8.23642 8.67162 8.53174 8.50832 9.05933L7.48975 12.3503L6.47118 9.05933Z" fill="#6DDB6D"/>
<path d="M13.1377 9.35498C13.1377 8.8027 12.69 8.35498 12.1377 8.35498C11.5854 8.35498 11.1377 8.8027 11.1377 9.35498V15.7324C11.1377 16.2847 11.5854 16.7324 12.1377 16.7324C12.69 16.7324 13.1377 16.2847 13.1377 15.7324V9.35498Z" fill="#6DDB6D"/>
<path fill-rule="evenodd" clip-rule="evenodd" d="M14.3845 9.35498C14.3845 8.8027 14.8322 8.35498 15.3845 8.35498H16.5691C17.9793 8.35498 19.1225 9.4982 19.1225 10.9084C19.1225 12.3187 17.9793 13.4619 16.5691 13.4619H16.3845V15.7324C16.3845 16.2847 15.9368 16.7324 15.3845 16.7324C14.8322 16.7324 14.3845 16.2847 14.3845 15.7324V9.35498ZM16.3845 11.4619H16.5691C16.8747 11.4619 17.1225 11.2141 17.1225 10.9084C17.1225 10.6028 16.8747 10.355 16.5691 10.355H16.3845V11.4619Z" fill="#6DDB6D"/>
<path fill-rule="evenodd" clip-rule="evenodd" d="M2.46851 4.96606C1.91622 4.96606 1.46851 5.41378 1.46851 5.96606V18.8332C1.46851 19.3855 1.91622 19.8332 2.46851 19.8332H21.2138C21.7661 19.8332 22.2138 19.3855 22.2138 18.8332V5.96606C22.2138 5.41378 21.7661 4.96606 21.2138 4.96606H2.46851ZM3.46851 17.8332V6.96606H20.2138V17.8332H3.46851Z" fill="#6DDB6D"/>
</svg>
