<svg width="24" height="24" viewBox="0 0 24 24" fill="none" xmlns="http://www.w3.org/2000/svg">
<path d="M13.0314 7.83344C13.0314 8.40296 12.5697 8.86464 12.0002 8.86464C11.4307 8.86464 10.969 8.40296 10.969 7.83344C10.969 7.26393 11.4307 6.80225 12.0002 6.80225C12.5697 6.80225 13.0314 7.26393 13.0314 7.83344Z" fill="#6DDB6D"/>
<path d="M12.0002 14.2516C12.5697 14.2516 13.0314 13.7899 13.0314 13.2204C13.0314 12.6509 12.5697 12.1892 12.0002 12.1892C11.4307 12.1892 10.969 12.6509 10.969 13.2204C10.969 13.7899 11.4307 14.2516 12.0002 14.2516Z" fill="#6DDB6D"/>
<path fill-rule="evenodd" clip-rule="evenodd" d="M5.12939 4.13989C4.57711 4.13989 4.12939 4.58761 4.12939 5.13989V19.6738C4.12939 20.2261 4.57711 20.6738 5.12939 20.6738C5.68168 20.6738 6.12939 20.2261 6.12939 19.6738V16.9139H17.8708V19.6738C17.8708 20.2261 18.3186 20.6738 18.8708 20.6738C19.4231 20.6738 19.8708 20.2261 19.8708 19.6738V15.9138L19.8708 15.9004V5.13989C19.8708 4.58761 19.423 4.13989 18.8708 4.13989H5.12939ZM17.8708 9.52686V6.13989H6.12939V9.52686H17.8708ZM6.12939 11.527H17.8708V14.9139H6.12939V11.527Z" fill="#6DDB6D"/>
</svg>
