<svg width="25" height="24" viewBox="0 0 25 24" fill="none" xmlns="http://www.w3.org/2000/svg">
<path d="M16.3622 9.87695C16.3622 9.32467 15.9144 8.87695 15.3622 8.87695C14.8099 8.87695 14.3622 9.32467 14.3622 9.87695V12.8862C14.3622 13.4385 14.8099 13.8862 15.3622 13.8862C15.9144 13.8862 16.3622 13.4385 16.3622 12.8862V9.87695Z" fill="#6DDB6D"/>
<path fill-rule="evenodd" clip-rule="evenodd" d="M4.13965 3.21436C4.13965 2.66207 4.58736 2.21436 5.13965 2.21436H19.4236C19.5994 2.21436 19.7646 2.25972 19.9081 2.33936C20.2156 2.50996 20.4236 2.83786 20.4236 3.21436V17.7559L20.4238 17.7764V20.7856C20.4238 21.3379 19.9761 21.7856 19.4238 21.7856C18.8715 21.7856 18.4238 21.3379 18.4238 20.7856V20.7136H6.13965V20.7856C6.13965 21.3379 5.69193 21.7856 5.13965 21.7856C4.58736 21.7856 4.13965 21.3379 4.13965 20.7856V3.21436ZM6.13965 18.7136H11.5015V18.4002H9.80326C9.27729 18.4002 8.84122 17.9927 8.80556 17.468L8.44216 12.1198L7.646 12.0793C7.3224 12.0628 7.02683 11.8906 6.85296 11.6172C6.67908 11.3438 6.64846 11.0031 6.77079 10.703L8.76458 5.81289C8.91805 5.43648 9.28409 5.19043 9.69058 5.19043H11.4962L11.5015 5.19044V4.21436H6.13965V18.7136ZM10.4537 12.2221L10.7376 16.4002H11.5015V12.2753L10.4537 12.2221ZM11.5015 7.19042V10.2728L9.15472 10.1534L10.3628 7.19043H11.4962L11.5015 7.19042ZM18.4236 18.7136H13.5015V4.21436H18.4236V18.7136Z" fill="#6DDB6D"/>
</svg>
