<svg width="24" height="24" viewBox="0 0 24 24" fill="none" xmlns="http://www.w3.org/2000/svg">
<path fill-rule="evenodd" clip-rule="evenodd" d="M8 13C8 10.7909 9.79086 9 12 9C14.2091 9 16 10.7909 16 13C16 15.2091 14.2091 17 12 17C9.79086 17 8 15.2091 8 13ZM12 11C10.8954 11 10 11.8954 10 13C10 14.1046 10.8954 15 12 15C13.1046 15 14 14.1046 14 13C14 11.8954 13.1046 11 12 11Z" fill="#6DDB6D"/>
<path fill-rule="evenodd" clip-rule="evenodd" d="M5 4C5 3.44772 5.44772 3 6 3H18C18.5523 3 19 3.44772 19 4V19C19 19.5523 18.5523 20 18 20C18 20.5523 17.5523 21 17 21C16.4477 21 16 20.5523 16 20H8C8 20.5523 7.55228 21 7 21C6.44772 21 6 20.5523 6 20C5.44772 20 5 19.5523 5 19V4ZM7 8V18H17V8H7ZM17 6H7V5H17V6Z" fill="#6DDB6D"/>
</svg>
