<svg width="25" height="24" viewBox="0 0 25 24" fill="none" xmlns="http://www.w3.org/2000/svg">
<path d="M18.1005 7.00077C17.9691 6.98984 17.8369 7.005 17.7113 7.04538C17.5858 7.08577 17.4695 7.15058 17.3691 7.23609C17.2688 7.32159 17.1863 7.42611 17.1265 7.54362C17.0666 7.66112 17.0306 7.7893 17.0205 7.92077L16.6705 12.4708C16.2081 12.3276 15.7933 12.0615 15.4705 11.7008C15.3767 11.5944 15.2613 11.5091 15.132 11.4508C15.0027 11.3924 14.8624 11.3622 14.7205 11.3622C14.5787 11.3622 14.4384 11.3924 14.3091 11.4508C14.1798 11.5091 14.0644 11.5944 13.9705 11.7008C13.7223 11.9705 13.4209 12.1858 13.0853 12.333C12.7496 12.4803 12.3871 12.5563 12.0205 12.5563C11.654 12.5563 11.2915 12.4803 10.9558 12.333C10.6202 12.1858 10.3187 11.9705 10.0705 11.7008C9.97669 11.5944 9.86128 11.5091 9.73197 11.4508C9.60266 11.3924 9.46241 11.3622 9.32054 11.3622C9.17866 11.3622 9.03841 11.3924 8.9091 11.4508C8.77979 11.5091 8.66438 11.5944 8.57054 11.7008C8.24675 12.0603 7.8323 12.3263 7.37053 12.4708L7.02053 7.92077C7.01044 7.7893 6.97444 7.66112 6.91462 7.54362C6.85479 7.42611 6.77231 7.32159 6.67194 7.23609C6.57156 7.15058 6.45526 7.08577 6.32974 7.04538C6.20421 7.005 6.07194 6.98984 5.94053 7.00077C5.80906 7.01087 5.68088 7.04687 5.56338 7.10669C5.44587 7.16652 5.34135 7.249 5.25585 7.34937C5.17034 7.44975 5.10553 7.56605 5.06514 7.69157C5.02476 7.8171 5.0096 7.94937 5.02053 8.08077L5.88054 19.2308C5.9386 19.9859 6.28012 20.6911 6.83656 21.2049C7.393 21.7187 8.12318 22.003 8.88053 22.0008H15.1805C15.9379 22.003 16.6681 21.7187 17.2245 21.2049C17.7809 20.6911 18.1225 19.9859 18.1805 19.2308L19.0205 8.08077C19.0315 7.94937 19.0163 7.8171 18.9759 7.69157C18.9355 7.56605 18.8707 7.44975 18.7852 7.34937C18.6997 7.249 18.5952 7.16652 18.4777 7.10669C18.3602 7.04687 18.232 7.01087 18.1005 7.00077ZM16.1605 19.0808C16.1404 19.3319 16.0262 19.5661 15.8408 19.7367C15.6554 19.9073 15.4125 20.0016 15.1605 20.0008H8.87054C8.61861 20.0016 8.37567 19.9073 8.19027 19.7367C8.00488 19.5661 7.89069 19.3319 7.87053 19.0808L7.52053 14.5008C8.16888 14.3653 8.78189 14.0962 9.32054 13.7108C10.1092 14.2714 11.0529 14.5727 12.0205 14.5727C12.9882 14.5727 13.9319 14.2714 14.7205 13.7108C15.2592 14.0962 15.8722 14.3653 16.5205 14.5008L16.1605 19.0808ZM12.0205 10.0008C12.8817 9.99814 13.7068 9.65488 14.3157 9.04596C14.9246 8.43704 15.2679 7.61192 15.2705 6.75077C15.2705 4.00077 12.6905 2.24078 12.5805 2.17078C12.4152 2.059 12.2201 1.99927 12.0205 1.99927C11.8209 1.99927 11.6259 2.059 11.4605 2.17078C11.3505 2.25078 8.77053 4.00077 8.77053 6.75077C8.77317 7.61192 9.11643 8.43704 9.72535 9.04596C10.3343 9.65488 11.1594 9.99814 12.0205 10.0008V10.0008ZM12.0205 4.30078C12.7442 4.9205 13.1935 5.80116 13.2705 6.75077C13.2705 7.0823 13.1388 7.40024 12.9044 7.63466C12.67 7.86908 12.3521 8.00077 12.0205 8.00077C11.689 8.00077 11.3711 7.86908 11.1367 7.63466C10.9022 7.40024 10.7705 7.0823 10.7705 6.75077C10.8528 5.80265 11.3012 4.92387 12.0205 4.30078V4.30078Z" fill="#6DDB6D"/>
</svg>
