<svg width="25" height="24" viewBox="0 0 25 24" fill="none" xmlns="http://www.w3.org/2000/svg">
<path fill-rule="evenodd" clip-rule="evenodd" d="M2.82031 11C2.82031 10.3373 3.35757 9.80005 4.02031 9.80005C6.72552 9.80005 9.31993 10.8747 11.2328 12.7876C13.1457 14.7004 14.2203 17.2948 14.2203 20C14.2203 20.6628 13.6831 21.2 13.0203 21.2C12.3576 21.2 11.8203 20.6628 11.8203 20C11.8203 17.9314 10.9985 15.9474 9.53575 14.4846C8.07296 13.0218 6.089 12.2 4.02031 12.2C3.35757 12.2 2.82031 11.6628 2.82031 11Z" fill="#6DDB6D"/>
<path fill-rule="evenodd" clip-rule="evenodd" d="M2.82031 4.00005C2.82031 3.33731 3.35757 2.80005 4.02031 2.80005C8.58204 2.80005 12.9569 4.61219 16.1825 7.83781C19.4082 11.0634 21.2203 15.4383 21.2203 20C21.2203 20.6628 20.6831 21.2 20.0203 21.2C19.3576 21.2 18.8203 20.6628 18.8203 20C18.8203 16.0748 17.261 12.3104 14.4855 9.53487C11.71 6.75933 7.94552 5.20005 4.02031 5.20005C3.35757 5.20005 2.82031 4.66279 2.82031 4.00005Z" fill="#6DDB6D"/>
<path fill-rule="evenodd" clip-rule="evenodd" d="M5.02031 19.2C5.13077 19.2 5.22031 19.1105 5.22031 19C5.22031 18.8896 5.13077 18.8 5.02031 18.8C4.90986 18.8 4.82031 18.8896 4.82031 19C4.82031 19.1105 4.90986 19.2 5.02031 19.2ZM2.82031 19C2.82031 17.785 3.80529 16.8 5.02031 16.8C6.23534 16.8 7.22031 17.785 7.22031 19C7.22031 20.2151 6.23534 21.2 5.02031 21.2C3.80529 21.2 2.82031 20.2151 2.82031 19Z" fill="#6DDB6D"/>
</svg>
