<svg width="24" height="24" viewBox="0 0 24 24" fill="none" xmlns="http://www.w3.org/2000/svg">
<path fill-rule="evenodd" clip-rule="evenodd" d="M6.40723 3.14307C5.85494 3.14307 5.40723 3.59078 5.40723 4.14307V15.7727C5.40723 16.325 5.85494 16.7727 6.40723 16.7727H8.52222V19.8569C8.52222 20.4092 8.96993 20.8569 9.52222 20.8569H14.8524C15.4047 20.8569 15.8524 20.4092 15.8524 19.8569V16.7727H17.9676C18.5198 16.7727 18.9676 16.325 18.9676 15.7727V4.14307C18.9676 3.59078 18.5198 3.14307 17.9676 3.14307H6.40723ZM13.1528 5.14307H14.5447V10.2732H9.82983V5.14307H11.1528V7.70813C11.1528 8.26041 11.6005 8.70813 12.1528 8.70813C12.7051 8.70813 13.1528 8.26041 13.1528 7.70813V5.14307ZM7.82983 11.2732V5.14307H7.40723V14.7727H9.51483L9.52222 14.7727H14.8524L14.8598 14.7727H16.9676V5.14307H16.5447V11.2732C16.5447 11.8255 16.097 12.2732 15.5447 12.2732H8.82983C8.27755 12.2732 7.82983 11.8255 7.82983 11.2732ZM10.5222 16.7727H13.8524V18.8569H10.5222V16.7727Z" fill="#6DDB6D"/>
</svg>
