<svg width="150" height="44" viewBox="0 0 150 44" fill="none" xmlns="http://www.w3.org/2000/svg">
<path d="M65.5566 37.4306C63.6896 37.4306 62.0936 37.0554 60.7666 36.3059C59.4406 35.5554 58.4205 34.5026 57.7082 33.1435C56.9958 31.7853 56.6396 30.182 56.6396 28.3324C56.6396 26.4995 56.9958 24.905 57.7082 23.5459C58.4205 22.1878 59.4397 21.134 60.7666 20.3845C62.0926 19.634 63.6896 19.2598 65.5566 19.2598C66.3754 19.2598 67.2058 19.3691 68.0498 19.5848C68.8928 19.8014 69.6254 20.093 70.2478 20.4593C70.7559 20.7597 71.0666 21.134 71.1818 21.5841C71.296 22.0341 71.2592 22.4586 71.0714 22.8585C70.8827 23.2583 70.5923 23.542 70.1994 23.7084C69.8064 23.8749 69.3641 23.8168 68.8734 23.5331C68.3817 23.2327 67.8659 23.017 67.3258 22.8831C66.7857 22.7501 66.237 22.6832 65.6804 22.6832C64.0264 22.6832 62.7788 23.1707 61.9348 24.1457C61.0908 25.1207 60.6698 26.5163 60.6698 28.3324C60.6698 30.1485 61.0908 31.548 61.9348 32.5319C62.7778 33.5148 64.0264 34.0062 65.6804 34.0062C66.205 34.0062 66.7412 33.9403 67.29 33.8073C67.8388 33.6734 68.3663 33.4655 68.8744 33.1819C69.398 32.8983 69.8568 32.8362 70.2497 32.9948C70.6427 33.1533 70.933 33.4193 71.1218 33.7945C71.3105 34.1697 71.355 34.5775 71.2573 35.0187C71.1585 35.4609 70.8808 35.8233 70.422 36.106C69.7997 36.5226 69.0505 36.8476 68.1746 37.081C67.2958 37.3134 66.4238 37.4306 65.5566 37.4306Z" fill="#54C1FF"/>
<path d="M75.5047 37.3805C74.26 37.3805 73.6387 36.7393 73.6387 35.456V21.2345C73.6387 19.9512 74.261 19.3101 75.5047 19.3101C76.7339 19.3101 77.3475 19.9512 77.3475 21.2345V26.5577C77.7734 25.9245 78.3222 25.4458 78.9929 25.1208C79.6636 24.7958 80.4089 24.6333 81.2286 24.6333C84.0616 24.6333 85.4776 26.3489 85.4776 29.7822V35.456C85.4776 36.7393 84.8552 37.3805 83.6115 37.3805C83.0221 37.3805 82.5672 37.213 82.2478 36.8801C81.9284 36.5463 81.7687 36.0716 81.7687 35.456V29.9565C81.7687 29.1066 81.6129 28.494 81.3022 28.1197C80.9905 27.7445 80.5318 27.5574 79.9269 27.5574C79.141 27.5574 78.5148 27.8065 78.0482 28.3069C77.5817 28.8072 77.3485 29.4729 77.3485 30.3071V35.456C77.3466 36.7393 76.7329 37.3805 75.5047 37.3805Z" fill="#54C1FF"/>
<path d="M94.5146 37.4305C93.0899 37.4305 91.8665 37.1685 90.8425 36.6435C89.8185 36.1186 89.0336 35.378 88.4848 34.4187C87.936 33.4604 87.6611 32.3318 87.6611 31.0317C87.6611 29.7652 87.9273 28.6533 88.4596 27.695C88.9919 26.7377 89.7198 25.9872 90.646 25.4466C91.5713 24.9049 92.6398 24.634 93.8506 24.634C95.6034 24.634 96.9942 25.1964 98.0269 26.3211C99.0587 27.4458 99.5736 28.9665 99.5736 30.882C99.5736 31.5153 99.1884 31.8315 98.4189 31.8315H91.1977C91.3293 32.7976 91.6768 33.5018 92.242 33.943C92.8073 34.3852 93.5893 34.6049 94.5881 34.6049C94.9811 34.6049 95.4263 34.5596 95.9267 34.468C96.4251 34.3764 96.9042 34.2139 97.3639 33.9804C97.8382 33.747 98.2399 33.7017 98.567 33.8426C98.8941 33.9844 99.1197 34.2217 99.2426 34.5546C99.3655 34.8885 99.3655 35.2332 99.2426 35.5917C99.1197 35.9502 98.8457 36.2466 98.4189 36.4791C97.8459 36.7962 97.212 37.0326 96.5151 37.1911C95.8202 37.3517 95.1543 37.4305 94.5146 37.4305ZM93.9997 27.1326C93.2138 27.1326 92.5788 27.3749 92.0959 27.8575C91.6129 28.3411 91.3138 29.0157 91.1987 29.8814H96.5045C96.4067 28.0496 95.5715 27.1326 93.9997 27.1326Z" fill="#54C1FF"/>
<path d="M107.606 37.4307C106.296 37.4307 105.154 37.1687 104.179 36.6438C103.205 36.1188 102.456 35.3743 101.932 34.4071C101.407 33.441 101.146 32.2995 101.146 30.9837C101.146 29.6679 101.408 28.5344 101.932 27.5849C102.456 26.6345 103.205 25.9057 104.179 25.3975C105.154 24.8903 106.296 24.6353 107.606 24.6353C108.114 24.6353 108.658 24.6973 109.239 24.8224C109.821 24.9475 110.381 25.1602 110.922 25.4596C111.331 25.6595 111.585 25.9392 111.684 26.2977C111.783 26.6562 111.761 27.0108 111.622 27.3604C111.484 27.71 111.262 27.9641 110.959 28.1227C110.656 28.2812 110.3 28.2517 109.892 28.035C109.236 27.6854 108.598 27.5101 107.975 27.5101C107.008 27.5101 106.259 27.8144 105.728 28.4231C105.196 29.0317 104.93 29.8935 104.93 31.0093C104.93 32.1094 105.196 32.9712 105.728 33.5966C106.26 34.221 107.008 34.5332 107.975 34.5332C108.27 34.5332 108.581 34.4958 108.908 34.4209C109.235 34.3461 109.563 34.2171 109.891 34.0339C110.299 33.8182 110.655 33.7926 110.958 33.959C111.261 34.1255 111.47 34.3796 111.585 34.7213C111.7 35.0631 111.708 35.4166 111.611 35.784C111.512 36.1513 111.266 36.434 110.873 36.6339C110.316 36.9176 109.76 37.1214 109.203 37.2465C108.645 37.3686 108.114 37.4307 107.606 37.4307Z" fill="#54C1FF"/>
<path d="M115.343 37.3805C114.098 37.3805 113.477 36.7393 113.477 35.456V21.2345C113.477 19.9512 114.099 19.3101 115.343 19.3101C116.571 19.3101 117.186 19.9512 117.186 21.2345V29.9575H117.235L120.796 25.9343C121.156 25.5177 121.484 25.2045 121.778 24.9967C122.074 24.7889 122.482 24.6845 123.007 24.6845C123.514 24.6845 123.907 24.8135 124.185 25.0716C124.464 25.3306 124.603 25.6556 124.603 26.0466C124.603 26.4386 124.439 26.8177 124.112 27.1841L120.968 30.7582L124.529 34.9321C124.841 35.3319 124.975 35.719 124.935 36.0942C124.893 36.4695 124.726 36.7777 124.431 37.019C124.136 37.2613 123.76 37.3815 123.302 37.3815C122.729 37.3815 122.283 37.2721 121.963 37.0564C121.644 36.8408 121.304 36.5069 120.944 36.0568L117.235 31.8583H117.186V35.457C117.186 36.7393 116.572 37.3805 115.343 37.3805Z" fill="#54C1FF"/>
<path d="M133.445 22.6349C132.758 22.6349 132.23 22.4724 131.861 22.1474C131.492 21.8224 131.308 21.3604 131.308 20.7597C131.308 20.1431 131.492 19.6724 131.861 19.3474C132.23 19.0233 132.758 18.8599 133.445 18.8599C134.854 18.8599 135.558 19.4931 135.558 20.7597C135.558 22.0095 134.854 22.6349 133.445 22.6349ZM133.445 37.3557C132.839 37.3557 132.378 37.1765 132.057 36.818C131.738 36.4595 131.578 35.9562 131.578 35.3062V26.7585C131.578 25.3758 132.2 24.6834 133.444 24.6834C134.034 24.6834 134.488 24.8626 134.808 25.2211C135.127 25.5796 135.287 26.0918 135.287 26.7585V35.3062C135.287 35.9562 135.131 36.4605 134.82 36.818C134.51 37.1765 134.051 37.3557 133.445 37.3557Z" fill="#54C1FF"/>
<path d="M140.027 37.3802C138.782 37.3802 138.161 36.7391 138.161 35.4558V26.5831C138.161 25.3165 138.767 24.6833 139.978 24.6833C141.19 24.6833 141.796 25.3165 141.796 26.5831V26.6835C142.204 26.0168 142.754 25.5086 143.441 25.159C144.129 24.8084 144.898 24.634 145.751 24.634C147.175 24.634 148.239 25.0546 148.944 25.8966C149.647 26.7387 150 28.0338 150 29.7829V35.4568C150 36.7401 149.377 37.3812 148.133 37.3812C147.544 37.3812 147.089 37.2138 146.77 36.8809C146.45 36.547 146.291 36.0723 146.291 35.4568V29.9573C146.291 29.1073 146.135 28.4947 145.824 28.1205C145.513 27.7452 145.054 27.5581 144.449 27.5581C143.663 27.5581 143.037 27.8073 142.57 28.3076C142.104 28.8079 141.869 29.4737 141.869 30.3079V35.4568C141.869 36.7391 141.256 37.3802 140.027 37.3802Z" fill="#54C1FF"/>
<path d="M52.0272 13.1928C52.0766 13.1298 52.1172 13.0628 52.1637 12.9988C52.2527 12.8777 52.3418 12.7565 52.4231 12.6295C52.4821 12.5379 52.5354 12.4433 52.5905 12.3498C52.6602 12.2306 52.7299 12.1114 52.7938 11.9883C52.848 11.8829 52.8954 11.7766 52.9448 11.6702C52.998 11.553 53.0522 11.4368 53.0996 11.3166C53.1451 11.2014 53.1848 11.0842 53.2254 10.967C53.2651 10.8508 53.3048 10.7356 53.3397 10.6174C53.3755 10.4923 53.4055 10.3662 53.4355 10.2402C53.4626 10.1259 53.4897 10.0136 53.5119 9.89743C53.5381 9.76054 53.5555 9.62265 53.5739 9.48379C53.5884 9.37644 53.6039 9.26908 53.6136 9.15976C53.6271 9.00809 53.6319 8.85642 53.6358 8.70475C53.6387 8.62498 53.6474 8.54717 53.6474 8.4674C53.6474 8.44475 53.6445 8.4221 53.6445 8.39944C53.6436 8.29997 53.6358 8.2005 53.6319 8.10103C53.6252 7.96019 53.6184 7.82034 53.6048 7.68147C53.5961 7.59481 53.5826 7.50912 53.571 7.42344C53.5506 7.27275 53.5284 7.12207 53.4993 6.97434C53.4839 6.89456 53.4645 6.81577 53.4471 6.73698C53.4122 6.5863 53.3745 6.43758 53.3319 6.29084C53.3087 6.21106 53.2835 6.13129 53.2574 6.0525C53.2109 5.91166 53.1606 5.77378 53.1064 5.63688C53.0735 5.55218 53.0396 5.46847 53.0028 5.38476C52.9477 5.25869 52.8877 5.13558 52.8257 5.01247C52.7812 4.92384 52.7376 4.83421 52.6892 4.74754C52.6263 4.6333 52.5566 4.52299 52.4879 4.41269C52.4337 4.32504 52.3824 4.23541 52.3234 4.14973C52.2053 3.97639 52.0805 3.80798 51.9488 3.64547C51.6207 3.23971 51.2481 2.86152 50.8271 2.52075C50.8193 2.51386 50.8106 2.50893 50.8019 2.50302C50.7274 2.44295 50.6461 2.39075 50.5696 2.33363C50.4341 2.23317 50.2996 2.13173 50.1612 2.0421C50.078 1.98794 49.9889 1.94263 49.9037 1.8924C49.7624 1.80967 49.6211 1.72596 49.4769 1.65407C49.3869 1.60876 49.294 1.57035 49.202 1.52899C49.0549 1.463 48.9078 1.398 48.7578 1.34186C48.661 1.30542 48.5633 1.27489 48.4645 1.24239C48.3116 1.19216 48.1597 1.14587 48.0048 1.10648C47.9051 1.08087 47.8054 1.05822 47.7038 1.03754C47.5412 1.00307 47.3776 0.975489 47.2131 0.951852C47.1173 0.938064 47.0215 0.924277 46.9247 0.914428C46.7379 0.895716 46.552 0.886852 46.3643 0.881927C46.3033 0.879958 46.2443 0.871094 46.1833 0.871094C46.162 0.871094 46.1426 0.874048 46.1213 0.874048C45.9752 0.875033 45.83 0.886851 45.6839 0.8967C45.5793 0.903594 45.4738 0.906549 45.3712 0.917383C45.2561 0.930186 45.1428 0.952837 45.0286 0.970565C44.8989 0.991247 44.7673 1.00799 44.6395 1.03557C44.5689 1.05034 44.5002 1.07299 44.4305 1.09072C44.264 1.1311 44.0975 1.17148 43.9359 1.22269C43.9001 1.23451 43.8653 1.25027 43.8294 1.26209C43.6378 1.32709 43.4471 1.39505 43.2632 1.47482C43.151 1.52308 43.0435 1.58217 42.9342 1.63634C42.8296 1.68755 42.7222 1.73384 42.6206 1.79096C42.4396 1.89043 42.2644 2.00271 42.0912 2.11794C42.0641 2.13665 42.035 2.15143 42.0079 2.17014C41.8657 2.26764 41.7302 2.37696 41.5937 2.4853C41.5385 2.52863 41.4804 2.56901 41.4262 2.61431C41.3246 2.7 41.2288 2.79553 41.131 2.88712C41.0468 2.96591 40.9607 3.04076 40.8804 3.12349C40.8068 3.19933 40.7381 3.28304 40.6674 3.36183C40.5697 3.47115 40.4719 3.5785 40.38 3.69373C40.3664 3.71048 40.3519 3.72426 40.3393 3.74101C40.3335 3.7479 29.8129 16.6704 24.8584 22.5836C23.2575 24.4942 20.3704 24.5375 18.7154 22.6751C16.6209 20.3174 13.4734 16.63 13.0214 16.1711C12.9953 16.1445 12.3817 15.5004 12.0555 15.2374C11.92 15.1281 11.7787 15.0325 11.6384 14.9341C8.76479 12.92 4.92432 13.2312 2.40013 15.5998C2.12042 15.8628 1.85136 16.1425 1.60746 16.4547C0.0888811 18.3988 -0.329237 20.8679 0.249545 23.0977C0.277613 23.207 0.300842 23.3173 0.33375 23.4246C0.338589 23.4404 0.344395 23.4552 0.348267 23.4699C0.503125 23.9988 0.728636 24.51 1.02383 24.9935C1.09642 25.1117 1.16127 25.2329 1.2416 25.3471C1.26096 25.3747 1.28613 25.4082 1.30645 25.4367C1.46905 25.679 1.6423 25.9164 1.83587 26.1409C4.1239 29.0926 9.60296 35.2037 14.2884 40.5131C18.2895 45.0455 25.2901 44.9805 29.2089 40.3743C36.4069 31.9162 50.3131 15.2473 51.8772 13.3721C51.9101 13.3327 51.943 13.2943 51.975 13.2549C52.0079 13.2164 52.0272 13.1928 52.0272 13.1928Z" fill="url(#paint0_linear_3703_100424)"/>
<path d="M46.1829 16.0637C50.3058 16.0637 53.648 12.6627 53.648 8.4674C53.648 4.27208 50.3058 0.871094 46.1829 0.871094C42.06 0.871094 38.7178 4.27208 38.7178 8.4674C38.7178 12.6627 42.06 16.0637 46.1829 16.0637Z" fill="#D7FFC0"/>
<defs>
<linearGradient id="paint0_linear_3703_100424" x1="-0.0012183" y1="22.3713" x2="53.6479" y2="22.3713" gradientUnits="userSpaceOnUse">
<stop stop-color="#54C1FF"/>
<stop offset="1" stop-color="#88FFCC"/>
</linearGradient>
</defs>
</svg>
